<svg width="90" height="132" viewBox="0 0 90 132" fill="none" xmlns="http://www.w3.org/2000/svg">
<path d="M77.486 119.459L33.3046 131.401C24.2956 133.863 14.978 128.508 12.5715 119.52L0.600568 75.3826C-1.86766 66.395 3.50074 57.0996 12.5098 54.6988L56.7528 42.7564C65.7619 40.294 75.0795 45.6496 77.486 54.6372L89.3952 98.7134C91.8634 107.763 86.5567 117.058 77.486 119.459Z" fill="#EDEFFF"/>
<mask id="mask0_338_4855" style="mask-type:alpha" maskUnits="userSpaceOnUse" x="0" y="42" width="90" height="90">
<path d="M77.486 119.459L33.3046 131.401C24.2956 133.863 14.978 128.508 12.5715 119.52L0.600568 75.3826C-1.86766 66.395 3.50074 57.0996 12.5098 54.6988L56.7528 42.7564C65.7619 40.294 75.0795 45.6496 77.486 54.6372L89.3952 98.7134C91.8634 107.763 86.5567 117.058 77.486 119.459Z" fill="#EDEFF5"/>
</mask>
<g mask="url(#mask0_338_4855)">
<path d="M56.5445 134.257L57.345 143.784C57.345 143.784 50.3871 145.874 43.1213 146.734C37.5796 162.839 37.7643 167.387 33.9467 181.402C31.3606 190.929 27.6661 210.168 27.6661 210.168C27.6661 210.168 25.6342 211.029 22.5555 210.783C19.723 210.537 15.967 210.23 14.5508 209.554C14.5508 209.554 17.5064 188.471 19.1073 177.652C21.5087 161.548 22.617 143.354 22.7402 140.649C22.8633 136.039 23.0481 131.736 23.0481 130.446C23.0481 129.155 56.5445 134.257 56.5445 134.257Z" fill="#363D6B"/>
<path d="M31.1145 127.188C31.1145 127.925 30.9298 128.663 30.745 129.4C30.5603 130.138 30.2524 130.814 29.8214 131.49C29.3904 132.105 28.8978 132.781 28.2821 133.15C27.6047 133.58 26.8658 133.826 26.127 133.764C26.8658 133.58 27.4816 133.273 28.0358 132.842C28.5899 132.412 29.021 131.798 29.3904 131.183C30.1293 129.954 30.6219 128.601 31.1145 127.188Z" fill="#545D94"/>
<path d="M34.1931 77.9524L34.3163 86.0046L32.0996 86.6807C32.0996 86.6807 36.6561 94.1797 43.1214 93.565C47.0006 93.2577 46.6312 86.3734 46.6312 86.3734L44.9071 85.4514L45.0918 77.1533L34.1931 77.9524Z" fill="#D45961"/>
<path d="M71.4459 92.5201C71.4459 92.5201 70.4607 94.733 66.951 95.2247C63.4412 95.7164 61.9019 92.0284 61.9019 92.0284C61.9019 92.0284 63.0102 89.6312 65.9658 89.8771C72.0001 90.4303 71.4459 92.5201 71.4459 92.5201Z" fill="#141938"/>
<path d="M70.4604 89.6929C70.4604 89.6929 69.9678 88.0333 65.7191 88.4021C61.4705 88.7709 61.7784 90.2461 61.7784 90.2461L64.5492 92.8277L68.8594 91.7213L70.4604 89.6929Z" fill="#7981B2"/>
<path d="M68.4286 85.2051C68.4286 85.2051 69.4138 90.3068 69.537 93.5646C69.537 93.5646 65.7809 95.7774 63.0101 92.9499L62.6406 86.9262L68.4286 85.2051Z" fill="#F09E8B"/>
<path d="M70.6455 93.9336L70.4608 89.6924C70.4608 89.6924 68.121 91.1061 65.5348 90.8603C62.9487 90.6144 61.7788 90.1841 61.7788 90.1841L61.902 92.0281L63.195 93.7492L70.6455 93.9336Z" fill="#B2DFFF"/>
<path d="M61.9018 92.0285L61.1013 99.2201C61.1013 99.2201 60.6703 98.421 60.424 98.421C60.1162 98.4825 59.6236 98.9128 59.6236 98.9128C58.3305 98.1137 56.7296 93.0734 54.9439 90.9835C52.6656 88.3404 51.8036 87.2955 48.9096 86.8652C46.5698 91.5982 47.7397 99.1586 50.9416 103.83C55.067 109.792 61.5324 112.62 64.6111 112.62C72.1232 112.558 71.5074 92.4587 71.5074 92.4587C71.1995 93.1963 66.3352 94.9789 61.9018 92.0285Z" fill="#545D94"/>
<path d="M60.6088 98.6055C60.6088 98.6055 60.1162 100.081 60.1162 100.818C60.1778 101.617 57.9611 100.081 60.6088 98.6055Z" fill="#141938"/>
<path d="M34.501 85.7587C35.794 87.0495 41.8283 91.9054 44.045 91.6596C46.0154 91.4752 45.0302 86.5578 45.2149 85.6973C46.0769 85.8817 51.0645 87.6027 51.0645 87.6027C51.0645 87.6027 51.4339 90.3688 52.4807 96.5155C52.727 97.8677 53.8353 108.01 53.5275 118.029C53.5275 118.828 54.6974 137.944 53.7122 138.006C46.6927 138.252 28.3435 138.436 22.6171 135.977C22.6171 135.977 22.925 119.689 22.8634 117.722C22.6787 112.743 22.6787 108.379 21.6935 101.31C20.5236 92.4586 25.5727 89.3853 25.5727 89.3853L34.501 85.7587Z" fill="#B2DFFF"/>
<path d="M44.1492 100.076C44.3864 100.056 44.5581 99.7929 44.5326 99.4884C44.5071 99.184 44.2942 98.9532 44.057 98.973C43.8197 98.9928 43.6481 99.2556 43.6736 99.5601C43.699 99.8645 43.912 100.095 44.1492 100.076Z" fill="#6CBDFF"/>
<path d="M45.198 113.66C45.4352 113.64 45.6069 113.377 45.5814 113.072C45.5559 112.768 45.343 112.537 45.1058 112.557C44.8686 112.577 44.6969 112.84 44.7224 113.144C44.7479 113.448 44.9608 113.679 45.198 113.66Z" fill="#6CBDFF"/>
<path d="M45.9925 129.331C46.2297 129.311 46.4036 129.076 46.381 128.805C46.3583 128.534 46.1477 128.331 45.9105 128.351C45.6733 128.371 45.4993 128.606 45.522 128.877C45.5446 129.147 45.7553 129.351 45.9925 129.331Z" fill="#6CBDFF"/>
<path d="M44.0449 91.6592C44.0449 91.6592 47.1236 112.742 47.1236 138.067" stroke="#6CBDFF" stroke-width="0.7165" stroke-miterlimit="10"/>
<path d="M46.816 88.5246C46.816 88.5246 48.6632 96.6383 49.6484 112.866C50.5104 127.187 52.604 144.398 53.1581 150.36C53.3428 152.512 55.3748 154.049 57.5299 153.68L60.1776 153.188C55.498 122.086 56.2368 122.27 55.8058 112.927C55.4364 105.551 52.7887 90.6145 51.1877 87.6026L45.5845 85.5742L46.816 88.5246Z" fill="#545D94"/>
<path d="M52.7886 88.7705C53.5275 90.9219 54.0816 93.1347 54.3895 95.409C54.6358 97.6832 54.8205 99.9575 55.0053 102.17C55.3131 106.657 55.621 111.206 55.621 115.755C54.9437 111.267 54.5127 106.719 54.1432 102.232C53.9585 99.9575 53.8353 97.6832 53.7122 95.4704C53.5275 93.2576 53.2196 91.0448 52.7886 88.7705Z" fill="#141938"/>
<path d="M45.5229 85.5742L46.3234 88.5246C46.3234 88.5246 48.1707 94.3025 49.5869 112.866C49.5869 112.866 51.3109 103.83 51.1262 98.4823L49.0943 96.6998L50.9415 94.9787L47.6165 86.3118L45.5229 85.5742Z" fill="#141938"/>
<path d="M29.9448 85.6357C29.9448 85.6357 38.2573 94.1797 38.4421 114.648C38.5652 129.339 37.8879 141.878 37.4569 147.472C37.2106 150.914 34.1319 153.557 30.6837 153.25C26.6198 152.881 21.5707 152.143 18.1841 150.422C20.5239 127.495 21.6938 127.495 21.6938 122.27C21.6938 120.549 20.6471 109.915 20.0929 101.003C19.6619 94.3026 21.6938 89.6311 21.6938 89.6311C26.9277 86.8036 29.9448 85.6357 29.9448 85.6357Z" fill="#545D94"/>
<path d="M24.2796 147.103C24.7722 143.599 25.2032 121.84 25.2032 121.84C25.2032 121.84 26.0037 121.225 26.0653 120.979C26.25 120.18 26.0037 119.381 26.0037 119.381C25.8805 117.721 30.3139 105.612 29.8213 102.047C28.4667 92.2739 21.6319 89.5693 21.6319 89.5693C19.7231 90.7987 17.0754 102.293 15.8439 114.156C15.3513 118.766 14.9819 136.653 14.4893 145.935C15.9055 145.504 21.5703 145.258 24.2796 147.103Z" fill="#545D94"/>
<path d="M24.2796 147.102C24.4644 145.013 24.4644 142.861 24.5259 140.771L24.6491 134.44L24.8338 121.778V121.594L24.957 121.471C25.1417 121.348 25.3264 121.225 25.4496 121.04C25.5111 120.979 25.5727 120.917 25.6343 120.856C25.6343 120.795 25.6343 120.856 25.6343 120.856V120.733C25.6343 120.549 25.6343 120.303 25.6343 120.118C25.6343 119.934 25.5727 119.688 25.5111 119.504V119.442V119.381C25.5111 118.951 25.5727 118.582 25.6343 118.213C25.6959 117.844 25.819 117.537 25.8806 117.168C26.0653 116.492 26.25 115.816 26.4347 115.14L27.5431 111.144C27.9125 109.792 28.282 108.501 28.5898 107.149C28.8977 105.797 29.2056 104.444 29.3287 103.092C29.3287 102.785 29.3903 102.416 29.3287 102.109C29.2672 101.801 29.2056 101.432 29.2056 101.125C29.0824 100.449 28.9593 99.7728 28.7746 99.0967C28.4051 97.8059 27.9125 96.5151 27.2352 95.2857C25.9421 92.8885 23.9718 90.7372 21.5088 89.5078C22.8019 89.9995 23.9718 90.8601 25.0185 91.7821C26.0653 92.7041 26.9273 93.8105 27.6662 95.0398C28.4051 96.2692 28.9593 97.56 29.3903 98.9123C29.6366 99.5884 29.7598 100.265 29.9445 100.941C30.0061 101.309 30.0676 101.617 30.1292 101.986C30.1908 102.354 30.1908 102.723 30.1292 103.092C30.0061 104.506 29.7598 105.92 29.4519 107.272C29.144 108.624 28.7746 109.976 28.4051 111.329C28.0357 112.681 27.6662 114.033 27.2352 115.324C27.0505 116 26.8658 116.676 26.681 117.291C26.6195 117.598 26.4963 117.967 26.4347 118.274C26.3732 118.582 26.3116 118.951 26.3116 119.196V119.073C26.3732 119.381 26.4347 119.565 26.4347 119.873C26.4347 120.118 26.4347 120.426 26.4347 120.672L26.3732 120.856C26.3116 120.979 26.25 121.102 26.25 121.163C26.1269 121.286 26.0653 121.409 25.9421 121.471C25.7574 121.655 25.5727 121.778 25.388 121.962L25.5727 121.655C25.5111 123.745 25.4496 125.896 25.388 127.986L25.0801 134.44C25.0185 136.53 24.8954 138.681 24.7722 140.771C24.6491 142.861 24.5259 145.013 24.2796 147.102Z" fill="#141938"/>
<path d="M31.5455 84.6523L27.3584 86.5578C27.3584 86.5578 32.3459 93.0119 32.6538 97.4375L34.9936 98.8512L32.4691 100.757C32.4691 100.757 38.1339 111.022 38.3802 114.648C38.3802 114.648 39.3038 103.707 36.6561 94.8559C34.8089 88.5862 31.5455 84.6523 31.5455 84.6523Z" fill="#141938"/>
<path d="M44.9073 87.6643C45.8309 89.1395 46.693 90.4917 47.3087 91.4137C47.555 91.7825 48.0476 91.5367 47.986 91.1679C47.8013 89.8156 47.555 88.0331 47.1856 86.8652C46.5698 86.2505 44.8458 83.6074 44.8458 83.6074L44.7842 85.5129C44.9073 86.1276 44.9073 86.9881 44.9073 87.6643Z" fill="#6CBDFF"/>
<path d="M45.1533 87.2335L43.6755 90.061L35.3013 86.3115L34.624 88.7702L44.3528 92.8885L46.2616 89.139L45.1533 87.2335Z" fill="#6CBDFF"/>
<path d="M43.0354 91.7177C43.2726 91.6979 43.4466 91.4625 43.4239 91.1918C43.4013 90.9212 43.1906 90.7179 42.9534 90.7376C42.7162 90.7574 42.5423 90.9928 42.5649 91.2635C42.5876 91.5341 42.7982 91.7374 43.0354 91.7177Z" fill="#6CBDFF"/>
<path d="M33.9469 82.501C33.9469 82.501 36.6562 86.0661 40.2275 88.5247C39.6118 89.1394 38.6882 91.1678 38.134 92.5201C37.8877 93.0733 37.1488 93.1962 36.7178 92.766L30.8066 84.7138L33.9469 82.501Z" fill="#6CBDFF"/>
</g>
<path d="M23.911 65.9657C23.911 65.9657 19.8471 64.3675 18.8619 57.9135C18.4309 55.0245 25.0809 57.5447 25.0809 57.5447L23.911 65.9657Z" fill="#141938"/>
<path d="M53.4664 47.28C53.8405 47.28 54.1437 46.9773 54.1437 46.6039C54.1437 46.2305 53.8405 45.9277 53.4664 45.9277C53.0923 45.9277 52.7891 46.2305 52.7891 46.6039C52.7891 46.9773 53.0923 47.28 53.4664 47.28Z" fill="white"/>
<path d="M64.1803 55.6392C64.1803 55.6392 66.9512 48.3861 71.323 51.8897C75.6947 55.3933 71.1998 72.2353 60.8553 65.7198C60.8553 65.7198 58.7618 62.5235 64.1803 55.6392Z" fill="#EB897A"/>
<path d="M69.5988 20.3576C77.4188 23.9227 73.4164 35.2327 70.4609 48.5095C68.3058 58.0369 66.5817 67.4414 64.8576 72.1744C63.9955 74.5101 49.2177 84.2834 42.8139 83.2384C35.9176 82.132 25.881 72.5432 24.2185 69.5927C22.5559 66.6423 22.8022 25.5209 25.881 16.3008C25.8194 16.3008 47.4936 3.45419 69.5988 20.3576Z" fill="#F09E8B"/>
<path d="M50.5842 69.7299C51.0148 67.1861 49.4883 64.8075 47.1747 64.4173C44.8611 64.027 42.6365 65.7729 42.2059 68.3168C41.7753 70.8606 43.3018 73.2392 45.6154 73.6294C47.929 74.0197 50.1536 72.2738 50.5842 69.7299Z" fill="#141938"/>
<path d="M47.3704 71.7435C45.7695 70.5142 43.4913 70.1454 42.2598 70.0225C42.5676 71.8665 43.8607 73.3417 45.6464 73.5876C46.6316 73.772 47.6167 73.5261 48.4788 72.9729C48.2325 72.5426 47.863 72.1738 47.3704 71.7435Z" fill="#FF6166"/>
<path d="M43.5527 65.6585C44.1685 65.8429 44.9074 66.0273 45.831 66.1503C47.2472 66.3961 48.8481 66.4576 50.0796 66.5191C49.4639 65.4127 48.4787 64.5521 47.1856 64.3677C45.831 64.1219 44.4764 64.6751 43.5527 65.6585Z" fill="white"/>
<path d="M39.2429 40.9482C39.0582 41.6244 39.4276 42.362 40.1665 42.5464C40.8438 42.7308 41.5827 42.362 41.7674 41.6244C41.9521 40.9482 41.5827 40.2106 40.8438 40.0262C40.1665 39.8418 39.4892 40.2721 39.2429 40.9482Z" fill="#141938"/>
<path d="M40.7821 40.9484C40.7206 41.1328 40.8437 41.3172 41.0284 41.3786C41.2132 41.4401 41.3979 41.3172 41.4594 41.1328C41.521 40.9484 41.3979 40.764 41.2131 40.7025C41.0284 40.641 40.8437 40.764 40.7821 40.9484Z" fill="white"/>
<path d="M59.1931 44.5752C59.0083 45.2513 59.3778 45.9889 60.1167 46.1733C60.794 46.3577 61.5329 45.9889 61.7176 45.2513C61.9023 44.5752 61.5329 43.8376 60.794 43.6532C60.1167 43.4688 59.3778 43.899 59.1931 44.5752Z" fill="#141938"/>
<path d="M60.6708 44.5753C60.6092 44.7597 60.7324 44.9441 60.9171 45.0056C61.1018 45.0671 61.2865 44.9441 61.3481 44.7597C61.4097 44.5753 61.2865 44.3909 61.1018 44.3295C60.9171 44.268 60.7324 44.3909 60.6708 44.5753Z" fill="white"/>
<path d="M73.2933 26.2582C72.3697 33.5728 71.0766 33.3884 71.7539 36.9534C72.616 41.8093 68.1826 55.7009 68.1826 55.7009H69.9067C72.8007 41.9937 79.8202 28.2251 74.4632 21.894C70.4609 17.1611 73.2933 26.2582 73.2933 26.2582Z" fill="#141938"/>
<path opacity="0.2" d="M40.4741 47.0955C40.1047 48.079 38.319 48.3249 36.3486 47.6487C34.4398 46.9726 33.1468 45.6203 33.5162 44.6369C33.8857 43.6534 35.6713 43.4075 37.6417 44.0837C39.5505 44.7598 40.8436 46.1121 40.4741 47.0955Z" fill="#FF1C44"/>
<path opacity="0.2" d="M65.5966 49.9847C65.6581 50.9682 64.0572 51.8287 62.0868 51.9516C60.0549 52.0746 58.3923 51.3984 58.3923 50.415C58.3308 49.4315 59.9317 48.5709 61.9021 48.448C63.8725 48.3251 65.5966 49.0012 65.5966 49.9847Z" fill="#FF1C44"/>
<path d="M65.5967 39.4119C63.9958 38.1826 62.8259 37.8138 59.8087 38.3055C58.2694 38.7972 56.6684 39.166 57.7152 37.1991C59.5624 34.1872 65.843 35.4165 67.444 39.6578C68.3676 41.4403 66.5819 40.3954 65.5967 39.4119Z" fill="#141938"/>
<path d="M36.4718 34.1259C38.2574 33.1424 40.1662 32.6507 43.0602 33.6956C44.4764 34.4333 46.0158 35.1094 45.3385 32.958C44.0454 29.6388 36.9644 30.1306 34.6245 34.003C33.4546 35.6626 35.3018 34.925 36.4718 34.1259Z" fill="#141938"/>
<path d="M21.3248 50.4762L25.4503 50.1074C26.1276 30.1306 30.0684 33.3269 29.0216 26.4426C28.4059 22.2629 27.1128 19.4354 29.1447 9.53918C29.9452 5.66675 23.172 19.0051 23.172 19.0051C23.172 19.0051 16.7683 16.2391 16.7067 27.549C16.6451 35.4783 17.6919 44.2066 17.9382 46.5423L21.3248 50.4762Z" fill="#141938"/>
<path d="M24.6497 50.5372C24.6497 50.5372 22.9256 42.6695 17.7534 44.8208C12.5811 47.0336 13.0737 64.1829 24.8344 60.6178C24.7729 60.6793 25.5733 58.9582 24.6497 50.5372Z" fill="#F09E8B"/>
<path d="M17.4458 50.8446C17.4458 50.3529 17.4458 49.7997 17.5074 49.308C17.6305 48.8162 17.7537 48.263 18.0615 47.8328C18.2463 47.5869 18.431 47.4025 18.6773 47.2181C18.9236 47.0337 19.2315 46.9107 19.5393 46.9107C19.8472 46.8493 20.2167 46.9107 20.5245 47.0951C20.8324 47.2795 21.0171 47.5254 21.2018 47.7098C21.8792 48.6933 22.0023 49.7382 22.187 50.7832C22.3102 51.8281 22.3718 52.8731 22.3102 53.918V54.3483H21.8792C21.4481 54.3483 20.894 54.4712 20.5245 54.7785C20.1551 55.0244 19.9704 55.4547 19.9704 55.9464C19.9704 56.4381 20.0935 56.9913 20.3398 57.5445C20.5245 58.0978 20.7708 58.5895 21.0171 59.0812C20.6477 58.651 20.2782 58.2207 19.9704 57.6675C19.6625 57.1757 19.4162 56.6225 19.293 55.9464C19.1699 55.3317 19.4162 54.5327 19.9704 54.1024C20.2167 53.8565 20.5245 53.7336 20.8324 53.6107C21.1403 53.4877 21.4481 53.4263 21.8176 53.4263L21.3866 53.8565C21.3866 52.8731 21.325 51.8896 21.2018 50.9061C21.1403 50.4144 21.0787 49.9226 20.9555 49.4924C20.8324 49.0006 20.7092 48.5704 20.4629 48.2016C20.2167 47.8328 19.9704 47.6484 19.6009 47.6484C19.2315 47.6484 18.862 47.8328 18.5541 48.1401C17.9384 48.8777 17.6305 49.8612 17.4458 50.8446Z" fill="#D45961"/>
<path d="M77.0493 15.1325C76.5567 14.6407 76.0642 14.149 75.6331 13.6573C72.185 10.0307 65.5349 6.15829 61.04 3.76108C48.8483 -2.69296 34.4398 -0.66455 24.0953 8.49404C20.0314 12.0591 17.5684 15.6242 18.4921 20.4187C18.8615 22.3856 20.5856 22.5085 20.524 23.0003C20.0314 25.3975 25.2037 34.0029 24.8958 27.8562C24.4032 22.6315 25.9426 21.7709 28.0977 20.5416C31.9153 18.4517 40.2278 17.3453 53.7742 22.9388C60.5474 25.7048 73.8475 27.4874 80.867 25.0287C82.3448 24.5369 84.623 23.0617 84.4999 21.2177C84.3767 18.9434 81.6059 18.3288 80.0049 17.3453C78.8966 16.7921 77.9114 15.993 77.0493 15.1325Z" fill="#141938"/>
<path d="M77.296 17.4072C77.296 17.4072 86.9017 17.4072 78.6507 10.6458C78.6507 10.6458 71.7544 5.60554 68.8604 8.80183L77.296 17.4072Z" fill="#141938"/>
<path d="M40.7822 17.0377C40.7822 17.0377 51.5578 32.6504 53.7744 21.7092C53.7744 21.7092 67.5671 34.6788 66.274 24.1065C66.274 24.045 46.7549 16.7304 40.7822 17.0377Z" fill="#141938"/>
<path d="M55.006 57.7911C55.006 57.7911 47.4939 65.5974 44.2305 55.7012C44.2305 55.7012 49.5874 57.914 55.006 57.7911Z" fill="#D45961"/>
<path opacity="0.56" d="M55.437 39.5963C52.0504 39.9651 47.6786 38.1211 47.6786 38.1211C49.4027 42.6082 44.2305 55.7007 44.2305 55.7007C47.7402 58.5896 55.006 57.852 55.006 57.852C52.6046 46.8494 55.437 39.5963 55.437 39.5963Z" fill="url(#paint0_linear_338_4855)"/>
<path d="M58.1457 84.8977C58.1457 84.8977 57.1605 84.2216 56.9758 84.0986C56.7295 84.0372 55.4364 83.9757 55.3133 84.0372C55.1901 84.0372 53.7739 84.406 53.7739 84.406L53.8355 84.5904C53.8355 84.5904 54.8823 86.5573 57.961 86.9261C57.961 86.9261 58.9462 87.0491 59.0078 85.9427L58.1457 84.8977Z" fill="#F09E8B"/>
<path d="M68.4901 85.3284V85.2669L68.4285 85.2054C67.0738 80.9027 65.5961 76.7844 62.5173 74.9404C60.1159 76.2927 58.084 83.4843 58.084 84.7137C58.084 84.7137 59.8696 87.2953 61.9016 88.8934C63.441 90.1228 65.1035 89.8155 65.1035 89.8155C65.1035 89.8155 65.8424 89.5081 65.9655 89.5696C66.335 89.5696 68.5516 89.1393 68.4901 85.3284Z" fill="#F09E8B"/>
<path d="M58.0843 84.713C58.0843 84.713 54.082 85.5121 53.7741 84.4056C53.7741 84.3442 53.651 83.7295 53.7126 83.3607C53.8357 82.8075 54.1436 82.3158 54.1436 82.3158C54.1436 82.3158 54.0204 81.3938 54.082 81.0864C54.2051 80.6562 54.8825 80.103 54.7593 80.103C54.6977 80.103 54.6362 79.9185 54.8825 79.1809C55.0672 78.6277 55.2519 78.1975 55.5598 77.9516C56.114 77.5213 61.0399 77.7672 61.0399 77.7672C61.0399 77.7672 60.7936 83.7295 58.0843 84.713Z" fill="#F09E8B"/>
<path d="M54.8823 80.1029C55.6828 79.7341 56.4833 79.5497 57.3453 79.4882C58.2073 79.4267 59.0694 79.4882 59.8699 79.7956C59.0078 79.857 58.2073 79.9185 57.3453 79.98C56.6064 80.0414 55.7444 80.1029 54.8823 80.1029Z" fill="#D45961"/>
<path d="M54.2051 82.3158C55.0055 81.947 55.806 81.7626 56.6681 81.7011C57.5301 81.6396 58.3921 81.7011 59.1926 82.0084C58.3306 82.0699 57.5301 82.1314 56.6681 82.1928C55.8676 82.2543 55.0671 82.3158 54.2051 82.3158Z" fill="#D45961"/>
<path d="M57.0992 73.6488C55.683 73.5259 54.0205 74.4479 52.1117 75.0626C51.6191 75.247 51.3112 76.4763 52.6043 76.5993C55.4367 76.9681 56.3603 75.9846 57.2223 76.1075C58.2691 76.2305 60.5474 77.8901 60.5474 77.8901L62.6409 78.1359L62.5177 74.8782C62.5177 74.9396 58.8233 73.7718 57.0992 73.6488Z" fill="#F09E8B"/>
<path d="M62.5177 74.94C61.6557 74.8785 60.8552 74.6327 60.0547 74.4483C59.2543 74.2639 58.4538 74.0795 57.6533 73.9565C56.8529 73.7721 56.0524 73.9565 55.3135 74.2639C54.513 74.5097 53.7741 74.8171 52.9737 75.1244L52.3579 75.3088L52.2348 75.3703C52.1732 75.3703 52.1732 75.3703 52.1732 75.4318C52.1116 75.4318 52.1116 75.4932 52.0501 75.5547C51.9269 75.8006 51.9885 76.1694 52.2348 76.2923C52.4811 76.4767 52.9121 76.4767 53.3431 76.4767C53.7741 76.5382 54.1436 76.4767 54.5746 76.4767C54.9441 76.4152 55.3751 76.3538 55.7445 76.2923C56.114 76.1694 56.545 76.0464 56.976 75.985C57.4686 75.9235 57.8996 76.1079 58.2691 76.2923C58.6385 76.4767 59.0695 76.6611 59.2543 77.0914C58.8232 77.0299 58.5154 76.784 58.0843 76.5996C57.7149 76.4767 57.2839 76.3538 56.976 76.3538C56.6066 76.4152 56.2371 76.5996 55.8061 76.6611C55.3751 76.784 54.9441 76.8455 54.513 76.907C54.082 76.9684 53.651 76.9684 53.22 76.907C53.0352 76.907 52.7889 76.8455 52.6042 76.8455C52.3579 76.784 52.1116 76.784 51.9269 76.5996C51.6806 76.4767 51.4959 76.2308 51.4343 75.985C51.3727 75.7391 51.4343 75.4317 51.5575 75.1859C51.619 75.0629 51.6806 74.94 51.8653 74.8785C51.9269 74.8171 51.9885 74.8171 52.0501 74.7556L52.1732 74.6941L52.7889 74.5097C53.5894 74.2639 54.3283 73.8951 55.1288 73.6492C55.5598 73.5263 55.9292 73.4033 56.3603 73.3419C56.7913 73.2804 57.2223 73.3419 57.6533 73.4033C58.5154 73.5263 59.3158 73.7107 60.1163 73.9565C60.9168 74.3253 61.7788 74.5097 62.5177 74.94Z" fill="#D45961"/>
<path d="M54.8208 79.5498C54.8208 79.2425 54.8824 78.9352 55.0055 78.6278C55.1287 78.3205 55.1902 78.0746 55.4981 77.7673C55.8676 77.5829 56.1754 77.5829 56.4833 77.5214C56.7912 77.46 57.0991 77.46 57.4069 77.46C58.0227 77.46 58.6384 77.46 59.2542 77.5214C59.8699 77.5829 60.4856 77.6444 61.1014 77.7673C60.4856 77.8288 59.8699 77.8288 59.2542 77.8902L57.4069 77.9517L56.4833 78.0132C56.1754 78.0132 55.8676 78.0746 55.6828 78.1361C55.4981 78.259 55.375 78.5664 55.2518 78.8122C55.1287 79.0581 55.0671 79.304 54.8208 79.5498Z" fill="#D45961"/>
<path d="M68.4908 85.3281L68.5524 79.3043C68.5524 78.075 68.4292 76.8456 68.0598 75.6778C67.6288 74.264 67.1362 72.2356 67.3209 71.0677C67.6903 69.1623 65.4737 69.1623 64.9811 71.3136C64.4885 73.465 65.7199 74.5714 65.4121 75.6163C65.1042 76.6612 64.8579 79.6731 64.8579 79.6731L68.4908 85.3281Z" fill="#F09E8B"/>
<path d="M65.4121 70.3916C65.4121 70.6989 65.3505 70.9448 65.289 71.1907C65.2274 71.4365 65.1042 71.6824 64.9195 71.9283C64.7964 71.6209 64.7964 71.3136 64.9195 71.0677C64.9811 70.8219 65.1042 70.576 65.4121 70.3916Z" fill="#D45961"/>
<path d="M55.3755 85.021C55.8681 85.021 56.2991 84.9595 56.7301 84.9595C57.1611 84.898 57.5922 84.7751 57.9 84.5907L58.1463 84.4678L58.2695 84.6522C58.5158 85.0824 58.7621 85.5742 59.0084 86.0045C58.5158 85.6971 58.1463 85.3283 57.8385 84.898L58.2079 84.9595C57.7769 85.2668 57.2843 85.3898 56.7917 85.3898C56.2991 85.3898 55.8065 85.2668 55.3755 85.021Z" fill="#D45961"/>
<path d="M57.2219 85.082C57.4678 85.205 57.4678 85.4508 57.4678 85.6352C57.4063 85.8196 57.2834 86.004 57.0375 86.004C56.9761 85.7582 56.9761 85.6352 56.9761 85.5123C56.9761 85.3894 57.0375 85.2664 57.2219 85.082Z" fill="#D45961"/>
<defs>
<linearGradient id="paint0_linear_338_4855" x1="49.1285" y1="42.0463" x2="50.8696" y2="56.2676" gradientUnits="userSpaceOnUse">
<stop stop-color="#F09E8B"/>
<stop offset="1" stop-color="#D45961"/>
</linearGradient>
</defs>
</svg>
