<svg width="50" height="50" viewBox="0 0 50 50" fill="none" xmlns="http://www.w3.org/2000/svg">
<g clip-path="url(#clip0_377_4676)">
<path d="M33.2577 25.0009C31.9374 25.0009 30.6952 24.2978 30.0233 23.1728L24.9999 14.8447L19.9843 23.1728C19.3046 24.3056 18.0624 25.0087 16.7421 25.0087C16.3905 25.0087 16.039 24.9619 15.703 24.8603L4.99989 21.7978V35.7041C4.99989 36.8525 5.78114 37.8525 6.89051 38.1259L23.7811 42.3525C24.578 42.5478 25.414 42.5478 26.203 42.3525L43.1093 38.1259C44.2186 37.8447 44.9999 36.8447 44.9999 35.7041V21.7978L34.2968 24.8525C33.9608 24.9541 33.6093 25.0009 33.2577 25.0009ZM49.8671 16.2353L45.8436 8.20406C45.6014 7.71968 45.078 7.43843 44.5389 7.50875L24.9999 10.0009L32.164 21.8837C32.4608 22.3759 33.0546 22.6103 33.6093 22.4541L49.0702 18.04C49.8436 17.8134 50.2186 16.9541 49.8671 16.2353V16.2353ZM4.15614 8.20406L0.132701 16.2353C-0.226674 16.9541 0.156139 17.8134 0.921764 18.0322L16.3827 22.4462C16.9374 22.6025 17.5311 22.3681 17.828 21.8759L24.9999 10.0009L5.45301 7.50875C4.91395 7.44625 4.39833 7.71968 4.15614 8.20406V8.20406Z" fill="#CFD3DA"/>
</g>
<defs>
<clipPath id="clip0_377_4676">
<rect width="50" height="50" fill="white"/>
</clipPath>
</defs>
</svg>
