<svg width="200" height="200" viewBox="0 0 200 200" fill="none" xmlns="http://www.w3.org/2000/svg">
<path d="M194.814 160.317C191.723 164.471 186.24 166.997 137.287 164.803C110.667 163.607 108.009 162.676 92.6215 162.975C76.5034 163.308 74.9746 164.404 57.9592 164.338C52.5754 164.305 57.6933 164.305 25.5899 164.338C9.8373 164.338 8.3418 164.404 6.31457 162.842C-1.29586 157.027 4.38704 144.631 4.08794 115.518C3.88854 97.3396 1.59544 95.9106 1.89454 75.9041C1.92777 73.8769 1.961 71.9826 1.99424 70.1547C8.27534 69.5233 15.919 69.058 24.5929 69.1245C34.3635 69.191 41.5419 69.8889 44.1009 70.1215C69.2917 72.4478 98.3377 70.7197 120.438 70.055C138.916 69.5233 164.572 69.3904 196.841 71.1185C196.742 73.7772 196.609 76.6685 196.442 79.7924C195.977 89.131 194.847 92.122 194.914 102.79C194.98 113.125 196.11 116.216 196.775 126.319C198.071 145.528 198.702 155.132 194.814 160.317Z" fill="#262B2C"/>
<path d="M196.808 71.1187C164.505 69.3906 138.883 69.5235 120.405 70.0552C98.3046 70.6867 69.2587 72.4148 44.0678 70.1217C41.5421 69.8891 34.3637 69.1912 24.5598 69.1247C15.8859 69.0582 8.24228 69.5567 1.96118 70.1549C2.22705 54.2694 2.75878 45.8946 7.04588 41.6407C12.33 36.3566 18.7108 37.2539 62.047 39.115C75.9718 39.7132 83.0505 40.0123 89.0325 40.112C107.078 40.4111 114.955 39.7132 137.387 39.1482C184.578 37.9186 189.297 40.0123 192.421 43.8674C196.941 49.4173 197.34 57.5263 196.808 71.1187Z" fill="#CFD3DA"/>
<path d="M180.324 144.963C167.13 145.894 153.139 146.459 138.45 146.559C127.184 146.625 116.383 146.392 106.014 145.927C104.851 137.785 103.954 128.613 103.688 118.543C103.422 107.609 103.954 97.6723 104.884 88.932C108.74 88.8323 114.489 88.6661 121.468 88.1344C129.909 87.5029 136.057 86.7386 137.653 86.5392C145.795 85.5754 159.188 85.1434 182.285 87.3368C182.152 97.2735 181.919 107.41 181.554 117.745C181.221 126.951 180.823 136.057 180.324 144.963Z" fill="#F4F4F4"/>
<path d="M113 136.694H141.653V142H113V136.694Z" fill="#403D4B"/>
<path d="M120.959 129.796H145.898V135.102H120.959V129.796Z" fill="#403D4B"/>
<path d="M131.041 122.898H150.143V128.204H131.041V122.898Z" fill="#403D4B"/>
<path d="M141.653 116H154.388V121.306H141.653V116Z" fill="#403D4B"/>
<path d="M89.9295 99.799C79.9595 100.995 69.1254 101.893 57.4938 102.192C41.01 102.657 25.9221 101.86 12.5291 100.497C12.662 96.941 12.8282 93.385 12.9611 89.8623C27.7832 90.2278 39.6807 90.0617 47.9558 89.8623C54.536 89.6961 61.5815 89.397 71.5515 89.7958C79.3281 90.1281 85.6756 90.7263 89.9295 91.2248C89.9295 94.0497 89.9295 96.941 89.9295 99.799Z" fill="white"/>
<path d="M89.9298 118.841C78.0322 119.041 67.2979 119.44 57.9925 119.938C51.3459 120.304 48.8866 120.503 44.3336 120.669C32.5026 121.068 21.8014 120.503 12.4961 119.539C12.629 115.983 12.7952 112.427 12.9281 108.905C25.8891 108.606 36.8561 108.506 45.2974 108.473C58.8234 108.406 64.8054 108.506 71.5185 108.838C79.1622 109.237 85.5097 109.802 89.8965 110.267C89.9298 113.125 89.9298 115.983 89.9298 118.841Z" fill="white"/>
<path d="M12.9611 127.383C21.5353 127.183 29.2454 127.084 35.9253 127.017V139.28C27.4176 139.247 19.5745 138.782 12.5291 138.051C12.662 134.495 12.7949 130.939 12.9611 127.383Z" fill="white"/>
<path d="M89.9295 128.745V137.319C78.0319 137.519 67.2976 137.917 57.9922 138.416C55.1342 138.582 53.0405 138.682 51.2126 138.815V126.917C60.7506 126.884 65.9018 127.017 71.5182 127.316C79.1951 127.715 85.5427 128.28 89.9295 128.745Z" fill="white"/>
<path d="M163.547 98.4924C162.328 96.9336 161.127 95.3749 159.909 93.8162C158.816 92.5441 157.705 91.2721 156.612 90C157.275 92.2575 157.938 94.497 158.601 96.7545C159.013 97.919 159.425 99.0836 159.837 100.23C158.243 100.177 156.666 100.105 155.071 100.051C153.387 100.141 151.684 100.248 150 100.338C151.649 101.019 153.279 101.699 154.928 102.398C156.218 102.989 157.526 103.581 158.816 104.154C157.526 105.068 156.236 105.981 154.946 106.913C153.888 107.898 152.813 108.884 151.756 109.869C154.892 108.956 158.028 108.024 161.163 107.11C162.077 110.407 162.991 113.703 163.923 117C164.299 114.778 164.657 112.557 165.034 110.353L165.571 106.591C167.56 107.307 169.531 108.024 171.52 108.741C173.008 109.386 174.513 110.013 176 110.658C173.384 107.522 170.75 104.387 168.134 101.251C169.065 100.284 169.997 99.2986 170.947 98.3311C172.13 96.7903 173.294 95.2495 174.477 93.7087C170.822 95.2853 167.184 96.8978 163.547 98.4924Z" fill="#FFD500"/>
<path d="M30.4752 56.2304C29.5779 58.8226 26.886 62.6112 22.5656 62.4783C18.6441 62.3453 15.2543 59.0552 14.9552 55.1337C14.5896 50.481 18.6773 46.8586 22.6986 46.493C25.5566 46.2272 29.0461 47.5897 30.4419 50.5475C31.5719 53.04 30.741 55.466 30.4752 56.2304Z" fill="#FA0018"/>
<path d="M51.3123 54.9006C51.0132 58.2571 48.0555 60.1847 47.0585 60.8493C46.0615 61.4808 44.4663 62.5442 42.4058 62.4113C38.9163 62.2119 35.7591 58.7556 35.3936 55.0003C35.3603 54.5018 35.0945 51.3446 37.4208 48.9186C39.7471 46.4925 43.436 46.0605 46.2941 47.2569C49.2519 48.5198 51.6114 51.6105 51.3123 54.9006Z" fill="#FFD500"/>
<path d="M71.8175 54.9011C71.8507 58.2577 69.1256 60.5175 68.893 60.7169C68.4609 61.0493 67.1981 62.0463 65.4699 62.3121C61.6813 62.8771 56.0981 59.8196 56.0981 54.8679C56.0981 50.7469 59.9864 47.1577 64.2735 47.3239C68.4609 47.5233 71.7843 51.2122 71.8175 54.9011Z" fill="#219653"/>
</svg>
