<svg width="217" height="106" viewBox="0 0 217 106" fill="none" xmlns="http://www.w3.org/2000/svg">
<g clip-path="url(#clip0_635_5042)">
<path d="M184.445 105.436L12.9751 58.4338C8.79584 57.2971 5.18462 54.6474 2.83868 50.9965C0.492729 47.3455 -0.421577 42.9522 0.272266 38.6646L4.08306 14.8906C4.74288 10.76 6.84763 7.00013 10.02 4.28484C13.1924 1.56955 17.225 0.0763445 21.3952 0.0727997H199.488C202.01 0.0745659 204.503 0.621104 206.795 1.67523C209.088 2.72936 211.127 4.26638 212.775 6.18176C214.423 8.09715 215.64 10.346 216.344 12.7754C217.048 15.2048 217.222 17.7577 216.855 20.2607L206.439 91.0366C206.075 93.4997 205.195 95.8574 203.856 97.954C202.517 100.051 200.749 101.838 198.671 103.199C196.592 104.56 194.249 105.463 191.797 105.849C189.345 106.234 186.839 106.093 184.445 105.436Z" fill="white"/>
<path d="M164.011 48.6766H171.27L160.001 71.14C157.279 76.6011 154.883 78.9857 150.383 78.9857C148.737 78.9892 147.123 78.5356 145.719 77.6751L147.987 72.5235C148.634 72.832 149.34 72.9936 150.056 72.9967C151.399 72.9967 152.579 72.2686 153.686 70.0295L153.885 69.629L149.385 48.6766H155.918L158.059 62.2929L164.011 48.6766Z" fill="#808080"/>
<path d="M169.201 59.9265C169.201 53.1729 173.575 48.2761 179.509 48.2761C180.75 48.2505 181.981 48.5132 183.105 49.0437C184.229 49.5742 185.215 50.3582 185.987 51.3344L186.404 48.6948H192.974L189.889 68.8099H183.465L183.755 66.8257C182.948 67.6049 181.996 68.2167 180.952 68.6259C179.909 69.0351 178.796 69.2337 177.676 69.2104C172.74 69.2104 169.201 65.3876 169.201 59.9265ZM184.862 58.3246C184.908 57.752 184.833 57.1762 184.643 56.6345C184.453 56.0927 184.151 55.5972 183.758 55.18C183.364 54.7629 182.887 54.4335 182.358 54.2131C181.83 53.9928 181.261 53.8865 180.688 53.9011C180.008 53.9125 179.337 54.0608 178.716 54.337C178.094 54.6132 177.534 55.0118 177.069 55.5092C176.603 56.0066 176.242 56.5926 176.007 57.2325C175.771 57.8725 175.666 58.5533 175.698 59.2347C175.648 59.8142 175.722 60.3977 175.916 60.9461C176.109 61.4944 176.417 61.9948 176.82 62.4138C177.222 62.8327 177.709 63.1606 178.248 63.3752C178.786 63.5899 179.365 63.6863 179.944 63.6582C180.626 63.6579 181.3 63.5161 181.924 63.2415C182.549 62.9669 183.109 62.5655 183.571 62.0627C184.033 61.5599 184.387 60.9666 184.609 60.3201C184.831 59.6736 184.917 58.9879 184.862 58.3063V58.3246Z" fill="#808080"/>
<path d="M193.518 65.8791C193.542 64.7878 193.993 63.7499 194.774 62.9902C195.556 62.2304 196.604 61.8099 197.692 61.8197C198.163 61.8141 198.631 61.9055 199.066 62.0884C199.501 62.2712 199.894 62.5416 200.22 62.8829C200.547 63.2241 200.8 63.6289 200.964 64.0723C201.129 64.5156 201.201 64.9881 201.176 65.4604C201.181 66.0099 201.076 66.5549 200.868 67.063C200.659 67.5712 200.351 68.0323 199.962 68.4192C199.573 68.8061 199.111 69.1108 198.602 69.3155C198.094 69.5202 197.55 69.6206 197.002 69.6109C196.523 69.6174 196.047 69.5235 195.605 69.3351C195.164 69.1467 194.767 68.868 194.439 68.5168C194.111 68.1656 193.859 67.7495 193.701 67.2954C193.542 66.8412 193.48 66.3588 193.518 65.8791ZM195.333 59.4168L197.891 40.3212H204.751L201.339 59.4168H195.333Z" fill="#808080"/>
<path d="M15.0437 32.2751C14.9838 30.1606 15.3542 28.056 16.1323 26.0899C16.9104 24.1238 18.0799 22.3374 19.5694 20.8399C21.0588 19.3424 22.8369 18.1652 24.7951 17.3802C26.7533 16.5951 28.8504 16.2188 30.9584 16.2741C33.4134 16.2144 35.8369 16.8376 37.9604 18.0746C40.084 19.3116 41.8247 21.1141 42.9898 23.2825L37.5458 27.0143C36.8719 25.7073 35.8468 24.6155 34.5864 23.8627C33.326 23.1099 31.8807 22.726 30.4141 22.7546C29.2512 22.778 28.1045 23.033 27.0407 23.5046C25.9768 23.9762 25.0168 24.6551 24.2166 25.5018C23.4164 26.3486 22.7918 27.3463 22.3791 28.4372C21.9664 29.5281 21.7738 30.6903 21.8125 31.8564C21.777 32.8748 21.9508 33.8897 22.3231 34.8378C22.6954 35.7859 23.2582 36.647 23.9765 37.3676C24.6948 38.0881 25.5532 38.6527 26.4984 39.0261C27.4435 39.3996 28.4552 39.5739 29.4704 39.5383C30.7848 39.5612 32.0869 39.281 33.2762 38.7192C34.4655 38.1574 35.5103 37.329 36.3299 36.2981L41.0844 40.485C39.6315 42.2888 37.7749 43.7234 35.6655 44.6723C33.5561 45.6212 31.2533 46.0576 28.9442 45.9461C27.1284 45.995 25.3214 45.6768 23.6308 45.0106C21.9402 44.3443 20.4005 43.3436 19.1035 42.068C17.8065 40.7924 16.7787 39.2679 16.0812 37.5855C15.3837 35.9031 15.0309 34.0971 15.0437 32.2751Z" fill="#1D1D1B"/>
<path d="M41.8648 45.3636L46.6919 14.8542H53.261L51.9544 23.1915L51.2286 27.3419C52.9887 25.6932 55.3172 24.7927 57.7251 24.8298C62.9514 24.8298 65.6371 28.8164 64.6572 34.9874L62.9877 45.3636H56.4186L57.9973 35.3515C58.4873 32.439 57.2714 30.4001 54.6401 30.4001C53.4409 30.4327 52.3003 30.9276 51.4554 31.7819C50.6105 32.6362 50.1263 33.7843 50.1034 34.9874L48.4339 45.3636H41.8648Z" fill="#1D1D1B"/>
<path d="M66.49 36.4619C66.49 29.7083 70.8816 24.8298 76.7974 24.8298C78.0395 24.8074 79.2702 25.0697 80.396 25.5965C81.5218 26.1233 82.513 26.9008 83.294 27.8698L83.6932 25.2303H90.2624L87.0141 45.3635H80.5902L80.8805 43.3793C80.0744 44.161 79.1225 44.7756 78.0794 45.1879C77.0362 45.6002 75.9223 45.8022 74.8013 45.7822C69.938 45.7822 66.49 41.9958 66.49 36.4619ZM82.1508 34.8782C82.1995 34.3042 82.1269 33.7264 81.9378 33.1825C81.7487 32.6386 81.4475 32.1407 81.0536 31.7216C80.6597 31.3024 80.1821 30.9712 79.6519 30.7498C79.1218 30.5284 78.5511 30.4216 77.977 30.4365C77.2971 30.4479 76.6264 30.5962 76.0046 30.8724C75.3829 31.1487 74.8227 31.5473 74.3573 32.0447C73.8919 32.542 73.5309 33.1281 73.2954 33.768C73.06 34.408 72.955 35.0888 72.9866 35.7702C72.9368 36.3497 73.011 36.9332 73.2045 37.4815C73.398 38.0299 73.7062 38.5303 74.1084 38.9493C74.5106 39.3682 74.9975 39.696 75.5364 39.9107C76.0754 40.1253 76.6538 40.2218 77.2329 40.1937C77.9045 40.1833 78.5668 40.035 79.179 39.7581C79.7912 39.4811 80.3403 39.0812 80.7925 38.5832C81.2448 38.0852 81.5907 37.4996 81.8086 36.8623C82.0266 36.2251 82.1122 35.5499 82.0601 34.8782H82.1508Z" fill="#1D1D1B"/>
<path d="M90.2443 45.3636L93.42 25.2303H99.9892L99.6262 27.4694C101.207 25.835 103.363 24.8873 105.633 24.8298C106.807 24.7303 107.983 24.9925 109.004 25.5812C110.026 26.17 110.844 27.0573 111.349 28.1247C112.279 27.0847 113.418 26.2536 114.691 25.6858C115.964 25.118 117.342 24.8263 118.735 24.8298C124.179 24.8298 126.629 28.4705 125.667 34.6598L123.997 45.3636H117.428L119.098 34.8236C119.533 32.0203 118.481 30.4001 116.376 30.4001C115.231 30.4661 114.151 30.9544 113.344 31.771C112.537 32.5876 112.059 33.6749 112.002 34.8236L110.369 45.3636H103.927L105.578 34.8236C106.032 31.9838 104.943 30.4001 102.82 30.4001C101.683 30.4786 100.614 30.972 99.8153 31.7869C99.0162 32.6019 98.5423 33.6821 98.483 34.8236L96.8315 45.3636H90.2443Z" fill="#1D1D1B"/>
<path d="M134.015 42.724L133.633 45.3636H127.064L131.819 14.8542H138.388L136.573 26.9415C138.189 25.5899 140.222 24.8435 142.326 24.8298C147.606 24.8298 150.764 28.4706 150.764 34.0591C150.764 39.6476 147.225 45.7823 140.42 45.7823C139.185 45.8333 137.956 45.5814 136.84 45.0485C135.724 44.5156 134.754 43.7177 134.015 42.724V42.724ZM144.159 34.7508C144.201 34.1812 144.126 33.6088 143.937 33.07C143.748 32.5311 143.449 32.0374 143.061 31.62C142.672 31.2026 142.201 30.8706 141.678 30.645C141.155 30.4193 140.591 30.305 140.021 30.3091C139.342 30.3415 138.677 30.5092 138.063 30.8024C137.45 31.0956 136.901 31.5084 136.448 32.0168C135.995 32.5252 135.648 33.1189 135.426 33.7633C135.205 34.4078 135.114 35.09 135.158 35.7702C135.135 36.3231 135.226 36.8746 135.426 37.3905C135.625 37.9064 135.928 38.3755 136.317 38.7685C136.705 39.1614 137.17 39.4698 137.682 39.6743C138.195 39.8788 138.744 39.9751 139.295 39.9571C139.957 39.9407 140.609 39.7924 141.213 39.5209C141.817 39.2494 142.361 38.86 142.814 38.3755C143.266 37.891 143.618 37.321 143.849 36.6987C144.08 36.0764 144.185 35.4143 144.159 34.7508V34.7508Z" fill="#1D1D1B"/>
<path d="M172.268 34.2229C172.242 35.2956 172.077 36.3602 171.778 37.3904H157.95C158.171 38.3886 158.745 39.2727 159.565 39.8786C160.386 40.4845 161.399 40.7711 162.414 40.6852C163.14 40.7039 163.863 40.5766 164.539 40.3108C165.215 40.0451 165.832 39.6463 166.352 39.1379L169.982 42.5238C168.979 43.654 167.736 44.5436 166.345 45.1265C164.953 45.7095 163.448 45.9709 161.942 45.8915C156.317 45.8915 151.653 42.2507 151.653 36.0069C151.601 34.5252 151.85 33.0486 152.386 31.6667C152.921 30.2849 153.731 29.0268 154.767 27.9691C155.803 26.9115 157.042 26.0764 158.41 25.5148C159.778 24.9532 161.245 24.6768 162.723 24.7024C163.989 24.6348 165.256 24.8344 166.441 25.2882C167.626 25.742 168.703 26.44 169.602 27.3371C170.502 28.2342 171.204 29.3105 171.663 30.4965C172.122 31.6826 172.328 32.952 172.268 34.2229V34.2229ZM166.352 33.3674C166.274 32.4002 165.83 31.4996 165.111 30.8499C164.393 30.2002 163.454 29.8505 162.487 29.8722C161.464 29.8597 160.468 30.2001 159.665 30.8364C158.862 31.4726 158.302 32.3661 158.077 33.3674H166.352Z" fill="#1D1D1B"/>
<path d="M172.994 36.4619C172.994 29.7083 177.385 24.8298 183.301 24.8298C184.543 24.8074 185.774 25.0697 186.9 25.5965C188.026 26.1233 189.017 26.9008 189.798 27.8698L190.197 25.2303H196.766L193.609 45.3635H187.203L187.475 43.3793C186.669 44.161 185.717 44.7756 184.674 45.1879C183.631 45.6002 182.517 45.8022 181.396 45.7822C176.533 45.7822 172.994 41.9958 172.994 36.4619ZM188.655 34.8782C188.703 34.3042 188.631 33.7264 188.442 33.1825C188.253 32.6386 187.951 32.1407 187.557 31.7216C187.164 31.3024 186.686 30.9712 186.156 30.7498C185.626 30.5284 185.055 30.4216 184.481 30.4365C183.801 30.4479 183.13 30.5962 182.508 30.8724C181.887 31.1487 181.327 31.5473 180.861 32.0447C180.396 32.542 180.035 33.1281 179.799 33.768C179.564 34.408 179.459 35.0888 179.49 35.7702C179.443 36.3507 179.52 36.9345 179.716 37.4828C179.911 38.0311 180.221 38.5312 180.625 38.9499C181.029 39.3685 181.517 39.6959 182.056 39.9104C182.596 40.1249 183.175 40.2215 183.755 40.1937C184.433 40.1932 185.103 40.0523 185.724 39.7797C186.344 39.5071 186.902 39.1088 187.362 38.6097C187.822 38.1106 188.175 37.5215 188.397 36.8793C188.619 36.2372 188.707 35.5559 188.655 34.8782V34.8782Z" fill="#1D1D1B"/>
<path d="M128.189 71.4312C128.201 71.0083 128.107 70.5891 127.917 70.2116C128.286 69.9385 128.585 69.5818 128.79 69.1704C128.995 68.7591 129.1 68.305 129.097 67.8451C129.097 67.3718 128.971 66.9069 128.734 66.498C129.066 66.227 129.334 65.8858 129.519 65.4987C129.704 65.1116 129.802 64.6883 129.804 64.259C129.822 64.0348 129.822 63.8096 129.804 63.5855H136.482C136.889 63.6175 137.298 63.5648 137.683 63.4306C138.069 63.2965 138.422 63.0839 138.722 62.806C139.022 62.5282 139.261 62.1912 139.424 61.8163C139.587 61.4414 139.672 61.0366 139.672 60.6274C139.672 60.2181 139.587 59.8133 139.424 59.4383C139.261 59.0634 139.022 58.7265 138.722 58.4487C138.422 58.1709 138.069 57.9582 137.683 57.824C137.298 57.6899 136.889 57.6372 136.482 57.6693H124.088L126.248 56.2312C126.562 56.0326 126.827 55.766 127.025 55.451C127.223 55.136 127.348 54.7806 127.391 54.4108C127.503 53.6609 127.335 52.896 126.919 52.2628C126.487 51.6288 125.843 51.1704 125.104 50.9703C124.749 50.8693 124.376 50.8448 124.01 50.8981C123.644 50.9514 123.294 51.0815 122.981 51.2797C122.981 51.2797 114.035 57.2142 112.547 58.2336C111.584 58.9458 110.797 59.8717 110.25 60.939C109.702 62.0063 109.407 63.1861 109.389 64.3864V66.68C109.384 68.6711 110.163 70.5836 111.556 72.0017C112.95 73.4198 114.845 74.2288 116.829 74.2528H125.25C125.631 74.2778 126.013 74.2238 126.372 74.0939C126.732 73.964 127.06 73.7612 127.338 73.4981C127.615 73.235 127.836 72.9172 127.986 72.5647C128.135 72.2122 128.211 71.8325 128.208 71.4494L128.189 71.4312ZM116.938 72.5781H116.775C115.228 72.5541 113.753 71.9197 112.67 70.8123C111.586 69.7048 110.981 68.2136 110.986 66.6619V64.3682C111.014 63.4403 111.249 62.5304 111.673 61.7052C112.096 60.88 112.699 60.1603 113.436 59.5988C114.924 58.5612 123.78 52.7178 123.87 52.6814C123.984 52.6055 124.113 52.5563 124.248 52.5374C124.383 52.5185 124.521 52.5304 124.651 52.5722C124.977 52.6566 125.257 52.8657 125.431 53.1547C125.59 53.391 125.672 53.6707 125.667 53.9557V54.1377C125.653 54.2703 125.612 54.3986 125.547 54.5146C125.481 54.6305 125.392 54.7315 125.286 54.8113L120.749 57.8149C120.601 57.9176 120.489 58.0638 120.427 58.2333C120.365 58.4028 120.357 58.5872 120.404 58.7614C120.456 58.9375 120.564 59.0917 120.712 59.2002C120.859 59.3088 121.038 59.3657 121.221 59.3622H136.41C136.576 59.3598 136.741 59.3905 136.895 59.4525C137.049 59.5146 137.189 59.6067 137.307 59.7236C137.425 59.8404 137.519 59.9797 137.583 60.1333C137.647 60.2869 137.68 60.4518 137.68 60.6182C137.68 60.9562 137.546 61.2803 137.308 61.5193C137.07 61.7582 136.747 61.8925 136.41 61.8925H124.379C124.16 61.8924 123.951 61.9782 123.795 62.1313C123.638 62.2844 123.549 62.4927 123.544 62.7117C123.553 62.9309 123.644 63.1387 123.798 63.2939C123.953 63.449 124.16 63.54 124.379 63.549H128.008C128.136 63.7503 128.205 63.9837 128.208 64.2225C128.208 64.4681 128.133 64.708 127.994 64.9098C127.854 65.1116 127.657 65.2656 127.427 65.3512H124.197C123.977 65.3559 123.767 65.4455 123.612 65.6016C123.456 65.7576 123.367 65.9679 123.362 66.1886C123.371 66.4078 123.462 66.6156 123.617 66.7708C123.771 66.9259 123.978 67.017 124.197 67.0259H127.191C127.35 67.2441 127.444 67.5028 127.463 67.7723C127.461 68.0363 127.375 68.2928 127.219 68.5052C127.062 68.7176 126.843 68.8752 126.592 68.9555H123.798C123.6 68.985 123.419 69.0849 123.288 69.2369C123.158 69.389 123.086 69.5831 123.086 69.7838C123.086 69.9845 123.158 70.1786 123.288 70.3306C123.419 70.4826 123.6 70.5825 123.798 70.612H126.375C126.53 70.8156 126.613 71.0656 126.611 71.322C126.606 71.4806 126.57 71.6367 126.504 71.7809C126.438 71.9252 126.344 72.0546 126.227 72.1616C126.11 72.2686 125.973 72.351 125.824 72.4037C125.675 72.4565 125.516 72.4787 125.358 72.4689H117.011L116.938 72.5781Z" fill="#808080"/>
<path d="M141.545 60.509C141.55 60.7279 141.64 60.9363 141.796 61.0894C141.952 61.2425 142.162 61.3282 142.38 61.3281H145.882C146.099 61.3281 146.307 61.2418 146.46 61.0882C146.613 60.9346 146.699 60.7263 146.699 60.509C146.695 60.2914 146.608 60.0837 146.456 59.9281C146.304 59.7726 146.099 59.6808 145.882 59.6716H142.38C142.27 59.6691 142.16 59.6891 142.058 59.7303C141.955 59.7715 141.862 59.8331 141.784 59.9114C141.706 59.9896 141.645 60.0829 141.604 60.1856C141.563 60.2884 141.543 60.3984 141.545 60.509V60.509Z" fill="#808080"/>
<path d="M140.094 55.7578C139.941 55.9205 139.857 56.1355 139.858 56.3586C139.856 56.4666 139.876 56.5739 139.916 56.674C139.957 56.7741 140.017 56.865 140.094 56.9411C140.25 57.0978 140.462 57.1859 140.683 57.1859C140.905 57.1859 141.117 57.0978 141.273 56.9411L143.759 54.4654C143.907 54.3041 143.989 54.0929 143.989 53.8738C143.989 53.6546 143.907 53.4435 143.759 53.2822C143.603 53.1254 143.391 53.0374 143.17 53.0374C142.948 53.0374 142.736 53.1254 142.58 53.2822L140.094 55.7578Z" fill="#808080"/>
<path d="M135.72 54.6656C135.725 54.8845 135.815 55.0929 135.971 55.246C136.127 55.3991 136.337 55.4848 136.555 55.4848C136.77 55.4802 136.975 55.3924 137.127 55.2397C137.279 55.0871 137.367 54.8814 137.372 54.6656V51.1523C137.372 50.9333 137.286 50.7231 137.134 50.5666C136.981 50.41 136.773 50.3197 136.555 50.315C136.336 50.3239 136.129 50.415 135.975 50.5702C135.82 50.7253 135.729 50.9331 135.72 51.1523V54.6656Z" fill="#808080"/>
<path d="M136.591 65.4786C136.373 65.4834 136.165 65.5737 136.013 65.7302C135.86 65.8867 135.775 66.097 135.775 66.316V69.8293C135.775 70.0466 135.861 70.2549 136.014 70.4086C136.167 70.5622 136.375 70.6485 136.591 70.6485C136.807 70.6399 137.012 70.5513 137.166 70.4C137.32 70.2487 137.413 70.0453 137.426 69.8293V66.316C137.421 66.0954 137.332 65.8851 137.176 65.729C137.021 65.573 136.811 65.4832 136.591 65.4786V65.4786Z" fill="#808080"/>
<path d="M139.858 64.6049C139.857 64.828 139.941 65.0429 140.094 65.2056L142.58 67.6813C142.736 67.838 142.948 67.926 143.17 67.926C143.391 67.926 143.603 67.838 143.759 67.6813C143.907 67.52 143.989 67.3088 143.989 67.0896C143.989 66.8705 143.907 66.6593 143.759 66.498L141.273 64.0223C141.117 63.8656 140.905 63.7776 140.683 63.7776C140.462 63.7776 140.25 63.8656 140.094 64.0223C140.017 64.0984 139.957 64.1893 139.916 64.2894C139.876 64.3895 139.856 64.4968 139.858 64.6049V64.6049Z" fill="#808080"/>
</g>
<defs>
<clipPath id="clip0_635_5042">
<rect width="217" height="106" fill="white"/>
</clipPath>
</defs>
</svg>
