<svg xmlns="http://www.w3.org/2000/svg" viewBox="0 0 88.75 88.75"><defs><style>.cls-1{fill:#4cbfb4;}</style></defs><g id="Layer_2" data-name="Layer 2"><g id="Capa_1" data-name="Capa 1"><path class="cls-1" d="M71.64,43.39a1,1,0,0,0-.49,1.06,7,7,0,0,1,0,1.21,1.17,1.17,0,0,1-1,1.25c-.51.11-1,.17-1.53.31a.91.91,0,0,0-.51.39c-.24.41-.4.86-.61,1.28a1.19,1.19,0,0,1-1.59.78c-.46-.11-.93-.2-1.37-.35a.71.71,0,0,0-.77.18c-.37.33-.75.65-1.15,1a1.16,1.16,0,0,1-1.61,0,6.12,6.12,0,0,1-.87-.73,1.16,1.16,0,0,0-1.4-.29,8.05,8.05,0,0,1-1.1.28A1.15,1.15,0,0,1,56.22,49c-.21-.42-.41-.85-.59-1.29a.74.74,0,0,0-.66-.53A11.71,11.71,0,0,1,53.79,47c-1-.2-1.2-.42-1.29-1.46a.59.59,0,0,0,0-.15c-1.28.45-2.52,1-3.81,1.32A19.29,19.29,0,1,1,39.82,9.13h0a19.38,19.38,0,0,1,7.55,0h0A19.2,19.2,0,0,1,63,27.68a1.8,1.8,0,0,0,.85,1.63.75.75,0,0,0,.77.17c.45-.15.91-.23,1.37-.34a1.2,1.2,0,0,1,1.6.77,13.62,13.62,0,0,0,.6,1.28.89.89,0,0,0,.52.39c.49.14,1,.2,1.52.32a1.16,1.16,0,0,1,1,1.25,4,4,0,0,1,0,.92,1.34,1.34,0,0,0,.76,1.56,6.65,6.65,0,0,1,1,.8,1.05,1.05,0,0,1,.21,1.31c-.28.47-.56.95-.82,1.44a.59.59,0,0,0,0,.45c.24.46.51.9.77,1.35a1.18,1.18,0,0,1-.25,1.47C72.43,42.77,72.05,43.1,71.64,43.39Zm-20-.3-.46-.37c-.75-.58-.83-1-.39-1.82.19-.38.38-.77.6-1.13a.67.67,0,0,0,0-.73c-.25-.42-.48-.87-.7-1.31A1.12,1.12,0,0,1,51,36.17c.39-.31.79-.6,1.2-.88a.7.7,0,0,0,.34-.72c0-.44-.06-.9-.06-1.35a1.2,1.2,0,0,1,1.08-1.34c.49-.1,1-.17,1.46-.3a.73.73,0,0,0,.48-.33A5.22,5.22,0,0,0,56,29.93a12.23,12.23,0,0,0-.28-5.14A12.49,12.49,0,1,0,45.17,40.43c.65-.09,1.3-.25,1.95-.35a1.1,1.1,0,0,1,1.32,1.11c0,.58-.33,1-1.06,1.14A14.76,14.76,0,1,1,45.44,13.4c5.89.77,9.9,4.08,12.08,9.58a13.88,13.88,0,0,1,.91,5.71c0,.21,0,.56.16.6.35.14.77.44,1.12.14s1.09-.55,1-1.32c-.13-1.13-.12-2.28-.34-3.39A17,17,0,0,0,26.65,27a16.55,16.55,0,0,0,5.68,13.74A16.53,16.53,0,0,0,46.07,44.9,15.55,15.55,0,0,0,51.61,43.09Zm17.22-8c0-1.37.21-1.12-1-1.32a2.25,2.25,0,0,1-1.71-1.39c-.38-1-.21-.94-1.31-.61a2,2,0,0,1-2.19-.46,3.18,3.18,0,0,0-.33-.3c-.44-.36-.5-.38-.93.07a2.27,2.27,0,0,1-2.76.6c-.06,0-.14,0-.2-.06-.34-.12-.52,0-.65.34-.76,1.89-.85,1.53-2.39,1.9h-.08c-.33,0-.47.18-.41.5a2.42,2.42,0,0,1-1.42,2.85c-.28.15-.31.34-.15.63,1,1.71.85,1.56,0,3.11a.54.54,0,0,0,.17.69c1.42,1,1.49.91,1.38,2.78,0,.35.09.54.46.55.16,0,.32.09.48.1a1.89,1.89,0,0,1,1.78,1.37c.41,1,.25.92,1.32.62a2,2,0,0,1,2.15.44c.78.71.83.7,1.63,0A1.85,1.85,0,0,1,64.56,47c1.16.33,1.19.31,1.7-.85a1.58,1.58,0,0,1,1.25-1c.42-.07,1,0,1.2-.3s.13-.85.11-1.29a1.41,1.41,0,0,1,.67-1.36c.14-.1.28-.2.41-.31.85-.63.73-.39.29-1.29a2,2,0,0,0-.11-.2,1.71,1.71,0,0,1,0-2c.53-.89.52-.94-.33-1.51A1.65,1.65,0,0,1,68.83,35.07Z"/><path class="cls-1" d="M14.5,53.17a1.34,1.34,0,0,1,1.33-1.35h0q5.69,0,11.37,0c.6,0,1.07.12,1.28.76,0,.09.27.17.41.17,1.3,0,2.61,0,3.91,0,1,0,1.27.29,1.28,1.29,0,.61,0,.63.6.57a2.84,2.84,0,0,0,.89-.26c.81-.37,1.6-.78,2.41-1.16a12.65,12.65,0,0,1,5.72-1.37,10.16,10.16,0,0,1,3.45.66,4.45,4.45,0,0,0,1.74.28c.62,0,1.24,0,1.86,0A3.73,3.73,0,0,1,54.29,58l-.13.29a1.89,1.89,0,0,0,1.2-.15c3.44-1.68,6.89-3.33,10.32-5a3.47,3.47,0,0,1,2.6-.3,3,3,0,0,1,1.9,4.24,5.19,5.19,0,0,1-.87,1.3A98.51,98.51,0,0,1,58,69c-.85.65-1.74,1.24-2.63,1.84a8.56,8.56,0,0,1-5.68,1.48c-2.92-.26-5.85-.41-8.78-.59l-6.23-.33h-.35c-.2,0-.27.09-.26.28v.41c0,.85-.33,1.17-1.16,1.18-1.28,0-2.57,0-3.85,0-.35,0-.62,0-.73.44a.58.58,0,0,1-.11.18,1,1,0,0,1-.74.32H16a1.54,1.54,0,0,1-1.55-1.55Q14.51,62.93,14.5,53.17ZM34.1,63V69c0,.52,0,.52.54.53.9,0,1.79,0,2.68,0,4.13.28,8.26.54,12.39.88a7.07,7.07,0,0,0,4.74-1.21c.88-.61,1.78-1.2,2.61-1.86A97.33,97.33,0,0,0,67.87,57.22a3.67,3.67,0,0,0,.61-.85,1.19,1.19,0,0,0-1.1-1.75,2.56,2.56,0,0,0-1,.29c-3.48,1.67-7,3.36-10.44,5a2.67,2.67,0,0,1-1.1.28c-3.41,0-6.81,0-10.21,0a2.43,2.43,0,0,1-.47,0,.94.94,0,0,1,0-1.83,4.47,4.47,0,0,1,.52,0h6.12a1.87,1.87,0,1,0,0-3.73c-.66,0-1.32,0-2,0a5.92,5.92,0,0,1-2.39-.42,8,8,0,0,0-3-.52,11,11,0,0,0-4.7,1.21c-.9.42-1.77.89-2.69,1.27a5,5,0,0,1-1.4.31c-.6,0-.54,0-.54.59Zm-7.47.12V54.4c0-.13,0-.27,0-.4s-.09-.32-.31-.3H16.93c-.61,0-.57-.07-.57.55V71.81c0,.62-.05.55.57.56H26c.66,0,.6.06.6-.59ZM28.5,63v7.93c0,.52,0,.52.49.52.93,0,1.86,0,2.79,0,.37,0,.46-.1.46-.46q0-7.95,0-15.91c0-.38-.13-.45-.47-.45-.91,0-1.83,0-2.74,0-.53,0-.53,0-.53.54Z"/><path class="cls-1" d="M67.54,36c.85,0,1.3.72,1,1.32a2.28,2.28,0,0,1-.36.46L62.94,43a3.17,3.17,0,0,1-.39.34.9.9,0,0,1-1.12-.16A.88.88,0,0,1,61.29,42a1.86,1.86,0,0,1,.26-.31c1.78-1.79,3.57-3.58,5.36-5.35A3.4,3.4,0,0,1,67.54,36Z"/><path class="cls-1" d="M63,36.91a.93.93,0,1,1-.92-.94A.93.93,0,0,1,63,36.91Z"/><path class="cls-1" d="M40.59,34.55a3.62,3.62,0,0,1-3.07-2,.93.93,0,0,1,.31-1.33.91.91,0,0,1,1.32.44,1.91,1.91,0,0,0,2.13,1,1.86,1.86,0,0,0,1.4-2A1.84,1.84,0,0,0,41,29a4,4,0,0,1-2.62-1,3.79,3.79,0,0,1-1-4.06,3.74,3.74,0,0,1,3.38-2.46,3.69,3.69,0,0,1,3.44,2,1,1,0,0,1,.08.92.9.9,0,0,1-.8.57.92.92,0,0,1-.84-.44,4.52,4.52,0,0,0-.39-.58,1.87,1.87,0,0,0-2.25-.35,1.89,1.89,0,0,0-.94,2,1.81,1.81,0,0,0,1.73,1.52,3.87,3.87,0,0,1,2.76,1.13,3.73,3.73,0,0,1,.8,4.07A3.85,3.85,0,0,1,40.59,34.55Z"/><path class="cls-1" d="M50.14,21.48a.93.93,0,0,1,.9,1.26c-.16.54-.35,1.07-.53,1.61Q49,29,47.41,33.66a2.54,2.54,0,0,1-.16.38.91.91,0,0,1-1.12.46.93.93,0,0,1-.62-1,4,4,0,0,1,.2-.67q1.73-5.19,3.46-10.37a2,2,0,0,1,.15-.43A.87.87,0,0,1,50.14,21.48Z"/><path class="cls-1" d="M51.09,33.6a.93.93,0,0,1-1.86,0,.92.92,0,0,1,.9-.94A.9.9,0,0,1,51.09,33.6Z"/><path class="cls-1" d="M65.34,43.52a.84.84,0,0,1,0-1.67.84.84,0,1,1,0,1.67Z"/><path class="cls-1" d="M44.38,0A44.38,44.38,0,1,0,88.75,44.38,44.38,44.38,0,0,0,44.38,0Zm0,5.33a38.9,38.9,0,0,1,24.7,8.8l-54.95,55A39.05,39.05,0,0,1,44.38,5.33Zm0,78.1A39,39,0,0,1,17.8,73L73,17.8A39.05,39.05,0,0,1,44.38,83.43Z"/></g></g></svg>