<svg width="20" height="20" viewBox="0 0 20 20" fill="none" xmlns="http://www.w3.org/2000/svg">
<path d="M15.1429 8.71429H11.2857V4.85714C11.2857 4.38384 10.9019 4 10.4286 4H9.57143C9.09812 4 8.71429 4.38384 8.71429 4.85714V8.71429H4.85714C4.38384 8.71429 4 9.09812 4 9.57143V10.4286C4 10.9019 4.38384 11.2857 4.85714 11.2857H8.71429V15.1429C8.71429 15.6162 9.09812 16 9.57143 16H10.4286C10.9019 16 11.2857 15.6162 11.2857 15.1429V11.2857H15.1429C15.6162 11.2857 16 10.9019 16 10.4286V9.57143C16 9.09812 15.6162 8.71429 15.1429 8.71429Z" fill="#3A4049"/>
</svg>
