<svg width="12" height="12" viewBox="0 0 12 12" fill="none" xmlns="http://www.w3.org/2000/svg">
<path d="M9.9375 0H2.0625C1.75184 0 1.5 0.251836 1.5 0.5625V0.9375C1.5 1.24816 1.75184 1.5 2.0625 1.5C2.0625 3.63199 3.25819 5.43127 4.89473 6C3.25819 6.56873 2.0625 8.36801 2.0625 10.5C1.75184 10.5 1.5 10.7518 1.5 11.0625V11.4375C1.5 11.7482 1.75184 12 2.0625 12H9.9375C10.2482 12 10.5 11.7482 10.5 11.4375V11.0625C10.5 10.7518 10.2482 10.5 9.9375 10.5C9.9375 8.36801 8.74181 6.56873 7.10527 6C8.74181 5.43127 9.9375 3.63199 9.9375 1.5C10.2482 1.5 10.5 1.24816 10.5 0.9375V0.5625C10.5 0.251836 10.2482 0 9.9375 0ZM8.17786 9H3.82219C4.22201 7.9032 5.04319 7.125 6 7.125C6.95674 7.125 7.77802 7.90303 8.17786 9ZM8.1783 3H3.82214C3.65597 2.54409 3.5625 2.03316 3.5625 1.5H8.4375C8.4375 2.03449 8.34405 2.54501 8.1783 3Z" fill="#FFC149"/>
</svg>
