<svg width="500" height="500" viewBox="0 0 500 500" fill="none" xmlns="http://www.w3.org/2000/svg">
<path d="M48.6801 303.35C48.6801 303.35 57.6801 300.35 62.0001 321.17C66.3201 341.99 67.0001 353.44 67.0001 353.44C67.0001 353.44 68.4201 357.93 71.7201 356.15C75.0201 354.37 80.5601 348.26 84.7201 350.76C88.8801 353.26 89.1001 358.93 86.1401 366.28C83.1801 373.63 77.2201 390 76.7001 391.44C76.1801 392.88 76.4301 395.31 78.8801 394.44C81.3301 393.57 96.7901 383.62 101.08 391.24C105.37 398.86 93.7801 417.99 92.5501 420.1C91.3201 422.21 91.5501 423.31 92.4301 424.17C93.3101 425.03 98.2401 421.17 102.76 418.54C107.28 415.91 112.97 413.59 115.08 418.2C117.19 422.81 113.94 438.64 92.2201 459.87L81.5101 469.06L68.0801 464.57C39.9001 453.22 30.8601 439.82 31.0801 434.76C31.3001 429.7 37.4201 429.64 42.6001 430.38C47.7801 431.12 53.7701 432.8 54.3001 431.65C54.8301 430.5 54.5801 429.42 52.6301 427.93C50.6801 426.44 32.6301 413.19 33.7401 404.51C34.8501 395.83 52.9001 399.14 55.4801 399C58.0601 398.86 57.3801 396.52 56.3501 395.38C55.3201 394.24 43.6301 381.38 38.0901 375.68C32.5501 369.98 30.5401 364.81 33.4901 360.79C36.4401 356.77 43.7901 360.45 47.4901 360.84C51.1901 361.23 50.8201 356.53 50.8201 356.53C50.8201 356.53 47.0501 345.66 43.1101 324.81C39.1701 303.96 48.8701 303.28 48.8701 303.28" fill="#F5F5F5"/>
<path d="M81.5901 466.11C78.5901 450.8 74.3901 429.69 69.5901 406.38C64.7901 383.07 60.5301 362 57.5001 346.7C56.0001 339.07 54.7701 332.89 53.9301 328.59C53.5101 326.47 53.1801 324.81 52.9301 323.67C52.8101 323.12 52.7301 322.67 52.6601 322.39C52.5901 322.11 52.5601 321.95 52.5601 321.95C52.5601 321.95 52.5601 322.11 52.6101 322.4C52.6601 322.69 52.7401 323.13 52.8301 323.68C53.0401 324.83 53.3401 326.5 53.7201 328.62C54.5001 332.91 55.6701 339.11 57.1501 346.76C60.0901 362.07 64.3501 383.18 69.1501 406.48C73.9501 429.78 78.2301 450.89 81.2601 466.18" fill="#E0E0E0"/>
<path d="M77.24 359.61C77.0111 359.861 76.8099 360.136 76.64 360.43C76.28 360.98 75.78 361.79 75.17 362.79C73.95 364.79 72.35 367.61 70.64 370.74L66.3 378.79L65 381.23C64.8175 381.516 64.6666 381.822 64.55 382.14C64.7917 381.898 64.9971 381.622 65.16 381.32C65.52 380.78 66.03 379.97 66.62 378.96C67.82 376.96 69.38 374.11 71.09 370.96L75.49 362.96C76.02 362.01 76.49 361.2 76.83 360.53C77.0038 360.242 77.1415 359.933 77.24 359.61Z" fill="#E0E0E0"/>
<path d="M63.2101 382C63.2801 381.89 57.6201 378.33 50.5901 374C43.5601 369.67 37.7801 366.34 37.7101 366.45C37.6401 366.56 43.2901 370.13 50.3301 374.45C57.3701 378.77 63.1401 382.16 63.2101 382Z" fill="#E0E0E0"/>
<path d="M72.15 417.5C71.8318 417.349 71.4958 417.238 71.15 417.17L68.42 416.43C66.12 415.8 62.94 414.92 59.42 413.82C55.9 412.72 52.83 411.65 50.59 410.82L48 409.89C47.6792 409.753 47.3437 409.652 47 409.59C47.2898 409.784 47.6021 409.942 47.93 410.06C48.54 410.34 49.43 410.72 50.54 411.16C52.77 412.05 55.87 413.16 59.36 414.29C62.85 415.42 66.05 416.21 68.36 416.76C69.53 417.03 70.47 417.23 71.13 417.35C71.4629 417.44 71.8053 417.491 72.15 417.5V417.5Z" fill="#E0E0E0"/>
<path d="M89.32 400C89.0458 400.172 88.7939 400.376 88.57 400.61C88.11 401.03 87.46 401.61 86.66 402.4C85.06 403.93 82.88 406.06 80.49 408.4C78.1 410.74 76 413 74.41 414.57C73.65 415.36 73.03 416.01 72.61 416.47C72.3746 416.688 72.1694 416.937 72 417.21C72.2751 417.04 72.5271 416.835 72.75 416.6C73.2 416.19 73.86 415.6 74.65 414.81C76.25 413.29 78.44 411.15 80.83 408.81C83.22 406.47 85.36 404.26 86.9 402.67C87.67 401.88 88.28 401.23 88.7 400.77C88.9377 400.54 89.146 400.281 89.32 400V400Z" fill="#E0E0E0"/>
<path d="M101.19 430.3C100.829 430.527 100.494 430.792 100.19 431.09L97.7402 433.37C95.6802 435.32 92.8602 438.03 89.7402 441.05C86.6202 444.07 83.8602 446.81 81.8702 448.82L79.5202 451.22C79.2186 451.501 78.944 451.809 78.7002 452.14C79.0602 451.913 79.3954 451.648 79.7002 451.35L82.1602 449.06C84.1602 447.12 87.0302 444.41 90.1602 441.39C93.2902 438.37 96.0002 435.63 98.0002 433.62L100.35 431.22C100.658 430.94 100.939 430.632 101.19 430.3V430.3Z" fill="#E0E0E0"/>
<path d="M79.17 451.47C78.7718 451.282 78.3566 451.131 77.93 451.02L74.5 450C71.61 449.1 67.61 447.84 63.24 446.33C58.87 444.82 54.95 443.33 52.11 442.33L48.75 441C48.3465 440.826 47.9281 440.689 47.5 440.59C47.8744 440.823 48.2694 441.02 48.68 441.18C49.45 441.53 50.58 442.01 51.99 442.59C54.79 443.75 58.7 445.26 63.09 446.77C67.48 448.28 71.48 449.49 74.4 450.3C75.87 450.71 77.05 451.02 77.88 451.22C78.3019 451.341 78.7336 451.425 79.17 451.47V451.47Z" fill="#E0E0E0"/>
<path d="M458.33 63.6504H364.7V199.36H458.33V63.6504Z" fill="#E0E0E0"/>
<path d="M453.64 63.6504H360.01V199.36H453.64V63.6504Z" fill="#F5F5F5"/>
<path d="M442.01 78.3501H371.65V184.66H442.01V78.3501Z" fill="white"/>
<path d="M442 184.66C442 184.66 442 184.48 442 184.14C442 183.8 442 183.29 442 182.63C442 181.29 442 179.34 442 176.8C442 171.7 442 164.28 441.94 154.9C441.94 136.15 441.87 109.61 441.82 78.35L442.06 78.58H371.7L371.95 78.33C371.95 118.43 371.95 155.41 371.95 184.64L371.75 184.44L422.96 184.54L437.11 184.59H440.82C441.66 184.59 442.11 184.59 442.11 184.59H440.87H437.19L423.09 184.64L371.75 184.75H371.54V184.55C371.54 155.32 371.54 118.34 371.49 78.24V77.98H371.75H442.11H442.34V78.22C442.29 109.54 442.25 136.14 442.23 154.92C442.23 164.28 442.18 171.69 442.16 176.77C442.16 179.29 442.16 181.23 442.16 182.55C442.16 183.2 442.16 183.69 442.16 184.04C442.16 184.39 442 184.66 442 184.66Z" fill="#E0E0E0"/>
<path d="M453.9 63.6504C453.421 64.5079 452.862 65.3181 452.23 66.0704C451.15 67.5304 449.6 69.5104 447.84 71.6404C446.08 73.7704 444.43 75.6404 443.21 77.0204C442.589 77.7846 441.899 78.4909 441.15 79.1304C441.682 78.3028 442.28 77.5202 442.94 76.7904L447.45 71.3204L451.95 65.8504C452.536 65.0629 453.189 64.3269 453.9 63.6504V63.6504Z" fill="#E0E0E0"/>
<path d="M442.37 184.32C445.869 189.88 449.985 195.026 454.64 199.66Z" fill="white"/>
<path d="M454.64 199.66C453.858 199.093 453.141 198.443 452.5 197.72C450.867 196.062 449.321 194.32 447.87 192.5C446.416 190.68 445.054 188.788 443.79 186.83C443.23 186.046 442.754 185.205 442.37 184.32C443 185.047 443.575 185.819 444.09 186.63C445.09 188.08 446.58 190.06 448.27 192.18C449.96 194.3 451.58 196.18 452.76 197.47C453.438 198.155 454.066 198.887 454.64 199.66V199.66Z" fill="#E0E0E0"/>
<path d="M360 199.25L372.26 184.12Z" fill="white"/>
<path d="M372.26 184.12C370.424 186.798 368.444 189.375 366.33 191.84C364.35 194.418 362.237 196.891 360 199.25C361.842 196.573 363.821 193.992 365.93 191.52C367.912 188.947 370.025 186.477 372.26 184.12V184.12Z" fill="#E0E0E0"/>
<path d="M360 63.6504C362.129 65.9087 364.132 68.2822 366 70.7604C367.984 73.1379 369.836 75.6216 371.55 78.2004C369.438 75.9374 367.452 73.5606 365.6 71.0804C363.599 68.7076 361.73 66.2272 360 63.6504V63.6504Z" fill="#E0E0E0"/>
<path d="M420.09 99.9302H396.53V166.82H420.09V99.9302Z" fill="#E0E0E0"/>
<path d="M164.42 41.9702V116.74H57.0202L53.1602 42.4902L164.42 41.9702Z" fill="#E0E0E0"/>
<path d="M53.1602 42.4901L53.1602 116.58H160.56V42.4901H53.1602Z" fill="white"/>
<path d="M161.06 117.09H52.6501V42H161.06V117.09ZM53.6601 116.09H160V43H53.6601V116.09Z" fill="#E0E0E0"/>
<path d="M148.92 51.7002H64.79V107.38H148.92V51.7002Z" fill="white"/>
<path d="M148.92 51.7002H147.31H142.69L125.35 51.7702L64.7901 51.8902L65.0001 51.7002C65.0001 68.7002 65.0001 87.5602 65.0001 107.37L64.7401 107.1L148.87 107.16L148.66 107.37C148.66 90.4202 148.74 76.5302 148.77 66.8502C148.77 62.0202 148.77 58.2402 148.82 55.6502C148.82 54.3702 148.82 53.3902 148.82 52.7102C148.82 52.0402 148.82 51.7102 148.82 51.7102C148.82 51.7102 148.82 52.0302 148.82 52.7102C148.82 53.3902 148.82 54.3602 148.82 55.6202C148.82 58.2002 148.82 61.9602 148.87 66.7702C148.87 76.4802 148.93 90.4202 148.98 107.42V107.63H148.77H64.6401H64.3701V107.37C64.3701 87.5602 64.3701 68.7102 64.3701 51.7002V51.4502H64.6201L125.34 51.5702L142.62 51.6402H147.19H148.36L148.92 51.7002Z" fill="#E0E0E0"/>
<path d="M53.1501 42.2803C53.8132 42.6037 54.4345 43.0067 55.0001 43.4803C56.1001 44.2703 57.6001 45.4003 59.2101 46.6903C60.8201 47.9803 62.2101 49.2103 63.2101 50.1203C63.7867 50.5813 64.304 51.112 64.7501 51.7003C64.6501 51.8103 62.0601 49.7003 58.8401 47.1003C56.8441 45.6148 54.9436 44.0049 53.1501 42.2803V42.2803Z" fill="#E0E0E0"/>
<path d="M160.55 42.4902C158.785 44.2275 156.897 45.835 154.9 47.3002C153.005 48.9044 151 50.3746 148.9 51.7002C150.666 49.9613 152.555 48.3505 154.55 46.8802C156.444 45.2772 158.449 43.8102 160.55 42.4902V42.4902Z" fill="#E0E0E0"/>
<path d="M160.47 116.6L148.47 106.89Z" fill="white"/>
<path d="M148.49 106.89C150.645 108.3 152.703 109.854 154.65 111.54C156.703 113.092 158.648 114.783 160.47 116.6C158.313 115.193 156.255 113.639 154.31 111.95C152.26 110.395 150.315 108.704 148.49 106.89V106.89Z" fill="#E0E0E0"/>
<path d="M53.1501 116.58C54.9046 114.866 56.7758 113.275 58.7501 111.82C60.616 110.232 62.5945 108.782 64.6701 107.48C62.9236 109.199 61.0554 110.79 59.0801 112.24C57.2141 113.832 55.2319 115.283 53.1501 116.58V116.58Z" fill="#E0E0E0"/>
<path d="M81.8701 69.0504V87.6904H134.81V69.0504H81.8701Z" fill="#E0E0E0"/>
<path d="M274.85 93.8804C277.283 89.5037 278.556 84.5778 278.55 79.5704C278.572 75.7612 277.844 71.9849 276.407 68.4573C274.969 64.9296 272.851 61.7197 270.173 59.0109C267.495 56.302 264.309 54.1474 260.798 52.67C257.287 51.1926 253.519 50.4214 249.71 50.4004C247.104 50.3965 244.51 50.7498 242 51.4504C248.101 53.2088 253.464 56.9032 257.282 61.9764C261.099 67.0496 263.163 73.2264 263.163 79.5754C263.163 85.9244 261.099 92.1013 257.282 97.1745C253.464 102.248 248.101 105.942 242 107.7C245.856 108.781 249.897 109.039 253.859 108.456C257.822 107.874 261.618 106.465 265 104.32L278.56 109.56L274.85 93.8804Z" fill="#EBEBEB"/>
<path d="M462.37 469.08C462.37 469.22 367.28 469.34 250.01 469.34C132.74 469.34 37.6299 469.22 37.6299 469.08C37.6299 468.94 132.7 468.81 250.01 468.81C367.32 468.81 462.37 468.93 462.37 469.08Z" fill="#263238"/>
<path d="M152.09 437L152.9 461.88L159.22 481.38C159.328 481.712 159.366 482.063 159.333 482.41C159.3 482.758 159.196 483.095 159.027 483.4C158.858 483.706 158.629 483.974 158.352 484.187C158.076 484.4 157.758 484.554 157.42 484.64V484.64C157.025 484.741 156.612 484.746 156.215 484.653C155.818 484.561 155.45 484.375 155.14 484.11C151.14 480.68 136.51 468 136.55 466.18C136.55 464.06 133.94 439.98 133.94 439.98L152.09 437Z" fill="#3A4049"/>
<path d="M157.42 484.61L136.42 464.47L136.48 465.47C136.529 466.383 136.901 467.248 137.53 467.91C139.21 469.67 143.96 474.45 155.04 484.03C155.357 484.306 155.738 484.499 156.148 484.592C156.558 484.684 156.985 484.673 157.39 484.56L157.42 484.61Z" fill="#E0E0E0"/>
<path d="M141.11 456.16C141.431 456.368 141.663 456.688 141.761 457.058C141.859 457.428 141.816 457.82 141.64 458.16C141.447 458.498 141.128 458.745 140.754 458.848C140.379 458.951 139.978 458.901 139.64 458.71C139.3 458.491 139.055 458.154 138.951 457.764C138.848 457.373 138.894 456.958 139.08 456.6C139.319 456.281 139.673 456.068 140.066 456.004C140.46 455.941 140.863 456.033 141.19 456.26" fill="white"/>
<path d="M151.13 474.07C151.27 474.13 151.76 472.79 153.2 472.01C154.091 471.599 155.051 471.358 156.03 471.3C156.03 471.24 155.73 471.07 155.14 471.02C154.369 470.97 153.601 471.147 152.93 471.53C152.258 471.907 151.71 472.469 151.35 473.15C151.08 473.68 151.07 474.05 151.13 474.07Z" fill="#263238"/>
<path d="M153.09 477.3C153.776 476.854 154.491 476.453 155.23 476.1C156.023 475.904 156.828 475.757 157.64 475.66C157.245 475.438 156.801 475.316 156.348 475.304C155.895 475.292 155.446 475.39 155.04 475.59C153.6 476.1 153 477.24 153.09 477.3Z" fill="#263238"/>
<path d="M147.59 470C148.603 469.239 149.669 468.551 150.78 467.94C151.965 467.494 153.182 467.136 154.42 466.87C153.102 466.689 151.759 466.887 150.55 467.441C149.34 467.995 148.313 468.883 147.59 470V470Z" fill="#263238"/>
<path d="M146.71 462.44C146.79 462.58 148.13 461.93 149.91 461.77C151.69 461.61 153.14 461.95 153.18 461.77C152.176 461.192 151 460.987 149.86 461.19C148.696 461.228 147.582 461.67 146.71 462.44V462.44Z" fill="#263238"/>
<path d="M146.29 455.14C147.352 454.728 148.466 454.462 149.6 454.35C150.738 454.409 151.863 454.628 152.94 455C152.94 454.94 152.69 454.65 152.1 454.35C151.319 453.973 150.458 453.788 149.59 453.81C148.721 453.825 147.868 454.045 147.1 454.45C146.53 454.78 146.25 455.09 146.29 455.14Z" fill="#263238"/>
<path d="M149.48 453C149.557 452.672 149.557 452.329 149.48 452C149.347 451.144 149.048 450.322 148.6 449.58C148.31 449.015 147.848 448.556 147.28 448.27C147.084 448.192 146.868 448.178 146.663 448.23C146.458 448.282 146.275 448.398 146.14 448.56C145.887 448.888 145.769 449.299 145.81 449.71C145.913 450.542 146.303 451.312 146.913 451.887C147.522 452.462 148.314 452.806 149.15 452.86C149.981 452.902 150.805 452.695 151.518 452.266C152.23 451.837 152.799 451.205 153.15 450.45C153.236 450.26 153.281 450.054 153.281 449.845C153.281 449.637 153.236 449.43 153.15 449.24C153.043 449.058 152.881 448.914 152.686 448.83C152.492 448.745 152.277 448.724 152.07 448.77C151.466 448.937 150.917 449.262 150.48 449.71C149.836 450.278 149.297 450.955 148.89 451.71C148.718 451.977 148.605 452.277 148.56 452.59C149.153 451.62 149.884 450.741 150.73 449.98C151.13 449.608 151.613 449.337 152.14 449.19C152.253 449.165 152.372 449.176 152.478 449.223C152.584 449.27 152.673 449.349 152.73 449.45C152.776 449.579 152.795 449.715 152.786 449.851C152.778 449.986 152.742 450.119 152.68 450.24C152.357 450.88 151.858 451.415 151.241 451.78C150.625 452.145 149.916 452.326 149.2 452.3C148.494 452.248 147.826 451.959 147.305 451.48C146.784 451.001 146.441 450.36 146.33 449.66C146.295 449.375 146.366 449.087 146.53 448.85C146.601 448.759 146.7 448.694 146.812 448.663C146.923 448.633 147.042 448.639 147.15 448.68C147.633 448.918 148.031 449.298 148.29 449.77C148.876 450.768 149.279 451.861 149.48 453Z" fill="#263238"/>
<path d="M200.53 440.66L199.24 459.27C199.24 459.27 217.73 466.83 217.82 470.27L181.65 469.07L182.47 439.99L200.53 440.66Z" fill="#3A4049"/>
<path d="M188.11 457.33C187.75 457.421 187.437 457.642 187.232 457.951C187.027 458.26 186.944 458.634 187 459C187.082 459.356 187.296 459.666 187.599 459.869C187.902 460.071 188.271 460.151 188.63 460.09C189.003 459.989 189.325 459.753 189.534 459.428C189.742 459.103 189.823 458.712 189.76 458.33C189.638 457.97 189.382 457.671 189.045 457.496C188.707 457.32 188.315 457.283 187.95 457.39" fill="#E0E0E0"/>
<path d="M181.65 469.09L181.85 466.16L216.46 468.41C216.46 468.41 218.04 469.17 217.82 470.29L181.65 469.09Z" fill="#E0E0E0"/>
<path d="M199.84 459.11C199.84 459.28 198.94 459.33 198.05 459.87C197.16 460.41 196.68 461.14 196.52 461.06C196.36 460.98 196.65 459.98 197.74 459.34C198.83 458.7 199.88 459 199.84 459.11Z" fill="#263238"/>
<path d="M203.58 460.8C203.58 460.97 202.84 461.25 202.21 461.98C201.58 462.71 201.39 463.49 201.21 463.47C201.03 463.45 200.96 462.47 201.75 461.57C202.54 460.67 203.58 460.63 203.58 460.8Z" fill="#263238"/>
<path d="M205.58 465.41C205.42 465.41 205.2 464.56 205.69 463.6C206.18 462.64 207.01 462.29 207.08 462.44C207.15 462.59 206.63 463.09 206.24 463.88C205.85 464.67 205.76 465.4 205.58 465.41Z" fill="#263238"/>
<path d="M199.66 454.83C199.58 454.99 198.78 454.72 197.78 454.76C196.78 454.8 195.99 455.08 195.9 454.92C195.81 454.76 196.58 454.16 197.76 454.14C198.94 454.12 199.75 454.7 199.66 454.83Z" fill="#263238"/>
<path d="M199.85 451.07C199.239 451.224 198.597 451.2 198 451C197.349 450.867 196.717 450.652 196.12 450.36C195.773 450.187 195.439 449.99 195.12 449.77C194.919 449.655 194.74 449.506 194.59 449.33C194.477 449.202 194.411 449.039 194.402 448.869C194.393 448.698 194.442 448.53 194.54 448.39C194.634 448.271 194.754 448.175 194.891 448.109C195.028 448.043 195.178 448.009 195.33 448.01C195.557 448.017 195.783 448.054 196 448.12C196.385 448.231 196.76 448.375 197.12 448.55C197.721 448.845 198.271 449.233 198.75 449.7C199.56 450.51 199.83 451.17 199.75 451.21C199.67 451.25 199.27 450.7 198.44 450.03C197.961 449.627 197.43 449.29 196.86 449.03C196.537 448.887 196.202 448.77 195.86 448.68C195.48 448.56 195.15 448.55 195.05 448.68C194.95 448.81 195 448.77 195.05 448.88C195.165 449.006 195.296 449.117 195.44 449.21C195.743 449.416 196.057 449.606 196.38 449.78C196.931 450.08 197.511 450.324 198.11 450.51C198.701 450.66 199.282 450.847 199.85 451.07V451.07Z" fill="#263238"/>
<path d="M199.61 451.32C199.29 450.788 199.144 450.169 199.19 449.55C199.187 448.477 199.466 447.421 200 446.49C200.106 446.254 200.271 446.05 200.48 445.898C200.689 445.745 200.933 445.649 201.19 445.62C201.351 445.629 201.506 445.684 201.637 445.778C201.768 445.872 201.87 446.001 201.93 446.15C202.017 446.364 202.071 446.59 202.09 446.82C202.156 447.224 202.156 447.636 202.09 448.04C201.972 448.713 201.686 449.346 201.26 449.88C200.52 450.8 199.78 450.99 199.76 450.88C199.74 450.77 200.33 450.47 200.91 449.59C201.237 449.081 201.451 448.508 201.54 447.91C201.585 447.562 201.585 447.209 201.54 446.86C201.49 446.47 201.36 446.16 201.21 446.19C201.06 446.22 200.72 446.46 200.56 446.77C200.368 447.087 200.207 447.422 200.08 447.77C199.857 448.347 199.719 448.953 199.67 449.57C199.54 450.63 199.71 451.3 199.61 451.32Z" fill="#263238"/>
<path d="M126.17 257.02L131.51 457.06L160.05 456.21L166.85 250.2L126.17 257.02Z" fill="#263238"/>
<path d="M185.48 249.86C185.48 249.86 206.66 334.66 207.31 349.12C207.96 363.58 202.78 454 202.78 454H174.84L177.18 351L156 263.94L161.13 250.31L185.48 249.86Z" fill="#263238"/>
<path d="M168.24 260.27C168.25 260.363 168.25 260.457 168.24 260.55V261.34C168.24 262.08 168.18 263.09 168.13 264.39C168.01 267.07 167.83 270.89 167.62 275.59C167.13 285.08 166.46 298.13 165.72 312.59C164.98 327.05 164.2 340.04 163.72 349.53C163.44 354.23 163.2 358.04 163.04 360.73C162.95 362.02 162.88 363.04 162.83 363.73C162.83 364.05 162.78 364.32 162.76 364.52C162.77 364.61 162.77 364.7 162.76 364.79C162.749 364.7 162.749 364.61 162.76 364.52C162.76 364.31 162.76 364.05 162.76 363.73C162.76 362.99 162.83 361.97 162.88 360.68C163 358 163.18 354.18 163.39 349.48C163.88 339.99 164.55 326.94 165.28 312.48C166.01 298.02 166.8 285.03 167.33 275.54C167.61 270.84 167.84 267.03 168.01 264.35C168.1 263.06 168.17 262.04 168.22 261.3C168.22 260.98 168.27 260.72 168.29 260.51C168.26 260.433 168.243 260.352 168.24 260.27V260.27Z" fill="#455A64"/>
<path d="M165.1 141.12C165.1 141.12 175.47 192.56 175.62 207.05C175.77 221.54 180.86 249.86 180.86 249.86H136L135 171.49L131.8 148.12L138.54 138.5L165.1 141.12Z" fill="#F5F5F5"/>
<path d="M165.65 142.63C165.65 142.63 176.36 145.78 179.19 149.74C181.42 152.87 184.44 212.03 184.44 212.03L189 264.15L184.51 263.73L178.17 244.22L165.65 142.63Z" fill="#4C76C7"/>
<path d="M179.19 149.74L209.43 177.49L246.64 165.43L254.06 181.06L214.35 199.06C208.68 201.48 205.12 200.15 201.18 196.99L180.35 180.31L179.19 149.74Z" fill="#4C76C7"/>
<path d="M239.72 170.41C239.82 170.603 239.84 170.827 239.777 171.035C239.713 171.242 239.571 171.416 239.38 171.52C239.286 171.571 239.182 171.602 239.076 171.612C238.969 171.622 238.862 171.611 238.759 171.58C238.657 171.548 238.562 171.497 238.48 171.428C238.397 171.359 238.33 171.275 238.28 171.18C238.228 171.087 238.195 170.984 238.183 170.877C238.172 170.771 238.182 170.663 238.212 170.561C238.243 170.458 238.294 170.363 238.363 170.28C238.431 170.198 238.515 170.13 238.61 170.08C238.802 169.98 239.025 169.958 239.232 170.02C239.44 170.081 239.615 170.222 239.72 170.41V170.41Z" fill="#263238"/>
<path d="M239 171.64C238.917 171.655 238.833 171.655 238.75 171.64C238.644 171.608 238.545 171.556 238.459 171.485C238.373 171.415 238.302 171.328 238.25 171.23C238.15 171.032 238.129 170.803 238.19 170.59C238.259 170.379 238.407 170.204 238.603 170.099C238.798 169.995 239.027 169.97 239.24 170.03C239.454 170.096 239.634 170.243 239.74 170.44C239.844 170.637 239.866 170.867 239.8 171.08C239.769 171.187 239.717 171.286 239.646 171.372C239.576 171.458 239.489 171.529 239.39 171.58C239.267 171.633 239.133 171.654 239 171.64V171.64ZM239 170.01C238.872 170.011 238.745 170.042 238.63 170.1C238.448 170.202 238.311 170.37 238.25 170.57C238.19 170.77 238.212 170.986 238.31 171.17C238.41 171.354 238.578 171.492 238.779 171.552C238.98 171.612 239.196 171.59 239.38 171.49C239.471 171.443 239.552 171.378 239.617 171.299C239.682 171.22 239.731 171.128 239.76 171.03C239.821 170.827 239.799 170.608 239.7 170.42C239.633 170.293 239.532 170.187 239.409 170.113C239.285 170.039 239.144 170 239 170V170.01Z" fill="#263238"/>
<path d="M242.84 169.67C242.939 169.863 242.96 170.087 242.896 170.295C242.833 170.502 242.69 170.676 242.5 170.78C242.405 170.831 242.302 170.862 242.195 170.872C242.089 170.882 241.981 170.871 241.879 170.84C241.777 170.808 241.682 170.757 241.599 170.688C241.517 170.619 241.449 170.535 241.4 170.44C241.348 170.347 241.315 170.244 241.303 170.137C241.291 170.031 241.301 169.923 241.332 169.821C241.363 169.718 241.414 169.623 241.482 169.54C241.551 169.458 241.635 169.39 241.73 169.34C241.824 169.288 241.928 169.255 242.035 169.243C242.142 169.231 242.251 169.241 242.354 169.272C242.458 169.303 242.554 169.354 242.637 169.422C242.721 169.491 242.789 169.575 242.84 169.67V169.67Z" fill="#263238"/>
<path d="M242.12 170.9C242.037 170.916 241.952 170.916 241.87 170.9C241.764 170.868 241.665 170.816 241.579 170.745C241.493 170.675 241.422 170.588 241.37 170.49C241.267 170.292 241.246 170.062 241.311 169.849C241.377 169.635 241.524 169.456 241.72 169.35C241.918 169.247 242.148 169.226 242.362 169.292C242.575 169.357 242.754 169.504 242.86 169.7C242.964 169.897 242.985 170.127 242.92 170.34C242.854 170.554 242.707 170.734 242.51 170.84C242.386 170.889 242.253 170.909 242.12 170.9V170.9ZM242.12 169.26C241.991 169.265 241.864 169.3 241.75 169.36C241.566 169.46 241.428 169.628 241.368 169.829C241.308 170.03 241.33 170.246 241.43 170.43C241.478 170.523 241.544 170.604 241.625 170.67C241.706 170.735 241.799 170.783 241.9 170.81C242.001 170.849 242.11 170.866 242.218 170.861C242.327 170.856 242.433 170.829 242.531 170.78C242.628 170.732 242.715 170.665 242.785 170.582C242.855 170.498 242.907 170.402 242.938 170.298C242.969 170.194 242.978 170.084 242.965 169.976C242.952 169.868 242.917 169.764 242.862 169.671C242.806 169.577 242.732 169.496 242.644 169.432C242.556 169.368 242.456 169.324 242.35 169.3C242.272 169.276 242.191 169.262 242.11 169.26H242.12Z" fill="#263238"/>
<path d="M245.8 169.07C245.853 169.164 245.886 169.268 245.897 169.375C245.909 169.483 245.899 169.591 245.869 169.695C245.838 169.798 245.787 169.894 245.718 169.978C245.65 170.061 245.566 170.13 245.47 170.18C245.277 170.28 245.053 170.3 244.846 170.236C244.638 170.173 244.464 170.031 244.36 169.84C244.31 169.746 244.279 169.642 244.268 169.536C244.258 169.429 244.269 169.322 244.301 169.219C244.332 169.117 244.384 169.022 244.453 168.94C244.521 168.857 244.605 168.79 244.7 168.74C244.794 168.688 244.897 168.655 245.003 168.643C245.11 168.632 245.217 168.642 245.32 168.672C245.423 168.703 245.518 168.754 245.6 168.823C245.683 168.891 245.751 168.975 245.8 169.07V169.07Z" fill="#263238"/>
<path d="M245.09 170.3C245.007 170.315 244.923 170.315 244.84 170.3C244.637 170.235 244.467 170.096 244.363 169.91C244.259 169.725 244.229 169.507 244.28 169.3C244.311 169.195 244.363 169.097 244.434 169.012C244.504 168.928 244.592 168.859 244.69 168.81C244.787 168.757 244.894 168.724 245.004 168.713C245.114 168.702 245.225 168.712 245.331 168.744C245.436 168.775 245.535 168.827 245.621 168.897C245.706 168.967 245.778 169.053 245.83 169.15V169.15C245.933 169.348 245.954 169.579 245.888 169.792C245.823 170.005 245.676 170.184 245.48 170.29C245.352 170.322 245.219 170.325 245.09 170.3V170.3ZM245.09 168.67C244.961 168.671 244.835 168.702 244.72 168.76C244.536 168.86 244.399 169.028 244.339 169.229C244.279 169.43 244.301 169.646 244.4 169.83C244.447 169.922 244.511 170.002 244.591 170.068C244.67 170.133 244.761 170.182 244.86 170.21C245.063 170.271 245.282 170.249 245.47 170.15C245.654 170.051 245.791 169.882 245.851 169.681C245.911 169.481 245.889 169.264 245.79 169.08C245.72 168.953 245.618 168.848 245.492 168.776C245.367 168.703 245.225 168.667 245.08 168.67H245.09Z" fill="#263238"/>
<path d="M247.01 166.21L249.89 165.16L256.5 179.08L253.69 180.28L247.01 166.21Z" fill="#E0E0E0"/>
<path d="M180.16 160.71C180.261 161.221 180.318 161.74 180.33 162.26C180.44 163.36 180.59 164.78 180.77 166.5C181.18 170.17 181.77 175.06 182.35 180.5C182.93 185.94 183.44 190.91 183.66 194.5C183.78 196.3 183.83 197.76 183.84 198.77C183.877 199.291 183.86 199.814 183.79 200.33C183.696 199.819 183.646 199.3 183.64 198.78C183.57 197.78 183.46 196.32 183.29 194.53C182.97 190.95 182.44 186 181.83 180.53C181.22 175.06 180.7 170.13 180.4 166.53C180.25 164.73 180.17 163.27 180.13 162.26C180.089 161.744 180.099 161.225 180.16 160.71Z" fill="#263238"/>
<path d="M186.77 167.65C186.302 170.176 185.667 172.668 184.87 175.11C184.234 177.597 183.436 180.039 182.48 182.42C182.941 179.894 183.573 177.402 184.37 174.96C185.004 172.472 185.806 170.03 186.77 167.65V167.65Z" fill="#263238"/>
<path d="M209.11 186.86C208.785 186.479 208.555 186.027 208.44 185.54C207.695 183.235 207.853 180.734 208.88 178.54C209.06 178.073 209.344 177.652 209.71 177.31C209.105 178.831 208.701 180.425 208.51 182.05C208.5 183.673 208.701 185.29 209.11 186.86V186.86Z" fill="#263238"/>
<path d="M205.65 219.01L209.52 219.31L207.99 235.45L204.25 235.03L205.65 219.01Z" fill="#E0E0E0"/>
<path d="M138.54 139.62L117.67 152.93C115.295 154.614 113.526 157.019 112.625 159.787C111.724 162.556 111.74 165.541 112.67 168.3L128.67 218.59L122.9 264.29L168.64 262.35L167.52 242.35L163.64 206.51C162.922 199.864 161.269 193.354 158.73 187.17L138.54 139.62Z" fill="#4C76C7"/>
<path d="M116.74 171.05L137.61 214.73C138.442 216.471 139.654 218.004 141.156 219.215C142.658 220.426 144.412 221.286 146.29 221.73L204.21 235.45L205.69 218.59L161.48 202L139.24 159.32C138.438 157.783 137.33 156.426 135.983 155.333C134.637 154.241 133.081 153.435 131.411 152.967C129.742 152.498 127.994 152.377 126.276 152.61C124.557 152.842 122.905 153.425 121.42 154.32V154.32C118.659 155.991 116.638 158.651 115.768 161.759C114.899 164.867 115.246 168.189 116.74 171.05V171.05Z" fill="#4C76C7"/>
<path d="M205.69 218.59C205.607 218.583 205.526 218.563 205.45 218.53L204.77 218.3L202.15 217.36L192.45 213.79L159.76 201.57H159.67V201.47L155.82 193.85C152.2 186.79 148.59 180.14 145.21 174.14C143.52 171.14 141.89 168.31 140.35 165.67L138.11 161.85C137.75 161.23 137.39 160.64 137.01 160.09C136.652 159.538 136.258 159.01 135.83 158.51C134.339 156.734 132.428 155.359 130.27 154.51C128.643 153.848 126.896 153.535 125.14 153.59C123.634 153.611 122.156 154.007 120.84 154.74C120.913 154.674 120.993 154.617 121.08 154.57C121.322 154.402 121.58 154.258 121.85 154.14C122.888 153.69 124 153.436 125.13 153.39C126.916 153.298 128.702 153.585 130.37 154.23C132.594 155.085 134.568 156.484 136.11 158.3C136.552 158.806 136.96 159.34 137.33 159.9C137.73 160.47 138.1 161.06 138.45 161.68L140.72 165.48C142.28 168.147 143.917 170.967 145.63 173.94C149.03 179.94 152.63 186.57 156.29 193.64C157.62 196.25 158.92 198.82 160.13 201.28L159.99 201.15L192.62 213.53L202.26 217.24L204.85 218.24L205.52 218.51L205.69 218.59Z" fill="#263238"/>
<path d="M195.85 229.1C195.85 229.318 195.764 229.526 195.61 229.68C195.456 229.834 195.247 229.92 195.03 229.92C194.812 229.92 194.604 229.834 194.45 229.68C194.296 229.526 194.21 229.318 194.21 229.1C194.21 228.883 194.296 228.674 194.45 228.52C194.604 228.367 194.812 228.28 195.03 228.28C195.247 228.28 195.456 228.367 195.61 228.52C195.764 228.674 195.85 228.883 195.85 229.1V229.1Z" fill="#263238"/>
<path d="M195 229.94C194.834 229.94 194.672 229.891 194.533 229.799C194.395 229.706 194.288 229.575 194.224 229.422C194.161 229.268 194.144 229.099 194.176 228.936C194.209 228.773 194.289 228.624 194.406 228.506C194.524 228.389 194.673 228.309 194.836 228.276C194.999 228.244 195.168 228.261 195.322 228.324C195.475 228.388 195.606 228.495 195.699 228.634C195.791 228.772 195.84 228.934 195.84 229.1C195.84 229.323 195.752 229.537 195.594 229.694C195.437 229.852 195.223 229.94 195 229.94ZM195 228.31C194.844 228.31 194.691 228.357 194.561 228.443C194.431 228.53 194.33 228.654 194.27 228.798C194.211 228.942 194.195 229.101 194.225 229.254C194.256 229.408 194.331 229.548 194.442 229.659C194.552 229.769 194.693 229.845 194.846 229.875C194.999 229.906 195.158 229.89 195.302 229.83C195.447 229.77 195.57 229.669 195.657 229.539C195.744 229.409 195.79 229.257 195.79 229.1C195.79 228.891 195.707 228.69 195.559 228.542C195.411 228.393 195.21 228.31 195 228.31V228.31Z" fill="#263238"/>
<path d="M199 229.92C199 230.082 198.952 230.241 198.862 230.376C198.772 230.511 198.643 230.616 198.494 230.678C198.344 230.74 198.179 230.756 198.02 230.724C197.861 230.693 197.715 230.615 197.6 230.5C197.485 230.385 197.407 230.239 197.376 230.08C197.344 229.921 197.36 229.756 197.422 229.606C197.484 229.456 197.589 229.328 197.724 229.238C197.859 229.148 198.018 229.1 198.18 229.1C198.397 229.1 198.606 229.186 198.76 229.34C198.913 229.494 199 229.703 199 229.92Z" fill="#263238"/>
<path d="M198.13 230.76C197.964 230.76 197.801 230.711 197.663 230.619C197.525 230.526 197.418 230.395 197.354 230.242C197.29 230.088 197.274 229.919 197.306 229.756C197.339 229.593 197.419 229.444 197.536 229.326C197.654 229.209 197.803 229.129 197.966 229.096C198.129 229.064 198.298 229.08 198.451 229.144C198.605 229.208 198.736 229.315 198.828 229.453C198.921 229.592 198.97 229.754 198.97 229.92C198.967 230.142 198.878 230.354 198.721 230.511C198.564 230.668 198.352 230.757 198.13 230.76V230.76ZM198.13 229.13C197.974 229.13 197.821 229.176 197.691 229.263C197.561 229.35 197.46 229.473 197.4 229.618C197.34 229.762 197.325 229.921 197.355 230.074C197.386 230.227 197.461 230.368 197.571 230.479C197.682 230.589 197.823 230.664 197.976 230.695C198.129 230.725 198.288 230.71 198.432 230.65C198.577 230.59 198.7 230.489 198.787 230.359C198.874 230.229 198.92 230.076 198.92 229.92C198.92 229.711 198.837 229.51 198.689 229.361C198.541 229.213 198.34 229.13 198.13 229.13V229.13Z" fill="#263238"/>
<path d="M201.03 231.61C201.483 231.61 201.85 231.243 201.85 230.79C201.85 230.337 201.483 229.97 201.03 229.97C200.577 229.97 200.21 230.337 200.21 230.79C200.21 231.243 200.577 231.61 201.03 231.61Z" fill="#263238"/>
<path d="M201 231.63C200.834 231.63 200.672 231.581 200.533 231.489C200.395 231.396 200.288 231.265 200.224 231.112C200.161 230.958 200.144 230.789 200.176 230.626C200.209 230.463 200.289 230.314 200.406 230.196C200.524 230.079 200.673 229.999 200.836 229.966C200.999 229.934 201.168 229.951 201.322 230.014C201.475 230.078 201.606 230.185 201.699 230.324C201.791 230.462 201.84 230.624 201.84 230.79C201.838 231.012 201.748 231.224 201.591 231.381C201.434 231.538 201.222 231.628 201 231.63V231.63ZM201 230C200.844 230 200.691 230.047 200.561 230.133C200.431 230.22 200.33 230.344 200.27 230.488C200.211 230.632 200.195 230.791 200.225 230.944C200.256 231.098 200.331 231.238 200.442 231.349C200.552 231.459 200.693 231.535 200.846 231.565C200.999 231.595 201.158 231.58 201.302 231.52C201.447 231.46 201.57 231.359 201.657 231.229C201.744 231.099 201.79 230.946 201.79 230.79C201.79 230.581 201.707 230.38 201.559 230.232C201.411 230.083 201.21 230 201 230Z" fill="#263238"/>
<path d="M204.21 235.45C204.117 235.465 204.023 235.465 203.93 235.45L203.12 235.27L200 234.52L188.54 231.7C178.87 229.33 165.54 225.97 150.72 222.54C148.87 222.1 147.04 221.75 145.23 221.26C143.413 220.826 141.72 219.981 140.28 218.79C139.017 217.521 138 216.03 137.28 214.39L135.1 209.83L127.57 194L122.57 183.32C122.01 182.08 121.57 181.11 121.24 180.41L120.9 179.64C120.858 179.557 120.825 179.47 120.8 179.38C120.8 179.38 120.86 179.46 120.95 179.62C121.04 179.78 121.17 180.06 121.33 180.36L122.76 183.24C123.99 185.78 125.76 189.39 127.92 193.84C130.08 198.29 132.65 203.68 135.51 209.61C136.22 211.09 136.96 212.61 137.7 214.16C138.413 215.739 139.406 217.175 140.63 218.4C142.012 219.538 143.637 220.342 145.38 220.75C147.15 221.23 149 221.58 150.85 222.02C165.66 225.46 178.99 228.87 188.64 231.33C193.43 232.59 197.32 233.6 200.06 234.33L203.15 235.18L203.95 235.41L204.21 235.45Z" fill="#263238"/>
<path d="M157.43 232.72C157.43 232.72 157.21 232.95 156.74 233.3C156.27 233.65 155.6 234.13 154.74 234.71C152.506 236.253 150.087 237.509 147.54 238.45C144.962 239.383 142.192 239.661 139.48 239.26C138.663 239.121 137.865 238.89 137.1 238.57C136.812 238.478 136.544 238.332 136.31 238.14C137.366 238.458 138.442 238.709 139.53 238.89C142.18 239.182 144.862 238.864 147.37 237.96C149.876 237.022 152.278 235.829 154.54 234.4C155.464 233.774 156.429 233.213 157.43 232.72V232.72Z" fill="#263238"/>
<path d="M160 238.52C160.063 238.636 160.11 238.761 160.14 238.89C160.253 239.257 160.343 239.631 160.41 240.01C160.651 241.416 160.651 242.854 160.41 244.26C160.02 246.349 159.128 248.313 157.81 249.98C156.148 252.011 153.903 253.483 151.378 254.198C148.853 254.913 146.17 254.837 143.69 253.98C141.695 253.239 139.913 252.02 138.5 250.43C137.553 249.363 136.796 248.142 136.26 246.82C136.123 246.46 136.006 246.093 135.91 245.72C135.85 245.47 135.82 245.33 135.84 245.33C136.504 247.116 137.498 248.761 138.77 250.18C140.173 251.682 141.915 252.827 143.85 253.52C146.232 254.328 148.802 254.398 151.225 253.722C153.648 253.046 155.81 251.655 157.43 249.73C158.725 248.134 159.62 246.252 160.04 244.24C160.388 242.348 160.375 240.407 160 238.52V238.52Z" fill="#263238"/>
<path d="M140.79 99.8103L140.92 137.07C140.929 138.57 141.242 140.052 141.84 141.426C142.438 142.801 143.309 144.04 144.4 145.069C145.491 146.097 146.779 146.894 148.187 147.409C149.595 147.925 151.093 148.15 152.59 148.07C155.423 147.917 158.091 146.684 160.043 144.625C161.996 142.567 163.086 139.838 163.09 137C163.09 134.19 163.09 131.85 163.09 131.56C163.09 131.56 172.57 130.64 173.22 121.25C173.54 116.71 173.42 107.31 173.22 98.8003C173.121 94.3932 171.365 90.1853 168.301 87.0158C165.237 83.8463 161.091 81.9483 156.69 81.7003H155.78C146 81.6603 140.5 90.0003 140.79 99.8103Z" fill="#B78876"/>
<path d="M163.11 131.41C158.768 131.243 154.573 129.788 151.06 127.23C151.06 127.23 153.57 134.16 162.99 133.84L163.11 131.41Z" fill="#AA6550"/>
<path d="M170.9 104.31C170.882 104.661 170.728 104.992 170.47 105.231C170.212 105.47 169.871 105.599 169.52 105.59C169.349 105.594 169.178 105.564 169.019 105.501C168.859 105.438 168.714 105.343 168.592 105.223C168.47 105.102 168.373 104.959 168.307 104.8C168.242 104.642 168.209 104.472 168.21 104.3C168.228 103.951 168.381 103.623 168.637 103.384C168.892 103.145 169.23 103.015 169.58 103.02C169.752 103.016 169.923 103.047 170.083 103.11C170.243 103.173 170.389 103.267 170.512 103.387C170.635 103.508 170.732 103.651 170.799 103.81C170.866 103.968 170.9 104.138 170.9 104.31V104.31Z" fill="#263238"/>
<path d="M171.16 102.72C170.99 102.89 170.01 102.08 168.57 102C167.13 101.92 166.02 102.58 165.88 102.4C165.74 102.22 165.99 102.01 166.47 101.7C167.121 101.303 167.878 101.115 168.64 101.16C169.392 101.2 170.11 101.48 170.69 101.96C171.12 102.32 171.25 102.65 171.16 102.72Z" fill="#263238"/>
<path d="M156.86 104.2C156.845 104.55 156.692 104.88 156.436 105.12C156.18 105.359 155.841 105.488 155.49 105.48C155.319 105.484 155.148 105.454 154.989 105.39C154.829 105.327 154.684 105.233 154.562 105.112C154.44 104.992 154.343 104.848 154.278 104.69C154.212 104.532 154.179 104.362 154.18 104.19C154.196 103.84 154.348 103.51 154.604 103.271C154.86 103.031 155.2 102.902 155.55 102.91C155.722 102.906 155.892 102.936 156.052 103C156.211 103.063 156.356 103.157 156.478 103.278C156.601 103.398 156.697 103.542 156.763 103.7C156.829 103.859 156.862 104.029 156.86 104.2Z" fill="#263238"/>
<path d="M156.79 102.4C156.61 102.56 155.64 101.75 154.19 101.67C152.74 101.59 151.65 102.26 151.5 102.07C151.35 101.88 151.62 101.68 152.1 101.37C152.747 100.971 153.502 100.786 154.26 100.84C155.013 100.879 155.734 101.156 156.32 101.63C156.74 102 156.87 102.32 156.79 102.4Z" fill="#263238"/>
<path d="M161.36 113.75C162.135 113.555 162.931 113.458 163.73 113.46C164.1 113.46 164.46 113.39 164.53 113.14C164.582 112.764 164.519 112.38 164.35 112.04C164.05 111.12 163.74 110.17 163.42 109.16C162.13 105.08 161.22 101.73 161.42 101.68C161.62 101.63 162.76 104.9 164.05 108.98C164.35 109.98 164.65 110.98 164.93 111.87C165.14 112.328 165.179 112.846 165.04 113.33C164.978 113.457 164.888 113.567 164.777 113.654C164.666 113.74 164.537 113.801 164.4 113.83C164.191 113.858 163.979 113.858 163.77 113.83C162.966 113.907 162.156 113.881 161.36 113.75V113.75Z" fill="#263238"/>
<path d="M157.37 99.4004C157.2 99.7904 155.77 99.5204 154.07 99.6304C152.37 99.7404 150.96 100.12 150.76 99.7504C150.67 99.5804 150.93 99.2204 151.5 98.8704C152.261 98.4372 153.115 98.1936 153.99 98.1604C154.864 98.1065 155.738 98.2607 156.54 98.6104C157.15 98.8904 157.44 99.2204 157.37 99.4004Z" fill="#263238"/>
<path d="M171 99.28C170.73 99.59 169.75 99.19 168.56 99.11C167.37 99.03 166.34 99.2 166.12 98.85C166.03 98.68 166.21 98.36 166.67 98.07C167.287 97.7343 167.989 97.5885 168.688 97.6508C169.387 97.713 170.053 97.9807 170.6 98.42C171 98.78 171.16 99.12 171 99.28Z" fill="#263238"/>
<path d="M141.16 106.81C141 106.73 134.81 104.53 134.65 110.97C134.49 117.41 140.98 116.24 141 116.06C141.02 115.88 141.16 106.81 141.16 106.81Z" fill="#B78876"/>
<path d="M139.09 113.57C139.09 113.57 138.98 113.64 138.79 113.73C138.521 113.841 138.219 113.841 137.95 113.73C137.541 113.456 137.213 113.079 136.998 112.636C136.784 112.193 136.691 111.701 136.73 111.21C136.726 110.658 136.846 110.111 137.08 109.61C137.148 109.411 137.262 109.231 137.413 109.085C137.565 108.939 137.749 108.831 137.95 108.77C138.08 108.739 138.217 108.754 138.336 108.815C138.455 108.876 138.549 108.977 138.6 109.1C138.68 109.28 138.6 109.41 138.67 109.42C138.74 109.43 138.81 109.31 138.77 109.05C138.733 108.89 138.646 108.746 138.52 108.64C138.435 108.572 138.338 108.52 138.233 108.49C138.128 108.459 138.019 108.449 137.91 108.46C137.641 108.509 137.388 108.626 137.178 108.802C136.967 108.977 136.806 109.204 136.71 109.46C136.423 110.009 136.275 110.621 136.28 111.24C136.233 111.813 136.357 112.387 136.636 112.889C136.916 113.391 137.338 113.799 137.85 114.06C138.017 114.109 138.193 114.122 138.365 114.098C138.537 114.073 138.703 114.013 138.85 113.92C139.08 113.72 139.12 113.58 139.09 113.57Z" fill="#AA6550"/>
<path d="M137.6 106.39C138.212 106.385 138.815 106.546 139.343 106.856C139.871 107.166 140.305 107.613 140.6 108.15C140.96 109.09 141 110.15 141.36 111.08C141.499 111.566 141.796 111.991 142.203 112.29C142.61 112.588 143.105 112.743 143.61 112.73C143.949 112.644 144.26 112.47 144.511 112.226C144.761 111.982 144.944 111.677 145.04 111.34C145.213 110.665 145.257 109.962 145.17 109.27C144.97 106.27 144.5 103.27 144.56 100.2C144.505 97.149 145.354 94.1497 147 91.5802C147.833 90.3079 148.993 89.2835 150.358 88.6148C151.724 87.9461 153.244 87.6578 154.76 87.7802C156.76 88.0602 158.52 89.2002 160.48 89.5902C161.652 89.8133 162.86 89.7673 164.012 89.4554C165.164 89.1436 166.23 88.5742 167.13 87.7902C167.23 87.7044 167.337 87.6274 167.45 87.5602C167.777 87.3559 168.027 87.0482 168.159 86.6858C168.291 86.3234 168.299 85.9272 168.18 85.5602C168.114 85.3249 167.998 85.1066 167.84 84.9202C164.11 81.0602 157.07 79.6402 151.84 80.6502C149.16 81.1514 146.621 82.2293 144.398 83.8093C142.176 85.3892 140.324 87.4334 138.97 89.8002C136.46 94.5502 136.73 101.36 137.69 106.36" fill="#263238"/>
<path d="M158 114.88C158.24 114.88 158.24 116.43 159.58 117.54C160.92 118.65 162.58 118.48 162.58 118.7C162.58 118.92 162.21 119.01 161.5 119.02C160.583 119.039 159.69 118.731 158.98 118.15C158.3 117.592 157.863 116.793 157.76 115.92C157.67 115.26 157.85 114.87 158 114.88Z" fill="#263238"/>
<path d="M247.81 167.8C247.81 167.8 254.86 161.61 256.19 161.15C257.52 160.69 268.14 160.5 268.85 161.03C269.56 161.56 280.31 167.45 278.53 168.36C276.75 169.27 269.3 165 269.3 165L268.05 165.17C268.05 165.17 274.55 168.64 275.7 169.97C276.85 171.3 275.75 172.68 274.54 172.11C273.33 171.54 267.75 168.33 267.31 168.45C266.87 168.57 273.25 172.3 273.84 173C274.63 173.92 274.12 175.72 272.89 175.2C272.17 174.9 266.29 171 266.29 171C267.955 172.362 269.544 173.814 271.05 175.35C271.57 176.35 270.57 177.26 269.54 176.63C268.84 176.2 265.81 173.22 264.87 172.63C264.87 172.63 263.87 172.55 262.3 174.19C260.73 175.83 254.72 178.06 254.72 178.06L247.81 167.8Z" fill="#B78876"/>
<path d="M278.5 168.38C277.738 168.489 276.963 168.441 276.22 168.24C275.403 168.076 274.602 167.835 273.83 167.52C273 167.12 272.09 166.66 271.13 166.17L269.13 165.17H269.27C267.449 165.265 265.623 165.215 263.81 165.02C265.612 164.733 267.436 164.603 269.26 164.63H269.32H269.39L271.39 165.63L274 167C274.735 167.324 275.494 167.592 276.27 167.8C277.64 168.2 278.51 168.29 278.5 168.38Z" fill="#AA6550"/>
<path d="M250.43 169.59C250.72 170.001 251.132 170.311 251.608 170.474C252.084 170.638 252.599 170.647 253.08 170.5C254.08 170.29 254.95 169.76 255.91 169.5C258.8 168.67 262.01 170.21 264.85 169.24C265.25 169.1 265.69 168.81 265.65 168.4C265.61 167.99 265.17 167.82 264.8 167.7L255.32 164.7" fill="#B78876"/>
<path d="M255.32 164.66C255.682 164.682 256.039 164.756 256.38 164.88C257.05 165.06 258.01 165.34 259.2 165.69L263.36 166.95L264.56 167.32C264.94 167.47 265.49 167.5 265.85 168.09C265.92 168.241 265.943 168.409 265.916 168.573C265.889 168.737 265.814 168.889 265.7 169.01C265.512 169.212 265.279 169.367 265.02 169.46C264.554 169.622 264.07 169.729 263.58 169.78C261.792 169.808 260.004 169.711 258.23 169.49C257.48 169.45 256.729 169.521 256 169.7C255.33 169.88 254.71 170.18 254.12 170.39C253.651 170.613 253.139 170.728 252.62 170.728C252.101 170.728 251.589 170.613 251.12 170.39C250.48 170.02 250.38 169.56 250.4 169.57C250.635 169.826 250.912 170.039 251.22 170.2C251.671 170.364 252.152 170.432 252.631 170.397C253.11 170.363 253.577 170.227 254 170C254.62 169.711 255.254 169.454 255.9 169.23C256.673 169.013 257.477 168.918 258.28 168.95C260.03 169.137 261.79 169.221 263.55 169.2C263.988 169.147 264.421 169.05 264.84 168.91C265.23 168.77 265.5 168.49 265.38 168.31C265.26 168.13 264.84 167.94 264.38 167.82L263.18 167.43L259.06 166.05C257.89 165.65 256.94 165.32 256.29 165.05C255.95 164.965 255.624 164.834 255.32 164.66V164.66Z" fill="#AA6550"/>
<path d="M207.78 219.4L219.47 218.24C219.47 218.24 234.93 228.83 233.47 231.16C232.01 233.49 229.47 231.16 229.47 231.16C229.47 231.16 232.22 234.55 227.77 235.61C227.77 235.61 226.71 237.94 225.02 237.73H223.96C223.96 237.73 222.96 240.68 221.57 240.04C220.18 239.4 215.83 235.6 215.83 235.6L203.83 234.54L207.78 219.4Z" fill="#B78876"/>
<path d="M215.05 231.45C215.05 231.45 212.05 232.6 211.44 233.81C210.83 235.02 210.44 237.81 212.38 238.36C213.518 238.433 214.66 238.396 215.79 238.25L215.05 235.1C215.608 234.453 216.202 233.839 216.83 233.26C217.47 232.73 216.77 230.66 215.05 231.45Z" fill="#FFBE9D"/>
<path d="M218.42 233.05C218.42 233.05 215.42 234.2 214.81 235.4C214.634 235.754 214.539 236.142 214.533 236.537C214.526 236.932 214.609 237.324 214.774 237.683C214.939 238.042 215.182 238.359 215.486 238.611C215.79 238.863 216.147 239.044 216.53 239.14C217.561 239.222 218.597 239.189 219.62 239.04L219.3 238.43C218.7 237.25 218.44 236.29 219.5 235.5C219.56 235.5 220.16 234.9 220.2 234.86C220.351 234.611 220.414 234.319 220.38 234.03C220.346 233.741 220.217 233.472 220.013 233.264C219.809 233.057 219.542 232.923 219.253 232.884C218.965 232.845 218.672 232.904 218.42 233.05Z" fill="#FFBE9D"/>
<path d="M219.14 238.93C218.887 238.656 218.727 238.309 218.684 237.939C218.641 237.569 218.717 237.195 218.9 236.87C219.294 236.227 219.927 235.767 220.66 235.59C220.886 235.495 221.134 235.465 221.376 235.504C221.619 235.543 221.845 235.649 222.03 235.81C222.12 235.94 222.184 236.086 222.216 236.241C222.249 236.395 222.25 236.555 222.22 236.71C222.017 237.536 221.595 238.293 221 238.9C220.72 239.25 220.38 239.63 219.93 239.62C219.48 239.61 219.15 239.19 218.93 238.81" fill="#FFBE9D"/>
<path d="M155.96 144.67L158.59 143.68L160.86 147.75L159.59 152.1L156.91 152.76L154.24 149.39L155.96 144.67Z" fill="#545D94"/>
<path d="M156.91 152.76C156.91 152.76 160.32 171.47 163.15 184.63C163.15 184.63 165.48 195.63 166.42 198.11C167.47 200.94 170.71 205.11 170.71 205.11L174 206.39L172 187.9L159.6 152.1L156.91 152.76Z" fill="#545D94"/>
<g opacity="0.4">
<path opacity="0.4" d="M155.96 144.67L158.59 143.68L160.86 147.75L159.59 152.1L156.91 152.76L154.24 149.39L155.96 144.67Z" fill="black"/>
</g>
<g opacity="0.4">
<path opacity="0.4" d="M156.91 152.76C156.91 152.76 160.32 171.47 163.15 184.63C163.15 184.63 165.82 195.49 166.42 198.11C166.77 199.66 170.71 205.11 170.71 205.11L174 206.39L172 187.9L159.6 152.1L156.91 152.76Z" fill="black"/>
</g>
<path d="M140.18 133.3L155.96 144.67L152.55 154.05L138.19 139.27L140.18 133.3Z" fill="#F5F5F5"/>
<path d="M158.59 143.68L162.99 133.84L165.49 141.96L162.02 150.48L158.59 143.68Z" fill="#F5F5F5"/>
<path d="M156 144.67C155.97 144.917 155.91 145.158 155.82 145.39L155.18 147.39C154.62 149.06 153.8 151.39 152.81 154.17L152.68 154.55L152.4 154.25L148.73 150.19C145.87 147.02 143.3 144.13 141.47 142.02L139.31 139.5C139.028 139.195 138.78 138.859 138.57 138.5C138.895 138.749 139.193 139.03 139.46 139.34L141.74 141.74C143.65 143.74 146.26 146.64 149.11 149.81C150.4 151.25 151.63 152.63 152.77 153.89L152.36 153.97C153.36 151.23 154.26 148.9 154.9 147.25L155.67 145.34C155.747 145.102 155.859 144.876 156 144.67V144.67Z" fill="#263238"/>
<path d="M165.49 142C165.322 142.79 165.074 143.561 164.75 144.3C164.24 145.69 163.49 147.61 162.63 149.71L162.26 150.62L162 151.25L161.78 150.61C160.91 148.373 159.856 146.213 158.63 144.15C159.156 144.622 159.602 145.175 159.95 145.79C160.906 147.242 161.685 148.803 162.27 150.44H161.78C161.9 150.14 162.03 149.84 162.15 149.53C163.01 147.42 163.81 145.53 164.41 144.17C164.684 143.407 165.047 142.679 165.49 142Z" fill="#263238"/>
<path d="M366 438.07L372.08 462.21L382.4 479.92C382.576 480.222 382.688 480.557 382.73 480.904C382.771 481.251 382.741 481.603 382.64 481.938C382.54 482.272 382.372 482.583 382.147 482.85C381.921 483.117 381.643 483.335 381.33 483.49V483.49C380.97 483.678 380.571 483.776 380.165 483.776C379.759 483.776 379.36 483.678 379 483.49C374.36 480.99 357.36 471.7 357 469.91C356.6 467.84 348.89 444.91 348.89 444.91L366 438.07Z" fill="#3A4049"/>
<g opacity="0.6">
<path opacity="0.6" d="M381.37 483.49L356.61 468.26L356.89 469.26C357.13 470.14 357.676 470.906 358.43 471.42C360.43 472.79 366.11 476.42 378.96 483.42C379.331 483.617 379.745 483.72 380.165 483.72C380.585 483.72 380.999 483.617 381.37 483.42V483.49Z" fill="white"/>
</g>
<g opacity="0.6">
<path opacity="0.6" d="M359.39 459.16C359.746 459.294 360.041 459.555 360.216 459.893C360.392 460.231 360.436 460.622 360.34 460.99C360.218 461.351 359.962 461.651 359.625 461.828C359.288 462.005 358.896 462.045 358.53 461.94C358.151 461.8 357.839 461.523 357.654 461.164C357.469 460.805 357.425 460.39 357.53 460C357.694 459.634 357.996 459.347 358.37 459.201C358.744 459.055 359.161 459.062 359.53 459.22" fill="white"/>
</g>
<path d="M373 474.52C373.366 473.611 373.903 472.779 374.58 472.07C375.367 471.483 376.255 471.046 377.2 470.78C377.2 470.72 376.85 470.62 376.27 470.69C375.51 470.817 374.801 471.155 374.225 471.667C373.648 472.178 373.227 472.841 373.01 473.58C372.86 474.16 372.92 474.52 373 474.52Z" fill="#263238"/>
<path d="M375.58 477.26C375.73 477.34 376.28 476.34 377.42 475.64C378.156 475.283 378.91 474.966 379.68 474.69C379.247 474.562 378.789 474.54 378.346 474.626C377.902 474.711 377.485 474.901 377.13 475.18C375.84 476 375.44 477.23 375.58 477.26Z" fill="#263238"/>
<path d="M368.67 471.28C370.187 469.226 372.273 467.661 374.67 466.78C373.346 466.884 372.079 467.362 371.016 468.159C369.954 468.956 369.14 470.038 368.67 471.28V471.28Z" fill="#263238"/>
<path d="M366.2 464.1C366.31 464.22 367.48 463.3 369.2 462.77C370.92 462.24 372.39 462.26 372.4 462.1C371.296 461.746 370.101 461.795 369.03 462.24C367.899 462.512 366.898 463.17 366.2 464.1V464.1Z" fill="#263238"/>
<path d="M364.24 457.06C365.188 456.427 366.222 455.932 367.31 455.59C368.434 455.405 369.578 455.375 370.71 455.5C370.71 455.44 370.39 455.22 369.71 455.05C368.865 454.848 367.985 454.848 367.14 455.05C366.295 455.249 365.51 455.647 364.85 456.21C364.39 456.65 364.19 457 364.24 457.06Z" fill="#263238"/>
<path d="M366.89 454.26C366.89 453.942 366.818 453.627 366.68 453.34C366.368 452.53 365.899 451.789 365.3 451.16C364.899 450.666 364.348 450.315 363.73 450.16C363.521 450.126 363.307 450.159 363.119 450.255C362.93 450.35 362.776 450.502 362.68 450.69C362.504 451.059 362.476 451.481 362.6 451.87C362.875 452.663 363.418 453.334 364.136 453.769C364.853 454.203 365.7 454.374 366.53 454.25C367.347 454.109 368.105 453.728 368.706 453.157C369.308 452.586 369.726 451.849 369.91 451.04C369.953 450.836 369.952 450.626 369.907 450.422C369.862 450.219 369.774 450.027 369.65 449.86C369.507 449.706 369.319 449.6 369.112 449.559C368.906 449.518 368.691 449.543 368.5 449.63C367.943 449.923 367.474 450.358 367.14 450.89C366.631 451.591 366.252 452.376 366.02 453.21C365.908 453.507 365.861 453.824 365.88 454.14C366.253 453.069 366.782 452.058 367.45 451.14C367.76 450.691 368.176 450.323 368.66 450.07C368.765 450.021 368.883 450.008 368.996 450.031C369.11 450.055 369.213 450.114 369.29 450.2C369.362 450.315 369.409 450.444 369.43 450.578C369.451 450.712 369.444 450.849 369.41 450.98C369.229 451.679 368.849 452.311 368.317 452.799C367.784 453.287 367.122 453.61 366.41 453.73C365.704 453.83 364.986 453.687 364.373 453.323C363.76 452.959 363.29 452.397 363.04 451.73C362.944 451.462 362.944 451.169 363.04 450.9C363.092 450.795 363.176 450.709 363.281 450.655C363.385 450.601 363.504 450.582 363.62 450.6C364.139 450.732 364.606 451.018 364.96 451.42C365.768 452.244 366.422 453.206 366.89 454.26Z" fill="#263238"/>
<path d="M290.63 442.57L291.92 461.18C291.92 461.18 273.44 468.74 273.34 472.18L309.51 471L308.7 441.92L290.63 442.57Z" fill="#3A4049"/>
<path d="M303.05 459.24C303.403 459.334 303.709 459.556 303.909 459.863C304.108 460.169 304.187 460.539 304.13 460.9C304.051 461.257 303.837 461.57 303.534 461.775C303.231 461.979 302.861 462.06 302.5 462C302.127 461.899 301.805 461.663 301.596 461.337C301.388 461.012 301.307 460.621 301.37 460.24C301.494 459.879 301.752 459.579 302.091 459.404C302.43 459.229 302.824 459.192 303.19 459.3" fill="#E0E0E0"/>
<path d="M309.51 471L309.32 468.07L274.71 470.32C274.71 470.32 273.12 471.08 273.34 472.21L309.51 471Z" fill="#E0E0E0"/>
<path d="M291.33 461C291.33 461.17 292.23 461.23 293.11 461.76C293.99 462.29 294.49 463.03 294.65 462.96C294.81 462.89 294.51 461.87 293.43 461.23C292.35 460.59 291.29 460.86 291.33 461Z" fill="#263238"/>
<path d="M287.59 462.71C287.59 462.89 288.33 463.16 288.95 463.89C289.57 464.62 289.78 465.4 289.95 465.39C290.12 465.38 290.21 464.39 289.41 463.48C288.61 462.57 287.59 462.55 287.59 462.71Z" fill="#263238"/>
<path d="M285.58 467.33C285.75 467.33 285.96 466.47 285.48 465.52C285 464.57 284.15 464.21 284.08 464.36C284.01 464.51 284.54 465.01 284.93 465.79C285.32 466.57 285.41 467.31 285.58 467.33Z" fill="#263238"/>
<path d="M291.51 456.75C291.59 456.9 292.39 456.63 293.39 456.67C294.39 456.71 295.18 456.99 295.26 456.84C295.34 456.69 294.58 456.08 293.4 456.05C292.22 456.02 291.41 456.61 291.51 456.75Z" fill="#263238"/>
<path d="M291.32 453C291.919 453.134 292.543 453.11 293.13 452.93C293.777 452.79 294.405 452.571 295 452.28C295.348 452.109 295.682 451.912 296 451.69C296.204 451.576 296.387 451.427 296.54 451.25C296.651 451.121 296.716 450.959 296.725 450.789C296.734 450.619 296.687 450.45 296.59 450.31C296.496 450.191 296.376 450.095 296.239 450.029C296.102 449.963 295.952 449.929 295.8 449.93C295.568 449.935 295.339 449.975 295.12 450.05C294.737 450.154 294.365 450.294 294.01 450.47C293.409 450.765 292.859 451.153 292.38 451.62C291.56 452.43 291.3 453.1 291.38 453.13C291.46 453.16 291.85 452.62 292.68 451.95C293.165 451.55 293.699 451.214 294.27 450.95C294.593 450.805 294.927 450.688 295.27 450.6C295.65 450.49 295.97 450.47 296.08 450.6C296.19 450.73 296.08 450.69 296.08 450.8C295.963 450.929 295.829 451.041 295.68 451.13C295.378 451.341 295.064 451.535 294.74 451.71C294.188 452.001 293.613 452.246 293.02 452.44C292.439 452.58 291.87 452.767 291.32 453Z" fill="#263238"/>
<path d="M291.55 453.23C291.62 453.23 291.95 452.61 291.97 451.47C291.981 450.791 291.876 450.115 291.66 449.47C291.533 449.093 291.365 448.731 291.16 448.39C291.055 448.155 290.891 447.951 290.685 447.797C290.478 447.643 290.235 447.544 289.98 447.51C289.819 447.519 289.664 447.574 289.533 447.668C289.402 447.762 289.3 447.891 289.24 448.04C289.151 448.254 289.094 448.48 289.07 448.71C289.009 449.115 289.009 449.526 289.07 449.93C289.194 450.607 289.482 451.242 289.91 451.78C290.65 452.69 291.39 452.88 291.4 452.78C291.41 452.68 290.83 452.37 290.26 451.48C289.929 450.973 289.714 450.4 289.63 449.8C289.58 449.452 289.58 449.098 289.63 448.75C289.63 448.37 289.81 448.05 289.95 448.09C290.09 448.13 290.45 448.36 290.61 448.66C290.796 448.981 290.956 449.315 291.09 449.66C291.313 450.237 291.451 450.844 291.5 451.46C291.62 452.54 291.46 453.21 291.55 453.23Z" fill="#263238"/>
<path d="M280.76 240.14L286.58 456.7L315.12 455.84L312.92 269.98L349.28 461.01L375.05 454.28L341.78 240.56L280.76 240.14Z" fill="#263238"/>
<path d="M296.4 457C296.25 457 296.14 412.11 296.14 356.74C296.14 301.37 296.25 256.48 296.4 256.48C296.55 256.48 296.66 301.36 296.66 356.74C296.66 412.12 296.54 457 296.4 457Z" fill="#455A64"/>
<path d="M357.42 460.94C357.28 460.94 350.62 417.94 342.54 364.83C334.46 311.72 328 268.64 328.17 268.62C328.34 268.6 334.97 311.62 343.05 364.75C351.13 417.88 357.57 460.92 357.42 460.94Z" fill="#455A64"/>
<path d="M321.65 104.72C322.644 102.495 323.45 100.19 324.06 97.8302C324.4 96.0302 324.94 93.3402 324.22 91.6602C323.5 89.9802 321.75 88.3602 319.55 88.8202C319.322 87.0531 318.646 85.3734 317.588 83.9402C316.529 82.5071 315.122 81.3678 313.5 80.6302C310.37 79.1158 306.972 78.2324 303.5 78.0302C302.231 77.9018 300.948 78.0625 299.75 78.5002C298.732 79.0165 297.931 79.8778 297.49 80.9302C296.441 80.1759 295.23 79.6772 293.954 79.4741C292.677 79.2709 291.372 79.3689 290.14 79.7602C287.38 80.5002 284.24 81.9902 283.03 84.5702C282.163 86.501 282.088 88.6945 282.82 90.6802C283.35 92.3602 285.13 95.0002 286.82 94.3802" fill="#263238"/>
<path d="M307.74 151.43C306.085 151.397 304.454 151.03 302.943 150.353C301.432 149.676 300.073 148.703 298.946 147.49C297.819 146.277 296.947 144.85 296.383 143.294C295.818 141.738 295.573 140.084 295.66 138.43C295.83 134.98 295.99 132.19 295.99 132.19C295.99 132.19 286.57 130.97 286.22 121.59C285.87 112.21 286.96 90.6505 286.96 90.6505C292.238 88.2335 298.066 87.2697 303.841 87.8586C309.616 88.4476 315.129 90.5679 319.81 94.0005L321.22 95.0005L320.35 139.31C320.319 140.935 319.968 142.537 319.317 144.025C318.666 145.513 317.729 146.859 316.557 147.984C315.386 149.11 314.005 149.994 312.492 150.585C310.979 151.176 309.364 151.464 307.74 151.43V151.43Z" fill="#FFBE9D"/>
<path d="M296 132.09C300.332 132.061 304.557 130.745 308.14 128.31C308.14 128.31 305.25 135.58 295.87 134.97L296 132.09Z" fill="#EB996E"/>
<path d="M320.31 104.75C320.47 104.68 326.71 102.68 326.66 109.1C326.61 115.52 320.19 114.15 320.18 113.96C320.17 113.77 320.31 104.75 320.31 104.75Z" fill="#FFBE9D"/>
<path d="M322.15 111.54C322.15 111.54 322.27 111.62 322.45 111.71C322.583 111.766 322.726 111.795 322.87 111.795C323.014 111.795 323.157 111.766 323.29 111.71C323.708 111.452 324.048 111.087 324.277 110.652C324.505 110.218 324.614 109.73 324.59 109.24C324.611 108.69 324.504 108.143 324.28 107.64C324.223 107.44 324.117 107.256 323.973 107.106C323.828 106.956 323.649 106.844 323.45 106.78C323.323 106.744 323.186 106.754 323.065 106.809C322.944 106.864 322.847 106.96 322.79 107.08C322.7 107.26 322.74 107.38 322.71 107.39C322.68 107.4 322.57 107.29 322.62 107.02C322.66 106.861 322.751 106.72 322.88 106.62C323.06 106.492 323.281 106.435 323.5 106.46C323.762 106.516 324.005 106.638 324.208 106.812C324.41 106.987 324.566 107.21 324.66 107.46C324.932 108.016 325.059 108.632 325.03 109.25C325.057 109.821 324.915 110.388 324.621 110.879C324.328 111.37 323.896 111.763 323.38 112.01C323.21 112.053 323.033 112.059 322.861 112.028C322.688 111.997 322.524 111.93 322.38 111.83C322.16 111.7 322.13 111.56 322.15 111.54Z" fill="#EB996E"/>
<path d="M289.39 105.32C289.398 105.669 289.541 106.002 289.789 106.248C290.037 106.495 290.371 106.635 290.72 106.64C290.891 106.649 291.061 106.625 291.222 106.567C291.383 106.509 291.531 106.42 291.657 106.305C291.782 106.189 291.884 106.05 291.955 105.894C292.026 105.739 292.065 105.571 292.07 105.4C292.065 105.05 291.923 104.716 291.674 104.469C291.426 104.222 291.09 104.083 290.74 104.08C290.57 104.072 290.4 104.098 290.239 104.156C290.079 104.214 289.932 104.303 289.807 104.419C289.681 104.534 289.58 104.673 289.508 104.828C289.437 104.982 289.397 105.15 289.39 105.32V105.32Z" fill="#263238"/>
<path d="M289.06 103.82C289.23 103.99 290.23 103.22 291.67 103.19C293.11 103.16 294.19 103.85 294.34 103.67C294.49 103.49 294.24 103.28 293.77 102.95C293.135 102.535 292.388 102.326 291.63 102.35C290.88 102.366 290.154 102.622 289.56 103.08C289.12 103.43 289 103.75 289.06 103.82Z" fill="#263238"/>
<path d="M303.51 105.31C303.521 105.658 303.665 105.988 303.912 106.232C304.16 106.476 304.492 106.615 304.84 106.62C305.011 106.631 305.182 106.607 305.344 106.55C305.505 106.493 305.654 106.404 305.78 106.288C305.906 106.172 306.007 106.032 306.078 105.876C306.148 105.72 306.187 105.551 306.19 105.38C306.185 105.032 306.044 104.699 305.798 104.452C305.551 104.206 305.219 104.065 304.87 104.06C304.699 104.052 304.527 104.078 304.366 104.137C304.204 104.195 304.056 104.285 303.93 104.401C303.803 104.518 303.701 104.658 303.629 104.814C303.557 104.97 303.517 105.138 303.51 105.31V105.31Z" fill="#263238"/>
<path d="M303.23 103.74C303.41 103.91 304.4 103.13 305.84 103.1C307.28 103.07 308.36 103.76 308.51 103.58C308.66 103.4 308.41 103.19 307.94 102.87C307.307 102.449 306.559 102.236 305.8 102.26C305.05 102.277 304.324 102.532 303.73 102.99C303.29 103.34 303.15 103.66 303.23 103.74Z" fill="#263238"/>
<path d="M298.27 114.55C297.504 114.334 296.715 114.213 295.92 114.19C295.55 114.19 295.2 114.1 295.13 113.85C295.097 113.47 295.173 113.088 295.35 112.75C295.68 111.85 296.02 110.91 296.35 109.92C297.76 105.92 298.77 102.59 298.61 102.53C298.45 102.47 297.17 105.7 295.76 109.72L294.76 112.57C294.538 113.02 294.481 113.533 294.6 114.02C294.661 114.145 294.748 114.256 294.855 114.346C294.962 114.435 295.086 114.501 295.22 114.54C295.426 114.59 295.638 114.613 295.85 114.61C296.656 114.701 297.47 114.68 298.27 114.55V114.55Z" fill="#263238"/>
<path d="M302.54 115.45C302.3 115.45 302.34 117 301.03 118.15C299.72 119.3 298.03 119.15 298.03 119.38C298.03 119.61 298.41 119.67 299.12 119.67C300.035 119.662 300.918 119.329 301.61 118.73C302.279 118.158 302.699 117.347 302.78 116.47C302.83 115.82 302.65 115.43 302.54 115.45Z" fill="#263238"/>
<path d="M302.72 98.1002C302.87 98.4902 304.31 98.2702 306 98.4302C307.69 98.5902 309.08 99.0102 309.29 98.6602C309.39 98.4902 309.14 98.1202 308.58 97.7602C307.838 97.3047 306.998 97.0338 306.13 96.9702C305.26 96.8867 304.383 97.01 303.57 97.3302C303 97.6002 302.66 97.9102 302.72 98.1002Z" fill="#263238"/>
<path d="M289.49 99.6404C289.75 99.9604 290.73 99.6404 291.93 99.5504C293.13 99.4604 294.14 99.7104 294.36 99.3704C294.46 99.2004 294.29 98.8704 293.84 98.5704C293.237 98.2163 292.543 98.0491 291.845 98.09C291.147 98.131 290.477 98.3782 289.92 98.8004C289.5 99.1404 289.37 99.4804 289.49 99.6404Z" fill="#263238"/>
<path d="M321.72 95.7401C321.66 98.4801 322.35 101.51 321.93 104.2C321.87 104.61 320.85 105.72 320.76 106.12C320.27 108.51 319.31 109.55 317.84 107.12C317.27 106.19 316.84 103.58 316.62 102.52L314.7 93.9101C312.527 95.1077 310.091 95.75 307.61 95.7801C306.372 95.7773 305.155 95.4591 304.073 94.8555C302.992 94.2518 302.082 93.3828 301.43 92.3301C300.868 93.3199 300.09 94.1701 299.154 94.8176C298.218 95.4651 297.148 95.8932 296.024 96.07C294.899 96.2468 293.749 96.1678 292.66 95.8389C291.57 95.51 290.569 94.9396 289.73 94.1701C289.29 94.8273 288.619 95.295 287.85 95.4803C287.081 95.6656 286.271 95.5548 285.58 95.1701C284.91 94.7467 284.391 94.1219 284.098 93.3852C283.805 92.6486 283.754 91.8381 283.95 91.0701C284.54 88.7701 286.95 87.4701 289.22 86.7401C298.07 83.8901 307.99 85.7401 316.12 90.2001C317.332 90.8174 318.444 91.6129 319.42 92.5601C320.36 93.5601 321.66 94.6801 321.73 96.0401" fill="#263238"/>
<path d="M315 95.0003C315.493 94.9985 315.982 95.0762 316.45 95.2303C316.94 95.4423 317.393 95.7328 317.79 96.0903C318.25 96.4903 318.7 97.0103 319.25 97.5203C319.762 98.0365 320.384 98.4297 321.07 98.6703C321.652 98.8354 322.268 98.8354 322.85 98.6703C323.85 98.3903 324.23 97.8503 324.19 97.8103C323.729 98.0054 323.255 98.1658 322.77 98.2903C322.254 98.3781 321.724 98.3334 321.23 98.1603C320.624 97.9266 320.074 97.565 319.62 97.1003C319.1 96.6103 318.62 96.1003 318.12 95.6803C317.665 95.3047 317.142 95.0196 316.58 94.8403C315.55 94.5603 314.93 95.0003 315 95.0003Z" fill="#455A64"/>
<path d="M316.07 97.8004C316.07 97.8804 316.55 97.8004 317.07 98.2504C317.376 98.5298 317.651 98.8416 317.89 99.1804C318.217 99.635 318.632 100.019 319.11 100.31C319.981 100.852 321.014 101.071 322.03 100.93C322.8 100.81 323.2 100.53 323.17 100.47C323.14 100.41 322.7 100.53 321.99 100.54C321.077 100.564 320.177 100.321 319.4 99.8404C318.48 99.3304 318.02 98.3504 317.29 97.9304C316.56 97.5104 316 97.7304 316.07 97.8004Z" fill="#455A64"/>
<path d="M291.34 79.56C291.34 79.56 291.03 79.48 290.51 79.64C289.778 79.8849 289.146 80.3625 288.71 81C287.56 82.61 287.29 85.46 288.18 88.23C288.966 90.615 290.604 92.6265 292.78 93.88C293.424 94.2546 294.113 94.5469 294.83 94.75C295.088 94.8486 295.364 94.8962 295.64 94.89C294.737 94.4864 293.856 94.0357 293 93.54C290.987 92.2568 289.478 90.3174 288.73 88.05C287.88 85.44 288.08 82.71 289.05 81.21C289.427 80.6124 289.969 80.1366 290.61 79.84C291.05 79.63 291.34 79.61 291.34 79.56Z" fill="#455A64"/>
<path d="M283.57 83.4504C283.463 84.0523 283.49 84.6704 283.65 85.2604C284.224 88.1759 285.933 90.7441 288.4 92.4004C288.883 92.7775 289.443 93.0438 290.04 93.1804C288.399 92.0287 286.956 90.6168 285.77 89.0004C283.9 86.2404 283.75 83.4204 283.57 83.4504Z" fill="#455A64"/>
<path d="M231.86 214.14L218.14 214.83C217.298 214.874 216.506 215.242 215.93 215.858C215.354 216.473 215.039 217.287 215.05 218.13C215.12 221.27 215.65 225.56 218.05 225.13L219.61 218.3L231 228.3C232.152 229.338 233.573 230.031 235.1 230.3L237.78 230.02L231.86 214.14Z" fill="#FFBE9D"/>
<path d="M297.47 140.65L290.3 143.02L286.74 202.57V255.4L330.77 260.27L331.28 184.09L328.44 146.18L321.71 138.14L297.47 140.65Z" fill="#E0E0E0"/>
<path d="M295.26 143.5V137.73L321.43 134.09L320.38 147.38L314.37 157.8L304.54 158.35L297.44 153.97L295.26 143.5Z" fill="#E0E0E0"/>
<path d="M297.61 142.83C297.387 141.969 297.336 141.072 297.46 140.19C297.416 139.301 297.541 138.412 297.83 137.57C298.053 138.432 298.104 139.329 297.98 140.21C298.024 141.099 297.899 141.988 297.61 142.83V142.83Z" fill="#263238"/>
<path d="M304.15 142.35C303.953 141.379 303.923 140.382 304.06 139.4C304.034 138.409 304.183 137.42 304.5 136.48C304.702 137.468 304.729 138.483 304.58 139.48C304.608 140.455 304.462 141.427 304.15 142.35V142.35Z" fill="#263238"/>
<path d="M310.48 141.69C310.309 140.657 310.309 139.603 310.48 138.57C310.471 137.523 310.637 136.482 310.97 135.49C311.136 136.524 311.136 137.577 310.97 138.61C310.974 139.657 310.808 140.697 310.48 141.69V141.69Z" fill="#263238"/>
<path d="M316.56 140.69C316.162 138.742 316.255 136.724 316.83 134.82C316.962 135.796 316.962 136.785 316.83 137.76C316.869 138.745 316.779 139.73 316.56 140.69V140.69Z" fill="#263238"/>
<path d="M313.65 165.86C313.581 166.208 313.463 166.545 313.3 166.86C313.05 167.48 312.66 168.36 312.15 169.44C311.15 171.59 309.62 174.52 307.76 177.64C305.9 180.76 304.05 183.5 302.64 185.42C301.94 186.42 301.36 187.15 300.94 187.67C300.74 187.955 300.505 188.214 300.24 188.44C300.881 187.326 301.582 186.248 302.34 185.21C303.67 183.21 305.46 180.49 307.34 177.38C309.22 174.27 310.75 171.38 311.85 169.27C312.391 168.103 312.991 166.965 313.65 165.86V165.86Z" fill="#263238"/>
<path d="M321.58 137.21L328.68 140.63L342.4 144C345.299 144.504 347.892 146.107 349.639 148.474C351.386 150.842 352.153 153.792 351.78 156.71L344.59 212.71L353.17 267.01L319.17 266.01L317.17 245.81V189.81L321.58 137.21Z" fill="#455A64"/>
<path d="M317.17 202.71C317.186 202.475 317.219 202.241 317.27 202.01C317.37 201.51 317.5 200.86 317.66 200.01L319.17 192.79L324.36 169.02C324.93 166.47 325.48 164.02 326.01 161.6L326.08 161.84L323.72 159.37L323.59 159.23L323.69 159.07L327.64 152.5V152.69L323.28 142.13C322.79 140.9 322.39 139.91 322.1 139.13C321.945 138.788 321.818 138.433 321.72 138.07C321.92 138.386 322.088 138.721 322.22 139.07L323.52 141.98L328 152.55L328.05 152.65L327.99 152.75C326.78 154.75 325.47 157 324.08 159.36V159.06L326.44 161.51L326.54 161.61V161.74C326.01 164.13 325.46 166.61 324.9 169.16C322.82 178.41 320.9 186.78 319.56 192.9C318.87 195.9 318.3 198.33 317.89 200.09L317.41 202.03C317.354 202.265 317.273 202.493 317.17 202.71V202.71Z" fill="#263238"/>
<path d="M232.44 211.88L262.52 195.11L277.09 155.8C278.099 153.085 279.656 150.606 281.663 148.518C283.671 146.429 286.086 144.776 288.76 143.66L292.63 142.05V245.54L293.4 270.06L277.1 265.18L285.42 215.9L282.54 191.65L279.69 203.38C279.188 205.461 278.272 207.42 276.995 209.138C275.718 210.857 274.108 212.299 272.26 213.38L241 229.62L232.44 211.88Z" fill="#455A64"/>
<path d="M232.8 212.64L230.27 213.4L237.39 230.38L240.71 229.09L232.8 212.64Z" fill="#E0E0E0"/>
<path d="M268 202.09C267.38 200.747 266.627 199.471 265.75 198.28C264.739 197.202 263.623 196.228 262.42 195.37C263.876 195.873 265.166 196.765 266.149 197.95C267.133 199.135 267.773 200.567 268 202.09V202.09Z" fill="#263238"/>
<path d="M236.05 212.1C236.05 212.17 235.9 212.3 235.88 212.59C235.86 212.88 236.05 213.22 236.45 213.1C236.525 213.083 236.595 213.045 236.651 212.991C236.707 212.938 236.747 212.87 236.768 212.795C236.788 212.72 236.788 212.641 236.767 212.566C236.747 212.492 236.706 212.424 236.65 212.37C236.48 212.13 236.26 212.12 236.25 212.04C236.24 211.96 236.53 211.82 236.91 212.1C237.019 212.187 237.107 212.298 237.166 212.425C237.225 212.552 237.254 212.69 237.25 212.83C237.233 213.01 237.162 213.18 237.046 213.317C236.93 213.455 236.774 213.554 236.6 213.6C236.448 213.653 236.285 213.662 236.128 213.626C235.972 213.59 235.829 213.51 235.716 213.396C235.603 213.282 235.525 213.138 235.49 212.981C235.455 212.825 235.466 212.661 235.52 212.51C235.69 212.06 236 212 236.05 212.1Z" fill="#263238"/>
<path d="M238.47 211.08C238.47 211.15 238.32 211.28 238.31 211.57C238.3 211.86 238.48 212.2 238.88 212.08C238.955 212.061 239.025 212.022 239.08 211.967C239.136 211.912 239.176 211.844 239.196 211.768C239.216 211.693 239.216 211.614 239.196 211.539C239.176 211.463 239.135 211.395 239.08 211.34C238.91 211.11 238.69 211.09 238.67 211.02C238.65 210.95 238.95 210.79 239.34 211.08C239.449 211.165 239.537 211.274 239.596 211.399C239.655 211.524 239.684 211.662 239.68 211.8C239.66 211.981 239.588 212.152 239.471 212.291C239.355 212.431 239.199 212.533 239.025 212.584C238.851 212.635 238.665 212.634 238.491 212.58C238.318 212.526 238.164 212.421 238.05 212.28C237.973 212.163 237.924 212.03 237.906 211.892C237.889 211.753 237.904 211.612 237.95 211.48C238.12 211 238.47 211 238.47 211.08Z" fill="#263238"/>
<path d="M292.63 204.3C292.562 204.096 292.518 203.885 292.5 203.67C292.43 203.19 292.33 202.58 292.22 201.82C291.99 200.15 291.68 197.82 291.3 195.03C290.56 189.23 289.56 181.32 288.45 172.59C288.3 171.35 288.15 170.13 288 168.92V168.86V168.8C288.76 166.87 289.5 165 290.2 163.21V163.4C289.44 161.67 288.71 160.01 288.03 158.4V158.33V158.25C289.37 153.44 290.49 149.39 291.29 146.47C291.69 145.09 292.01 143.99 292.24 143.17C292.339 142.774 292.469 142.386 292.63 142.01C292.577 142.413 292.494 142.811 292.38 143.2C292.18 144.03 291.9 145.15 291.55 146.54C290.79 149.47 289.73 153.54 288.48 158.37V158.22L290.69 163.16V163.25V163.35L288.5 169V168.87C288.65 170.07 288.8 171.3 288.96 172.54C289.96 181.28 290.96 189.19 291.65 194.99C291.97 197.82 292.23 200.13 292.41 201.81L292.59 203.66C292.629 203.871 292.643 204.086 292.63 204.3Z" fill="#263238"/>
<path d="M285.39 216.19C285.341 216.03 285.307 215.866 285.29 215.7C285.24 215.32 285.17 214.85 285.09 214.29C284.93 212.98 284.72 211.22 284.45 209.08C283.92 204.68 283.17 198.61 282.27 191.91C281.37 185.21 280.49 179.15 279.85 174.77C279.54 172.64 279.28 170.88 279.09 169.58C279.02 169.01 278.96 168.58 278.91 168.16C278.884 167.995 278.884 167.826 278.91 167.66C278.969 167.815 279.013 167.976 279.04 168.14C279.12 168.52 279.21 168.98 279.32 169.54C279.55 170.76 279.87 172.54 280.24 174.71C280.98 179.08 281.92 185.13 282.82 191.84C283.72 198.55 284.41 204.63 284.82 209.04C285.04 211.24 285.2 213.04 285.3 214.26C285.3 214.83 285.37 215.26 285.39 215.69C285.416 215.856 285.416 216.025 285.39 216.19Z" fill="#263238"/>
<path d="M281.24 253C281.432 253.309 281.664 253.592 281.93 253.84C282.311 254.147 282.756 254.362 283.233 254.469C283.71 254.577 284.205 254.574 284.68 254.46C285.375 254.242 286.009 253.863 286.53 253.354C287.051 252.845 287.445 252.22 287.68 251.53C288.229 249.79 288.513 247.976 288.52 246.15C288.736 244.342 288.549 242.507 287.97 240.78C287.331 239.442 286.398 238.266 285.24 237.34C284.457 236.67 283.759 235.908 283.16 235.07C282.926 234.776 282.759 234.435 282.67 234.07C282.67 234.07 282.88 234.41 283.32 234.97C283.973 235.745 284.7 236.455 285.49 237.09C286.732 238.016 287.733 239.227 288.41 240.62C289.051 242.406 289.266 244.317 289.04 246.2C289.031 248.08 288.724 249.947 288.13 251.73C287.859 252.475 287.414 253.144 286.834 253.683C286.253 254.222 285.552 254.615 284.79 254.83C284.261 254.953 283.71 254.943 283.186 254.8C282.662 254.657 282.183 254.385 281.79 254.01C281.587 253.808 281.421 253.571 281.3 253.31C281.24 253.08 281.22 253 281.24 253Z" fill="#263238"/>
<path d="M270.06 214.14C270.06 214.14 271.06 202.67 280.14 201.61C280.14 201.61 280.31 211 270.06 214.14Z" fill="#263238"/>
<path d="M318.74 257.09L345.19 274.39L348.19 272L349.6 233.23L324.41 214.14L320.95 215.33L318.74 257.09Z" fill="#DEBA01"/>
<path d="M324.12 214.69L325.15 256.65H319.59L321.45 215.52L324.12 214.69Z" fill="#E0E0E0"/>
<path d="M332.44 266.29C332.687 266.883 333.103 267.389 333.637 267.745C334.171 268.101 334.798 268.29 335.44 268.29C335.488 268.304 335.533 268.328 335.571 268.361C335.609 268.394 335.64 268.434 335.66 268.48C335.908 268.935 336.27 269.318 336.71 269.591C337.149 269.864 337.653 270.019 338.17 270.04C339.175 270.039 340.159 269.755 341.01 269.22C342.39 268.38 344.85 262.86 344.85 262.86L350.68 249.86L340.88 247.21L328.42 251.09C328.42 251.32 325.5 263.09 325.5 263.09C326.21 263.259 326.957 263.163 327.601 262.821C328.245 262.478 328.743 261.913 329 261.23C329.633 259.806 330.368 258.429 331.2 257.11L332.13 262.42L328.58 263.63C328.465 264.188 328.556 264.769 328.835 265.265C329.114 265.761 329.564 266.139 330.1 266.33L332.44 266.29Z" fill="#FFBE9D"/>
<path d="M336.84 175.06L353.17 205.12L339.88 244.57L354.65 252.9L373.44 209C374.127 207.39 374.467 205.653 374.44 203.903C374.412 202.153 374.017 200.428 373.28 198.84L350.28 149.35L336.84 175.06Z" fill="#455A64"/>
<path d="M339.88 244.57L338.5 247.63L352.44 255.15L353.9 252.47L339.88 244.57Z" fill="#E0E0E0"/>
<path d="M339.88 244.57C339.88 244.57 339.88 244.5 339.88 244.37C339.88 244.24 339.98 244.03 340.05 243.79L340.76 241.56C341.41 239.56 342.33 236.77 343.47 233.27C345.83 226.19 349.12 216.33 352.88 205.04V205.25C350.98 202.02 349.02 198.61 347.05 195.09C343.45 188.66 340.15 182.46 337.32 176.73C335.92 173.86 334.62 171.12 333.52 168.49C332.439 166.043 331.972 163.369 332.16 160.7C332.248 158.506 332.74 156.346 333.61 154.33C334.298 152.818 335.28 151.458 336.5 150.33C337.266 149.617 338.145 149.036 339.1 148.61C339.421 148.457 339.756 148.333 340.1 148.24C338.814 148.77 337.635 149.529 336.62 150.48C335.441 151.615 334.503 152.975 333.86 154.48C333.032 156.471 332.571 158.595 332.5 160.75C332.347 163.358 332.824 165.965 333.89 168.35C335.01 170.96 336.32 173.69 337.73 176.55C340.57 182.26 343.89 188.44 347.49 194.86C349.49 198.38 351.4 201.79 353.29 205.02L353.35 205.12V205.23C349.51 216.5 346.17 226.34 343.76 233.4L341 241.62C340.66 242.55 340.4 243.28 340.21 243.82L339.99 244.39C339.958 244.453 339.922 244.513 339.88 244.57V244.57Z" fill="#263238"/>
<path d="M364.21 204.84C363.661 204.688 363.123 204.498 362.6 204.27C360.011 203.411 357.2 203.5 354.67 204.52C354.164 204.781 353.639 205.005 353.1 205.19C353.49 204.752 353.976 204.41 354.52 204.19C355.792 203.568 357.184 203.227 358.6 203.19C360.016 203.141 361.425 203.4 362.73 203.95C363.285 204.13 363.791 204.435 364.21 204.84V204.84Z" fill="#263238"/>
<path d="M333.57 167.91L345.3 207.17L346.96 194.26L333.57 167.91Z" fill="#263238"/>
<path d="M353 245.05C353 245.12 352.85 245.25 352.84 245.54C352.83 245.83 353.01 246.17 353.41 246.05C353.486 246.031 353.555 245.992 353.61 245.937C353.666 245.882 353.706 245.814 353.726 245.738C353.747 245.663 353.747 245.584 353.726 245.508C353.706 245.433 353.666 245.365 353.61 245.31C353.44 245.08 353.22 245.06 353.21 244.99C353.2 244.92 353.48 244.77 353.87 245.05C353.981 245.136 354.069 245.247 354.129 245.374C354.188 245.501 354.216 245.64 354.21 245.78C354.192 245.96 354.119 246.131 354.001 246.268C353.883 246.406 353.726 246.504 353.55 246.55C353.374 246.615 353.181 246.621 353 246.567C352.82 246.513 352.662 246.401 352.55 246.25C352.473 246.135 352.424 246.004 352.407 245.867C352.39 245.73 352.404 245.59 352.45 245.46C352.6 245 353 245 353 245.05Z" fill="#263238"/>
<path d="M354.13 242.22C354.13 242.29 353.98 242.42 353.97 242.72C353.957 242.796 353.963 242.874 353.988 242.946C354.013 243.019 354.056 243.084 354.113 243.135C354.171 243.186 354.24 243.222 354.315 243.239C354.39 243.255 354.468 243.253 354.542 243.231C354.616 243.209 354.682 243.168 354.736 243.113C354.789 243.058 354.828 242.99 354.848 242.916C354.868 242.842 354.868 242.764 354.849 242.689C354.831 242.615 354.793 242.546 354.74 242.49C354.57 242.25 354.34 242.24 354.33 242.16C354.32 242.08 354.61 241.94 355 242.22C355.11 242.307 355.197 242.418 355.256 242.545C355.315 242.672 355.344 242.811 355.34 242.95C355.336 243.079 355.305 243.204 355.248 243.319C355.19 243.434 355.109 243.535 355.009 243.616C354.909 243.697 354.793 243.755 354.669 243.786C354.545 243.818 354.415 243.822 354.289 243.798C354.163 243.775 354.043 243.725 353.938 243.651C353.833 243.577 353.745 243.481 353.681 243.37C353.617 243.259 353.577 243.136 353.565 243.008C353.552 242.88 353.568 242.751 353.61 242.63C353.78 242.18 354.13 242.15 354.13 242.22Z" fill="#263238"/>
<path d="M370.18 192.21C368.43 193.13 367.82 195.71 368.02 197.68C368.22 199.65 368.95 201.56 368.9 203.53C368.77 204.939 368.519 206.334 368.15 207.7C367.774 209.071 367.815 210.523 368.27 211.87C368.513 212.536 368.969 213.102 369.568 213.481C370.167 213.859 370.875 214.028 371.58 213.96L372.97 211.16C374.053 208.969 374.6 206.551 374.565 204.106C374.53 201.662 373.915 199.261 372.77 197.1L370.18 192.21Z" fill="#263238"/>
<path d="M455.8 403.3C456.7 400.19 458.63 397.17 461.6 395.89C464.57 394.61 468.29 395.31 471.46 396.47C474.63 397.63 477.75 399.16 481.12 399.37C484.49 399.58 488.28 397.98 489.29 394.76C490.24 391.76 488.42 388.5 486.13 386.3C483.711 383.988 480.751 382.319 477.521 381.447C474.29 380.575 470.893 380.527 467.639 381.308C464.385 382.089 461.38 383.674 458.897 385.918C456.415 388.161 454.535 390.992 453.43 394.15" fill="#83CC5E"/>
<g opacity="0.5">
<path opacity="0.5" d="M455.8 403.3C456.7 400.19 458.63 397.17 461.6 395.89C464.57 394.61 468.29 395.31 471.46 396.47C474.63 397.63 477.75 399.16 481.12 399.37C484.49 399.58 488.28 397.98 489.29 394.76C490.24 391.76 488.42 388.5 486.13 386.3C483.711 383.988 480.751 382.319 477.521 381.447C474.29 380.575 470.893 380.527 467.639 381.308C464.385 382.089 461.38 383.674 458.897 385.918C456.415 388.161 454.535 390.992 453.43 394.15" fill="black"/>
</g>
<path d="M429.12 416.83C424.18 412.14 424.43 403.97 426.89 397.61C429.35 391.25 434.73 386.38 440.74 383.17C446.608 380.084 453.1 378.369 459.727 378.154C466.354 377.939 472.944 379.23 479 381.93C476.036 382.056 473.147 382.907 470.588 384.408C468.029 385.909 465.877 388.015 464.32 390.54C461.62 395.04 461.01 400.54 458.78 405.24C456.258 410.595 451.78 414.781 446.267 416.936C440.754 419.092 434.625 419.054 429.14 416.83" fill="#83CC5E"/>
<path d="M426.74 388.63C421.27 382.17 420.55 371.81 421.35 363.38C422.15 354.95 424.11 346.48 422.78 338.12C421.99 333.17 420.07 328.45 419.42 323.47C418.77 318.49 419.69 312.88 423.55 309.67C427.97 305.98 434.95 306.85 439.55 310.32C444.15 313.79 446.83 319.22 448.78 324.64C453.06 336.56 454.63 349.77 451.11 361.93C447.59 374.09 439.34 384.93 427.22 388.63" fill="#83CC5E"/>
<path d="M424.12 441.61C424.099 441.364 424.099 441.116 424.12 440.87C424.12 440.38 424.12 439.66 424.12 438.73C424.19 436.88 424.37 434.2 424.78 430.91C425.27 427.058 425.971 423.235 426.88 419.46C428.018 414.825 429.778 410.364 432.11 406.2C434.454 402.042 437.324 398.204 440.65 394.78C443.361 391.989 446.361 389.495 449.6 387.34C450.97 386.39 452.29 385.68 453.43 385.01C454.57 384.34 455.61 383.9 456.43 383.49L458.43 382.67C458.651 382.56 458.882 382.473 459.12 382.41C458.909 382.54 458.688 382.654 458.46 382.75L456.53 383.65C455.71 384.08 454.71 384.65 453.53 385.23C452.35 385.81 451.11 386.65 449.76 387.6C442.635 392.468 436.724 398.907 432.48 406.42C427.48 415.22 426.08 424.47 425.08 430.95C424.63 434.23 424.4 436.9 424.27 438.74L424.15 440.87C424.157 441.117 424.147 441.364 424.12 441.61V441.61Z" fill="#263238"/>
<path d="M376.94 363.16C366.82 369.27 366.85 374.82 368.54 380.07C370.23 385.32 376.44 388.96 381.54 387C384.45 385.89 386.54 383.36 388.36 380.81C390.18 378.26 391.85 375.55 394.36 373.72C396.87 371.89 400.54 371.2 403.08 373.01" fill="#83CC5E"/>
<g opacity="0.5">
<path opacity="0.5" d="M376.94 363.16C366.82 369.27 366.85 374.82 368.54 380.07C370.23 385.32 376.44 388.96 381.54 387C384.45 385.89 386.54 383.36 388.36 380.81C390.18 378.26 391.85 375.55 394.36 373.72C396.87 371.89 400.54 371.2 403.08 373.01" fill="black"/>
</g>
<path d="M369.36 369.85C372.01 366.2 378.54 365.14 382.67 366.96C386.8 368.78 389.82 372.41 392.53 376.02C395.24 379.63 397.87 383.44 401.62 385.96C405.37 388.48 410.62 389.38 414.34 386.85C415.533 385.962 416.533 384.84 417.277 383.552C418.022 382.264 418.496 380.837 418.67 379.36C418.995 376.408 418.792 373.421 418.07 370.54C417.18 366.3 415.72 361.86 412.32 359.17C408.54 356.17 403.32 356.02 398.45 356.17C392.91 356.35 387.28 356.76 382.08 358.68C376.88 360.6 371.57 364.76 369.36 369.84" fill="#83CC5E"/>
<path d="M415.71 433.51C415.698 433.434 415.698 433.356 415.71 433.28V432.63C415.71 432.02 415.71 431.18 415.62 430.12C415.55 427.9 415.46 424.75 415.35 420.88C415.24 417.01 415.07 412.34 414.79 407.19C414.51 402.04 414.12 396.38 413.34 390.49C412.991 387.618 412.409 384.778 411.6 382C410.057 377.111 407.689 372.522 404.6 368.43C403.298 366.757 401.867 365.189 400.32 363.74C398.064 361.657 395.513 359.918 392.75 358.58C392.26 358.35 391.82 358.13 391.44 357.97L390.44 357.59L389.83 357.34L389.63 357.25L389.85 357.3L390.47 357.5L391.47 357.85C391.86 357.99 392.3 358.2 392.8 358.42C395.618 359.712 398.222 361.429 400.52 363.51C402.098 364.95 403.553 366.518 404.87 368.2C406.38 370.14 407.718 372.208 408.87 374.38C410.152 376.774 411.209 379.281 412.03 381.87C412.826 384.669 413.395 387.529 413.73 390.42C414.51 396.33 414.88 402 415.15 407.16C415.42 412.32 415.53 416.96 415.61 420.86C415.69 424.76 415.72 427.92 415.73 430.1C415.73 431.17 415.73 432.01 415.73 432.62C415.73 432.88 415.73 433.1 415.73 433.27C415.73 433.44 415.71 433.51 415.71 433.51Z" fill="#263238"/>
<path d="M419.35 438.08C418.866 436.662 418.495 435.207 418.24 433.73C417.539 429.7 417.384 425.593 417.78 421.52C418.398 415.492 419.689 409.551 421.63 403.81C423.71 397.29 426.53 390.33 428.94 382.81C430.125 379.173 431.097 375.471 431.85 371.72C432.516 368.222 432.994 364.69 433.28 361.14C433.744 355.119 433.851 349.075 433.6 343.04C433.43 337.89 433.15 333.72 432.98 330.84C432.9 329.42 432.83 328.31 432.79 327.52C432.79 327.16 432.79 326.88 432.79 326.66C432.777 326.561 432.777 326.46 432.79 326.36C432.8 326.457 432.8 326.554 432.79 326.65C432.79 326.87 432.79 327.16 432.88 327.52C432.95 328.3 433.04 329.41 433.16 330.83C433.38 333.7 433.71 337.83 433.92 343.03C434.214 349.076 434.14 355.134 433.7 361.17C433.417 364.737 432.943 368.285 432.28 371.8C431.541 375.59 430.569 379.33 429.37 383C426.95 390.51 424.12 397.47 422.03 403.95C420.079 409.662 418.761 415.571 418.1 421.57C417.679 425.617 417.783 429.701 418.41 433.72C418.66 435.14 418.89 436.24 419.09 436.97C419.17 437.32 419.24 437.6 419.29 437.81C419.322 437.897 419.342 437.988 419.35 438.08V438.08Z" fill="#263238"/>
<path d="M444.44 442.65H396.92L395.83 433.5H444.44V442.65Z" fill="#455A64"/>
<path d="M402.02 441.61L407.96 469.05H433.78L439.34 441.61H402.02Z" fill="#455A64"/>
<path d="M444.44 442.65C444.44 442.78 433.99 442.85 421.11 442.81C408.23 442.77 397.77 442.65 397.77 442.52C397.77 442.39 408.22 442.32 421.11 442.36C434 442.4 444.44 442.53 444.44 442.65Z" fill="#455A64"/>
<path d="M436.28 456.2C434.994 455.226 433.589 454.42 432.1 453.8C430.476 453.167 428.752 452.829 427.01 452.8C424.872 452.801 422.751 453.188 420.75 453.94C418.59 454.68 416.56 455.53 414.59 456C412.84 456.372 411.038 456.426 409.27 456.16C408.079 455.987 406.924 455.622 405.85 455.08C405.565 454.922 405.291 454.745 405.03 454.55C404.85 454.42 404.76 454.34 404.77 454.33C404.78 454.32 405.17 454.56 405.93 454.92C407.009 455.389 408.151 455.699 409.32 455.84C411.048 456.063 412.801 455.978 414.5 455.59C416.4 455.12 418.43 454.25 420.61 453.51C422.658 452.741 424.832 452.358 427.02 452.38C428.808 452.438 430.571 452.824 432.22 453.52C433.331 453.979 434.374 454.588 435.32 455.33C435.574 455.527 435.818 455.737 436.05 455.96C436.22 456.1 436.29 456.18 436.28 456.2Z" fill="#263238"/>
<path d="M435.92 458C434.682 457.06 433.34 456.264 431.92 455.63C430.362 454.998 428.701 454.659 427.02 454.63C424.952 454.639 422.901 455.008 420.96 455.72C418.87 456.42 416.91 457.23 415.03 457.72C413.368 458.2 411.637 458.393 409.91 458.29C408.744 458.221 407.604 457.915 406.56 457.39C406.28 457.246 406.013 457.078 405.76 456.89C405.59 456.76 405.5 456.68 405.51 456.67C405.52 456.66 405.91 456.9 406.64 457.23C407.68 457.682 408.797 457.933 409.93 457.97C411.621 458.024 413.31 457.801 414.93 457.31C416.76 456.8 418.71 455.98 420.83 455.31C422.819 454.582 424.922 454.216 427.04 454.23C428.765 454.285 430.462 454.672 432.04 455.37C433.113 455.836 434.121 456.437 435.04 457.16C435.36 457.42 435.59 457.63 435.74 457.78C435.89 457.93 435.93 458 435.92 458Z" fill="white"/>
<path d="M436.75 454.38C435.423 453.371 433.983 452.519 432.46 451.84C430.804 451.13 429.038 450.708 427.24 450.59C425.033 450.547 422.839 450.934 420.78 451.73C418.699 452.547 416.572 453.241 414.41 453.81C412.59 454.121 410.73 454.121 408.91 453.81C407.684 453.617 406.493 453.239 405.38 452.69C405.079 452.537 404.792 452.36 404.52 452.16C404.34 452.02 404.25 451.94 404.26 451.93C404.27 451.92 404.67 452.18 405.46 452.53C406.576 453.02 407.753 453.357 408.96 453.53C410.743 453.794 412.558 453.76 414.33 453.43C416.469 452.842 418.575 452.141 420.64 451.33C422.752 450.512 425.007 450.127 427.27 450.2C430.359 450.451 433.308 451.594 435.76 453.49C436.025 453.696 436.279 453.916 436.52 454.15C436.68 454.28 436.77 454.37 436.75 454.38Z" fill="white"/>
<path d="M444.86 442.69C444.86 442.82 434.17 442.92 420.99 442.92C407.81 442.92 397.11 442.82 397.11 442.69C397.11 442.56 407.8 442.47 420.99 442.47C434.18 442.47 444.86 442.57 444.86 442.69Z" fill="#263238"/>
<path d="M81.71 432.25C83.42 434.69 86.71 433.88 88.29 432.39C89.87 430.9 90.48 428.75 91.07 426.69C92.42 421.98 93.79 417.04 92.78 412.25C92.5387 410.799 91.902 409.443 90.94 408.33C90.4558 407.785 89.8377 407.375 89.1466 407.142C88.4556 406.909 87.7157 406.86 87 407C85.32 407.44 84.28 409.08 83.53 410.64C81.3149 415.25 80.1535 420.296 80.13 425.41C79.9692 427.797 80.5302 430.177 81.74 432.24" fill="#83CC5E"/>
<g opacity="0.2">
<path opacity="0.2" d="M81.71 432.25C83.42 434.69 86.71 433.88 88.29 432.39C89.87 430.9 90.48 428.75 91.07 426.69C92.42 421.98 93.79 417.04 92.78 412.25C92.5387 410.799 91.902 409.443 90.94 408.33C90.4558 407.785 89.8377 407.375 89.1466 407.142C88.4556 406.909 87.7157 406.86 87 407C85.32 407.44 84.28 409.08 83.53 410.64C81.3149 415.25 80.1535 420.296 80.13 425.41C79.9692 427.797 80.5302 430.177 81.74 432.24" fill="black"/>
</g>
<path d="M88.12 444.61C90.9853 443.265 94.2069 442.876 97.31 443.5C99.0037 443.643 100.601 444.347 101.85 445.5C102.98 446.76 103.2 448.96 101.85 450.04C101.01 450.607 99.9982 450.861 98.99 450.76C96.56 450.76 93.87 450.31 91.93 451.76C90.82 452.59 90.08 453.98 88.76 454.39C88.0969 454.542 87.4024 454.475 86.7805 454.199C86.1586 453.923 85.6427 453.453 85.31 452.86C84.6856 451.64 84.5498 450.227 84.93 448.91C85.0925 447.995 85.4652 447.131 86.0188 446.385C86.5724 445.638 87.2917 445.031 88.12 444.61V444.61Z" fill="#83CC5E"/>
<path d="M76.9999 435.75C77.8791 434.605 78.4646 433.261 78.7051 431.837C78.9457 430.413 78.834 428.951 78.3799 427.58C77.4437 424.845 75.7685 422.422 73.5399 420.58C71.0112 418.325 68.0659 416.586 64.8699 415.46C63.6334 414.959 62.3025 414.734 60.9699 414.8C60.3032 414.842 59.6567 415.046 59.0868 415.395C58.5169 415.743 58.0408 416.226 57.6999 416.8C56.7899 418.54 57.6999 420.65 58.6099 422.37C60.2835 425.393 62.1927 428.278 64.3199 431C66.0299 433.2 67.9899 435.37 70.5899 436.37C73.1899 437.37 75.8899 437.25 77.2699 435.44" fill="#83CC5E"/>
<path d="M81.6 469.08C81.6853 468.716 81.7356 468.344 81.75 467.97C81.83 467.16 81.93 466.14 82.05 464.97C82.1971 463.479 82.4241 461.997 82.73 460.53C83.1236 458.743 83.662 456.99 84.34 455.29C84.9951 453.582 85.8908 451.975 87 450.52C87.9032 449.341 89.0579 448.377 90.38 447.7C91.2769 447.257 92.2391 446.959 93.23 446.82C93.6041 446.8 93.9755 446.746 94.34 446.66C93.9648 446.613 93.5852 446.613 93.21 446.66C92.172 446.735 91.1559 446.996 90.21 447.43C88.8171 448.089 87.5953 449.061 86.64 450.27C85.482 451.737 84.5484 453.368 83.87 455.11C83.1808 456.833 82.6453 458.613 82.27 460.43C81.9809 461.917 81.7838 463.419 81.68 464.93C81.58 466.21 81.54 467.26 81.53 467.93C81.5111 468.315 81.5346 468.701 81.6 469.08V469.08Z" fill="#263238"/>
<path d="M81.81 466.75C81.8229 466.577 81.8229 466.404 81.81 466.23C81.81 465.84 81.81 465.36 81.81 464.76C81.81 463.48 81.81 461.63 81.88 459.35C81.99 454.79 82.38 448.48 83.14 441.56C83.9 434.64 84.92 428.4 85.85 423.93C86.06 422.8 86.28 421.8 86.49 420.93C86.7 420.06 86.86 419.28 87.02 418.67L87.36 417.24C87.4167 417.076 87.4471 416.904 87.45 416.73C87.3776 416.884 87.3206 417.045 87.28 417.21C87.16 417.58 87.02 418.05 86.85 418.62C86.68 419.19 86.46 419.99 86.24 420.87C86.02 421.75 85.77 422.76 85.53 423.87C84.2686 429.699 83.3205 435.591 82.69 441.52C81.93 448.46 81.59 454.78 81.55 459.36C81.55 461.64 81.55 463.5 81.63 464.77C81.67 465.37 81.7 465.86 81.72 466.24C81.7278 466.414 81.7581 466.585 81.81 466.75Z" fill="#263238"/>
<path d="M81.84 454.56C81.8749 454.048 81.8749 453.533 81.84 453.02C81.78 452.02 81.64 450.6 81.37 448.85C81.0255 446.803 80.5681 444.777 80 442.78C79.329 440.329 78.4801 437.929 77.46 435.6C75.6987 431.313 73.1708 427.382 70 424C69.4535 423.419 68.8688 422.874 68.25 422.37C67.98 422.14 67.74 421.91 67.5 421.73L66.82 421.27C66.4109 420.958 65.976 420.68 65.52 420.44C67.0153 421.609 68.4348 422.872 69.77 424.22C72.8235 427.636 75.269 431.549 77 435.79C78.0079 438.102 78.863 440.477 79.56 442.9C80.22 445.13 80.66 447.18 81 448.9C81.34 450.62 81.5 452.04 81.61 453.02C81.6465 453.539 81.7234 454.054 81.84 454.56V454.56Z" fill="#263238"/>
<path d="M229.29 50.41C229.459 50.3923 229.63 50.3923 229.8 50.41H231.3C232.111 50.4252 232.92 50.5021 233.72 50.64C234.2 50.72 234.72 50.77 235.26 50.88L236.99 51.31C239.948 52.0873 242.758 53.344 245.31 55.03C251.464 59.1231 255.818 65.4173 257.477 72.62C259.136 79.8227 257.974 87.3872 254.23 93.76C251.025 99.1867 246.148 103.429 240.33 105.85C237.266 107.117 234.003 107.835 230.69 107.97C227.281 108.181 223.863 107.757 220.61 106.72L220.31 106.62H220.54L203.69 112.46L203.01 112.7L203.22 112L207.6 98L207.67 98.34C204.673 94.9876 202.502 90.9814 201.328 86.6409C200.154 82.3004 200.011 77.7457 200.91 73.34C201.656 69.6379 203.135 66.1224 205.26 63C207.072 60.3065 209.327 57.9397 211.93 56C214.008 54.3967 216.318 53.1187 218.78 52.21C219.755 51.8063 220.757 51.4721 221.78 51.21C222.633 50.9693 223.502 50.7889 224.38 50.67C225.17 50.56 225.87 50.44 226.47 50.39L228.01 50.34H229C229.106 50.3229 229.214 50.3229 229.32 50.34C229.215 50.3649 229.108 50.3816 229 50.39L228.07 50.46L226.55 50.57C225.95 50.64 225.26 50.77 224.48 50.9C223.614 51.0367 222.758 51.2339 221.92 51.49C220.897 51.7504 219.894 52.0846 218.92 52.49C217.796 52.9458 216.697 53.4633 215.63 54.04C214.439 54.7171 213.296 55.4755 212.21 56.31C209.677 58.2393 207.481 60.5742 205.71 63.22C203.643 66.3094 202.215 69.7808 201.51 73.43C200.659 77.7334 200.821 82.1759 201.984 86.4058C203.147 90.6356 205.278 94.5367 208.21 97.8L208.35 97.95L208.29 98.14C206.896 102.64 205.447 107.307 203.94 112.14L203.47 111.69L220.3 106H220.42H220.54L220.83 106.09C224 107.097 227.329 107.511 230.65 107.31C233.879 107.179 237.06 106.485 240.05 105.26C245.731 102.905 250.498 98.7764 253.64 93.49C257.3 87.2511 258.452 79.8537 256.86 72.7973C255.269 65.741 251.054 59.5538 245.07 55.49C242.567 53.8067 239.813 52.5309 236.91 51.71L235.21 51.25C234.67 51.13 234.16 51.07 233.69 50.98C232.899 50.8193 232.096 50.719 231.29 50.68L229.8 50.56C229.626 50.5237 229.456 50.4735 229.29 50.41V50.41Z" fill="#484E62"/>
<path d="M212.35 81.1502L216.78 76.7102L225.33 84.3102L242.12 68.1602L246.23 72.6002L224.7 92.8602L212.35 81.1502Z" fill="#484E62"/>
</svg>
