<svg id="Layer_1" data-name="Layer 1" xmlns="http://www.w3.org/2000/svg" viewBox="0 0 260.59 126.89"><defs><style>.cls-1{fill:#4ebfb4;}.cls-2{fill:#d0ebe8;}.cls-3{fill:#fff;}</style></defs><path class="cls-1" d="M221.44,126.13,15.52,69.86A21.07,21.07,0,0,1,.27,46.19L4.84,17.73A21.07,21.07,0,0,1,25.65,0H239.51a21.08,21.08,0,0,1,20.85,24.16l-12.52,84.72A21.07,21.07,0,0,1,221.44,126.13Z"/><path class="cls-2" d="M196.94,58.26h8.72L192.12,85.15c-3.26,6.62-6.14,9.4-11.54,9.4A10.82,10.82,0,0,1,175,93l2.72-6.19a5.9,5.9,0,0,0,2.49.59c1.6,0,3-.88,4.33-3.56l.25-.49-5.41-25.08h7.84l2.58,16.32Z"/><path class="cls-2" d="M203.18,71.7c0-8.08,5.26-13.93,12.37-13.93a9.71,9.71,0,0,1,7.79,3.66l.49-3.17h7.89l-3.8,24.11h-7.69l.34-2.39a10.29,10.29,0,0,1-7.31,2.88C207.42,82.86,203.18,78.33,203.18,71.7ZM222,69.8c0-3.16-2-5.31-5-5.31a6.11,6.11,0,0,0-6,6.38c0,3.17,2,5.31,5.12,5.31C219.5,76.18,222,73.55,222,69.8Z"/><path class="cls-2" d="M232.31,78.86a5,5,0,0,1,5-4.87,4.15,4.15,0,0,1,4.19,4.29,4.93,4.93,0,0,1-5,5A4.15,4.15,0,0,1,232.31,78.86Zm2.19-7.74,3.07-22.85h8.23l-4.09,22.85Z"/><path class="cls-3" d="M18.06,38.62c0-10.18,7.36-19.14,19.1-19.14a16.05,16.05,0,0,1,14.47,8.38l-6.48,4.48a9.45,9.45,0,0,0-8.58-5.12c-6.38,0-10.32,5.51-10.32,10.87a8.9,8.9,0,0,0,9.2,9.2,10.38,10.38,0,0,0,8.24-3.89l5.69,5C46,52.65,41.25,55,34.82,55,25.32,55,18.06,48,18.06,38.62Z"/><path class="cls-3" d="M50.26,54.31l5.8-36.54H64l-1.56,10-.88,5a11.12,11.12,0,0,1,7.8-3c6.28,0,9.49,4.77,8.33,12.18l-2,12.42H67.75l1.9-12c.58-3.5-.88-5.94-4.05-5.94-2.77,0-4.92,1.95-5.45,5.51l-2,12.42Z"/><path class="cls-3" d="M79.73,43.64c0-8.09,5.26-13.93,12.37-13.93a9.77,9.77,0,0,1,7.8,3.65l.48-3.16h7.89l-3.8,24.11H96.78l.34-2.39a10.27,10.27,0,0,1-7.31,2.87C84,54.79,79.73,50.26,79.73,43.64Zm18.8-1.9c0-3.17-2-5.31-5-5.31a6.11,6.11,0,0,0-6,6.38c0,3.17,2,5.31,5.12,5.31C96.05,48.12,98.53,45.49,98.53,41.74Z"/><path class="cls-3" d="M108.37,54.31l3.8-24.11h7.89l-.44,2.67a10.52,10.52,0,0,1,7.21-3.16c3.41,0,5.51,1.31,6.87,3.94a11.87,11.87,0,0,1,8.86-3.94c6.48,0,9.5,4.33,8.33,11.79l-2,12.81H141l2-12.62c.54-3.36-.73-5.31-3.26-5.31-2.68,0-4.73,2.1-5.26,5.31l-1.95,12.62h-7.74l2-12.62c.54-3.41-.78-5.31-3.31-5.31s-4.68,2-5.21,5.31l-2,12.62Z"/><path class="cls-3" d="M160.93,51.14l-.54,3.17H152.5l5.75-36.54h7.89L163.9,32.24a11,11,0,0,1,6.92-2.53c6.33,0,10.13,4.43,10.13,11.06s-4.24,14-12.42,14A9.09,9.09,0,0,1,160.93,51.14Zm12.18-9.55c0-3.11-2.05-5.31-5-5.31-3.12,0-5.85,2.68-5.85,6.53a4.83,4.83,0,0,0,5,5A6,6,0,0,0,173.11,41.59Z"/><path class="cls-3" d="M206.86,41a15.39,15.39,0,0,1-.58,3.8H189.67c.73,2.87,2.92,3.94,5.35,3.94a6.47,6.47,0,0,0,4.73-1.85l4.38,4c-2.29,2.72-5.65,4-9.64,4-6.77,0-12.37-4.34-12.37-11.84,0-7.16,4.92-13.54,13.29-13.54C201.89,29.56,206.86,33.75,206.86,41Zm-7.11-1a4.55,4.55,0,0,0-4.63-4.19,5.4,5.4,0,0,0-5.31,4.19Z"/><path class="cls-3" d="M207.74,43.64c0-8.09,5.26-13.93,12.37-13.93a9.73,9.73,0,0,1,7.79,3.65l.49-3.16h7.89l-3.8,24.11h-7.7l.35-2.39a10.29,10.29,0,0,1-7.31,2.87C212,54.79,207.74,50.26,207.74,43.64Zm18.8-1.9c0-3.17-2-5.31-5-5.31a6.11,6.11,0,0,0-6,6.38c0,3.17,2,5.31,5.11,5.31C224.05,48.12,226.54,45.49,226.54,41.74Z"/><path class="cls-2" d="M154,85.52a3,3,0,0,0-.33-1.47A3.49,3.49,0,0,0,155,81.21a3.07,3.07,0,0,0-.43-1.6,3.49,3.49,0,0,0,1.28-2.7,4.38,4.38,0,0,0-.1-.8h8a3.55,3.55,0,0,0,0-7.09H148.94l2.6-1.7a3.07,3.07,0,0,0,1.37-2.22,3.69,3.69,0,0,0-.57-2.55A3.83,3.83,0,0,0,150.22,61a3.19,3.19,0,0,0-2.55.37c-.1,0-10.73,7.09-12.53,8.32a9.36,9.36,0,0,0-3.78,7.38V79.8a9,9,0,0,0,8.93,9.07h10.12A3.35,3.35,0,0,0,154,85.52Zm-13.52,1.37h-.18a7.09,7.09,0,0,1-6.95-7.09V77.06a7.43,7.43,0,0,1,2.93-5.72c1.79-1.23,12.43-8.23,12.52-8.27a1.14,1.14,0,0,1,.95-.15,1.53,1.53,0,0,1,.94.71,1.74,1.74,0,0,1,.29.95v.23a1.18,1.18,0,0,1-.48.81L145,69.21a1.06,1.06,0,0,0-.43,1.13,1,1,0,0,0,1,.71h18.24a1.52,1.52,0,0,1,0,3H149.37a1,1,0,0,0-1,1,1,1,0,0,0,1,1h4.3a1.62,1.62,0,0,1,.23.81,1.48,1.48,0,0,1-.94,1.37h-3.83a1,1,0,0,0-1,1,1,1,0,0,0,1,1h3.59a1.63,1.63,0,0,1,.33.9,1.47,1.47,0,0,1-1,1.42h-3.35a1,1,0,1,0,0,2h3a1.43,1.43,0,0,1,.29.85,1.41,1.41,0,0,1-1.52,1.37h-10Z"/><path class="cls-2" d="M170,72.42a1,1,0,0,0,1,1h4.2a1,1,0,0,0,1-1,1,1,0,0,0-1-1H171A1,1,0,0,0,170,72.42Z"/><path class="cls-2" d="M168.22,66.75a1,1,0,0,0,0,1.42,1,1,0,0,0,1.42,0l3-3a1,1,0,0,0,0-1.42,1,1,0,0,0-1.42,0Z"/><path class="cls-2" d="M163,65.43a1,1,0,0,0,1,1,1,1,0,0,0,1-1V61.22a1,1,0,0,0-1-1,1,1,0,0,0-1,1Z"/><path class="cls-2" d="M164,78.38a1,1,0,0,0-1,1v4.21a1,1,0,0,0,1,1,1,1,0,0,0,1-1V79.37A1,1,0,0,0,164,78.38Z"/><path class="cls-2" d="M167.94,77.34a1.08,1.08,0,0,0,.28.71l3,3a1,1,0,0,0,1.42,0,1,1,0,0,0,0-1.42l-3-3a1,1,0,0,0-1.42,0,1.08,1.08,0,0,0-.28.71Z"/></svg>