<svg width="151" height="51" viewBox="0 0 151 51" fill="none" xmlns="http://www.w3.org/2000/svg">
<path d="M8.75223 30.5385C7.1319 30.5385 5.65069 30.1537 4.3086 29.3843C2.9747 28.6069 1.92312 27.544 1.15387 26.1955C0.384624 24.847 0 23.3557 0 21.7216C0 20.508 0.225046 19.3618 0.675137 18.283C1.13341 17.2042 1.75127 16.28 2.5287 15.5106C3.30613 14.7332 4.23495 14.1224 5.31517 13.6782C6.39539 13.2261 7.54108 13 8.75223 13C10.6999 13 12.4225 13.5434 13.9201 14.6301C15.4177 15.7089 16.3342 17.0891 16.6698 18.7708H14.583C14.2474 17.5889 13.5355 16.6291 12.4471 15.8913C11.3669 15.1457 10.1352 14.7729 8.75223 14.7729C7.50016 14.7729 6.35447 15.0783 5.31517 15.6891C4.27587 16.2919 3.45752 17.1288 2.86013 18.1997C2.26273 19.2626 1.96404 20.4366 1.96404 21.7216C1.96404 23.0225 2.26273 24.2124 2.86013 25.2912C3.45752 26.37 4.27587 27.2188 5.31517 27.8375C6.35447 28.4562 7.50016 28.7656 8.75223 28.7656C10.1762 28.7656 11.4282 28.3769 12.5085 27.5995C13.5969 26.8221 14.2965 25.8068 14.6075 24.5535H16.7189C16.3424 26.3303 15.4136 27.774 13.9324 28.8846C12.4594 29.9872 10.7326 30.5385 8.75223 30.5385Z" fill="white"/>
<path d="M25.7166 18.2116C27.296 18.2116 28.5481 18.6875 29.4728 19.6394C30.4057 20.5833 30.8722 21.8644 30.8722 23.4826V30.3005H29.0309V23.6492C29.0309 22.5149 28.6913 21.6066 28.0121 20.9244C27.341 20.2422 26.449 19.9012 25.3361 19.9012C24.1904 19.9012 23.2697 20.2462 22.5741 20.9363C21.8867 21.6185 21.543 22.5228 21.543 23.6492V30.3005H19.7017V13.238H21.543V20.7698C21.9358 19.9607 22.4923 19.334 23.2124 18.8898C23.9326 18.4376 24.7673 18.2116 25.7166 18.2116Z" fill="white"/>
<path d="M44.6941 18.4614H46.5354V30.3005H44.6941V27.5519C44.244 28.5038 43.5893 29.2415 42.7301 29.7651C41.879 30.2807 40.8765 30.5385 39.7226 30.5385C38.6179 30.5385 37.599 30.2648 36.6661 29.7175C35.7414 29.1701 35.0089 28.4205 34.4688 27.4686C33.9287 26.5168 33.6587 25.4776 33.6587 24.3512C33.6587 23.2248 33.9287 22.1896 34.4688 21.2457C35.0089 20.3017 35.7414 19.5601 36.6661 19.0207C37.599 18.4813 38.6179 18.2116 39.7226 18.2116C40.8765 18.2116 41.8831 18.4733 42.7423 18.9969C43.6016 19.5125 44.2522 20.2422 44.6941 21.1862V18.4614ZM40.0663 28.8608C41.4002 28.8608 42.505 28.4364 43.3806 27.5876C44.2563 26.7309 44.6941 25.6521 44.6941 24.3512C44.6941 23.0582 44.2563 21.9874 43.3806 21.1386C42.505 20.2898 41.4002 19.8655 40.0663 19.8655C38.7733 19.8655 37.6808 20.3017 36.7888 21.1743C35.905 22.0469 35.4631 23.1058 35.4631 24.3512C35.4631 25.6204 35.905 26.6913 36.7888 27.5638C37.6808 28.4285 38.7733 28.8608 40.0663 28.8608Z" fill="white"/>
<path d="M64.3099 18.2116C65.832 18.2116 67.0391 18.6597 67.9311 19.5561C68.8313 20.4445 69.2814 21.6621 69.2814 23.209V30.3005H67.4524V23.5302C67.4524 22.3959 67.1455 21.5075 66.5317 20.8649C65.9261 20.2224 65.0914 19.9012 64.0276 19.9012C63.5938 19.9012 63.1806 19.9686 62.7878 20.1034C62.395 20.2383 62.0267 20.4445 61.683 20.7222C61.3475 20.9998 61.0774 21.3805 60.8728 21.8644C60.6764 22.3483 60.5782 22.9036 60.5782 23.5302V30.3005H58.7492V23.5302C58.7492 22.3959 58.4423 21.5075 57.8286 20.8649C57.223 20.2224 56.3883 19.9012 55.3244 19.9012C54.8989 19.9012 54.4897 19.9686 54.0969 20.1034C53.7123 20.2304 53.3481 20.4326 53.0044 20.7103C52.6689 20.98 52.3988 21.3567 52.1943 21.8406C51.9897 22.3245 51.8874 22.8877 51.8874 23.5302V30.3005H50.0461V18.4614H51.8874V20.508C52.2884 19.7306 52.8489 19.1555 53.5691 18.7827C54.2892 18.4019 55.0585 18.2116 55.8768 18.2116C57.98 18.2116 59.3834 19.0643 60.0872 20.7698C60.4309 19.9607 60.9874 19.334 61.7566 18.8898C62.5259 18.4376 63.377 18.2116 64.3099 18.2116Z" fill="white"/>
<path d="M79.6171 18.2116C80.7219 18.2116 81.7366 18.4813 82.6614 19.0207C83.5943 19.5601 84.3308 20.3017 84.8709 21.2457C85.411 22.1896 85.6811 23.2248 85.6811 24.3512C85.6811 25.4776 85.411 26.5168 84.8709 27.4686C84.3308 28.4205 83.5943 29.1701 82.6614 29.7175C81.7366 30.2648 80.7219 30.5385 79.6171 30.5385C78.4632 30.5385 77.4567 30.2807 76.5974 29.7651C75.7463 29.2415 75.0957 28.5038 74.6456 27.5519V30.3005H72.8044V13.238H74.6456V21.1862C75.0875 20.2422 75.7381 19.5125 76.5974 18.9969C77.4567 18.4733 78.4632 18.2116 79.6171 18.2116ZM79.2734 28.8608C80.5664 28.8608 81.6548 28.4285 82.5386 27.5638C83.4224 26.6913 83.8643 25.6204 83.8643 24.3512C83.8643 23.1058 83.4224 22.0469 82.5386 21.1743C81.6548 20.3017 80.5664 19.8655 79.2734 19.8655C77.9395 19.8655 76.8347 20.2898 75.9591 21.1386C75.0834 21.9874 74.6456 23.0582 74.6456 24.3512C74.6456 25.6521 75.0834 26.7309 75.9591 27.5876C76.8347 28.4364 77.9395 28.8608 79.2734 28.8608Z" fill="white"/>
<path d="M99.417 24.0181C99.417 24.375 99.4089 24.6011 99.3925 24.6963H89.155C89.245 25.9655 89.6951 26.9887 90.5052 27.7661C91.3154 28.5435 92.3588 28.9322 93.6354 28.9322C94.6174 28.9322 95.4603 28.718 96.1641 28.2896C96.8761 27.8534 97.3139 27.2743 97.4775 26.5524H99.3188C99.0815 27.7502 98.435 28.714 97.3794 29.4438C96.3237 30.1736 95.0593 30.5385 93.5863 30.5385C91.8105 30.5385 90.3252 29.9435 89.1304 28.7537C87.9438 27.5638 87.3505 26.0805 87.3505 24.3036C87.3505 22.5982 87.952 21.1584 89.155 19.9844C90.3579 18.8025 91.8269 18.2116 93.5618 18.2116C94.6502 18.2116 95.6404 18.4614 96.5324 18.9612C97.4244 19.453 98.1281 20.1431 98.6437 21.0315C99.1593 21.9199 99.417 22.9155 99.417 24.0181ZM89.2409 23.1852H97.453C97.363 22.2015 96.9497 21.3964 96.2132 20.7698C95.4849 20.1352 94.5765 19.8179 93.4881 19.8179C92.4079 19.8179 91.4831 20.1233 90.7139 20.7341C89.9447 21.3448 89.4536 22.1619 89.2409 23.1852Z" fill="white"/>
<path d="M112.159 18.4614H114V30.3005H112.159V27.5519C111.709 28.5038 111.054 29.2415 110.195 29.7651C109.344 30.2807 108.341 30.5385 107.187 30.5385C106.082 30.5385 105.064 30.2648 104.131 29.7175C103.206 29.1701 102.474 28.4205 101.933 27.4686C101.393 26.5168 101.123 25.4776 101.123 24.3512C101.123 23.2248 101.393 22.1896 101.933 21.2457C102.474 20.3017 103.206 19.5601 104.131 19.0207C105.064 18.4813 106.082 18.2116 107.187 18.2116C108.341 18.2116 109.348 18.4733 110.207 18.9969C111.066 19.5125 111.717 20.2422 112.159 21.1862V18.4614ZM107.531 28.8608C108.865 28.8608 109.97 28.4364 110.845 27.5876C111.721 26.7309 112.159 25.6521 112.159 24.3512C112.159 23.0582 111.721 21.9874 110.845 21.1386C109.97 20.2898 108.865 19.8655 107.531 19.8655C106.238 19.8655 105.145 20.3017 104.253 21.1743C103.37 22.0469 102.928 23.1058 102.928 24.3512C102.928 25.6204 103.37 26.6913 104.253 27.5638C105.145 28.4285 106.238 28.8608 107.531 28.8608Z" fill="white"/>
<path fill-rule="evenodd" clip-rule="evenodd" d="M133 18.3852H136.186L128.631 36.2901H125.437L127.798 30.8952L122.509 18.3852H125.721L129.344 27.2801L133 18.3852ZM129.342 28.7573L125.344 18.9422H123.352L128.407 30.899L126.291 35.7331H128.259L135.344 18.9422H133.376L129.342 28.7573ZM146.85 18.3852H149.814V31.6763H146.85V30.1296C146.523 30.4776 146.153 30.7816 145.74 31.0401L145.738 31.0409C144.784 31.6344 143.673 31.921 142.428 31.921C141.221 31.921 140.099 31.6124 139.076 30.9961L139.074 30.995C138.061 30.3796 137.26 29.536 136.674 28.475C136.085 27.4106 135.793 26.2489 135.793 25.0001C135.793 23.7513 136.085 22.593 136.675 21.5358C137.262 20.4824 138.064 19.6469 139.077 19.0401L139.079 19.039C140.102 18.4318 141.222 18.1282 142.428 18.1282C143.674 18.1282 144.789 18.4193 145.75 19.0202C146.16 19.2727 146.526 19.5701 146.85 19.9107V18.3852ZM147.41 21.7447C147.25 21.3951 147.064 21.074 146.85 20.7814C146.47 20.2617 146.005 19.8322 145.454 19.4929C144.593 18.9544 143.585 18.6852 142.428 18.6852C141.321 18.6852 140.301 18.9626 139.366 19.5174C138.439 20.0722 137.705 20.835 137.164 21.8059C136.623 22.7768 136.352 23.8416 136.352 25.0001C136.352 26.1587 136.623 27.2275 137.164 28.2066C137.705 29.1856 138.439 29.9566 139.366 30.5196C140.301 31.0826 141.321 31.364 142.428 31.364C143.585 31.364 144.589 31.0989 145.442 30.5685C145.996 30.2218 146.466 29.7838 146.85 29.2544C147.062 28.9616 147.249 28.6409 147.41 28.2922V31.1193H149.255V18.9422H147.41V21.7447ZM145.697 27.9359C146.461 27.168 146.85 26.2036 146.85 25.0001C146.85 23.8053 146.462 22.8496 145.698 22.0896C144.934 21.3297 143.973 20.9433 142.773 20.9433C141.624 20.9433 140.673 21.3347 139.887 22.1237C139.107 22.9147 138.72 23.8626 138.72 25.0001C138.72 26.1648 139.109 27.1237 139.886 27.9124C140.672 28.6932 141.622 29.0815 142.773 29.0815C143.973 29.0815 144.933 28.6953 145.697 27.9359ZM139.489 21.7325C140.383 20.835 141.477 20.3863 142.773 20.3863C144.109 20.3863 145.216 20.8228 146.094 21.6958C146.971 22.5688 147.41 23.6702 147.41 25.0001C147.41 26.3382 146.971 27.4478 146.094 28.3289C145.216 29.2019 144.109 29.6384 142.773 29.6384C141.477 29.6384 140.383 29.1938 139.489 28.3045C138.603 27.407 138.16 26.3055 138.16 25.0001C138.16 23.7192 138.603 22.63 139.489 21.7325Z" fill="#FFD500"/>
<path d="M133.376 18.9424H135.344L128.259 35.7334H126.291L128.407 30.8993L123.352 18.9424H125.344L129.342 28.7576L133.376 18.9424Z" fill="#FFD500"/>
<path d="M147.41 18.9424H149.254V31.1195H147.41V28.2925C146.959 29.2716 146.303 30.0303 145.442 30.5688C144.589 31.0991 143.584 31.3643 142.428 31.3643C141.321 31.3643 140.3 31.0828 139.366 30.5199C138.439 29.9569 137.705 29.1859 137.164 28.2068C136.623 27.2278 136.352 26.159 136.352 25.0004C136.352 23.8418 136.623 22.7771 137.164 21.8062C137.705 20.8353 138.439 20.0724 139.366 19.5176C140.3 18.9628 141.321 18.6854 142.428 18.6854C143.584 18.6854 144.593 18.9547 145.454 19.4932C146.315 20.0235 146.967 20.7741 147.41 21.745V18.9424ZM142.773 29.6387C144.109 29.6387 145.216 29.2022 146.093 28.3292C146.971 27.4481 147.41 26.3384 147.41 25.0004C147.41 23.6705 146.971 22.569 146.093 21.696C145.216 20.823 144.109 20.3865 142.773 20.3865C141.477 20.3865 140.382 20.8353 139.489 21.7328C138.603 22.6302 138.16 23.7194 138.16 25.0004C138.16 26.3058 138.603 27.4073 139.489 28.3047C140.382 29.1941 141.477 29.6387 142.773 29.6387Z" fill="#FFD500"/>
<path d="M127.287 41.5314C125.239 42.2197 124.331 42.6406 122.667 42.369C121.005 42.0862 119.661 41.2284 118.636 39.7957C117.611 38.363 117.23 36.81 117.493 35.1368C117.758 33.4523 118.594 32.098 120.002 31.0739C121.098 30.2763 122.306 29.8899 123.626 29.9146C124.941 29.9328 126.038 30.3632 126.917 31.2058L125.438 32.2818C124.859 31.8175 124.154 31.6042 123.323 31.6419C122.487 31.6731 121.712 31.9482 120.999 32.4673C119.993 33.1989 119.399 34.168 119.217 35.3748C119.035 36.5816 119.318 37.7083 120.067 38.7551C120.811 39.7952 121.782 40.4217 122.98 40.6346C124.177 40.8474 125.239 40.4988 126.444 40.103C130.017 38.7779 130.017 38.7779 131.041 38.4337C132.065 38.0895 150.496 32.5825 150.496 32.5825L149.13 34.6475C147.083 35.3359 148.106 34.9917 147.083 35.3359C145.449 35.8852 129.064 40.6345 127.287 41.5314Z" fill="#FFD500"/>
</svg>
