<svg xmlns="http://www.w3.org/2000/svg" viewBox="0 0 88.75 88.75"><defs><style>.cls-1{fill:#4cbfb4;}</style></defs><g id="Layer_2" data-name="Layer 2"><g id="Capa_1" data-name="Capa 1"><circle class="cls-1" cx="41.43" cy="29.43" r="13.97"/><path class="cls-1" d="M44.38,0A44.38,44.38,0,1,0,88.75,44.38,44.38,44.38,0,0,0,44.38,0Zm0,83.37a39,39,0,1,1,39-39A39,39,0,0,1,44.38,83.37Z"/><path class="cls-1" d="M52.94,52.56,61.36,61a1.33,1.33,0,0,0,1.87,0l18.41-18.4a1.35,1.35,0,0,0,0-1.88l-1.31-1.31a1.32,1.32,0,0,0-1.87,0L63.23,54.62a1.33,1.33,0,0,1-1.87,0l-5.24-5.24a1.32,1.32,0,0,0-1.87,0l-1.31,1.31A1.33,1.33,0,0,0,52.94,52.56Z"/><path class="cls-1" d="M48.07,52.44a15.21,15.21,0,0,1,.56-4.07,28.33,28.33,0,0,0-7.62-1c-12.6,0-23,8.12-24.49,18.61H56.38A15.15,15.15,0,0,1,48.07,52.44Z"/><path class="cls-1" d="M77.26,49.82a1,1,0,0,0-.27.81,12.05,12.05,0,0,1,.14,1.81,13.62,13.62,0,1,1-4.8-10.35A.92.92,0,0,0,73.59,42h0a1,1,0,0,0-.06-1.39,15.51,15.51,0,1,0,5.33,9.73.94.94,0,0,0-1.6-.55Z"/></g></g></svg>